M48
METRIC,LZ,000.000
;FILE_FORMAT=3:3
;TYPE=PLATED
;Layer: PTH_Through
;EasyEDA v6.5.29, 2023-07-15 16:34:33
;ff16eedd4ae041ca9ad6f45f5caac9ae,10
;Gerber Generator version 0.2
;Holesize 1 = 0.306 mm
T01C0.306
;Holesize 2 = 1.000 mm
T02C1.000
;Holesize 3 = 1.400 mm
T03C1.400
;Holesize 4 = 1.600 mm
T04C1.600
%
G05
G90
T01
X037052Y076773
X029341Y074231
X051006Y061048
X046595Y065262
X030520Y077381
X043787Y077381
X040352Y076773
T02
X032766Y082296
X032766Y084836
X035306Y082296
X035306Y084836
X037846Y082296
X037846Y084836
X040386Y082296
X040386Y084836
X042926Y082296
X042926Y084836
T03
X024102Y083820
X020602Y083820
T04
X053421Y055372
X056921Y055372
X060421Y055372
X065944Y055372
X069443Y055372
X072944Y055372
X040899Y055372
X044399Y055372
X047899Y055372
X015855Y055372
X019355Y055372
X022855Y055372
X070358Y066350
X070358Y069850
X070358Y073350
X028377Y055372
X031877Y055372
X035377Y055372
M30
