G04 Layer: BottomLayer*
G04 EasyEDA v6.5.29, 2023-07-15 16:34:33*
G04 ff16eedd4ae041ca9ad6f45f5caac9ae,10*
G04 Gerber Generator version 0.2*
G04 Scale: 100 percent, Rotated: No, Reflected: No *
G04 Dimensions in millimeters *
G04 leading zeros omitted , absolute positions ,4 integer and 5 decimal *
%FSLAX45Y45*%
%MOMM*%

%ADD10C,0.6000*%
%ADD11C,0.2540*%
%ADD12C,2.5000*%
%ADD13C,2.2000*%
%ADD14C,1.5240*%
%ADD15C,0.6100*%
%ADD16C,0.0127*%

%LPD*%
G36*
X1519885Y4572508D02*
G01*
X1497279Y4573422D01*
X1475943Y4575962D01*
X1454810Y4580178D01*
X1434134Y4586071D01*
X1413967Y4593539D01*
X1394409Y4602581D01*
X1375664Y4613148D01*
X1357782Y4625086D01*
X1340916Y4638446D01*
X1325118Y4653076D01*
X1310538Y4668926D01*
X1297228Y4685842D01*
X1285341Y4703724D01*
X1274826Y4722520D01*
X1265834Y4742078D01*
X1258417Y4762296D01*
X1252626Y4783023D01*
X1248460Y4804105D01*
X1245971Y4825492D01*
X1245108Y4847285D01*
X1245108Y8703614D01*
X1246022Y8726170D01*
X1248562Y8747556D01*
X1252829Y8768638D01*
X1258671Y8789365D01*
X1266139Y8809532D01*
X1275181Y8829040D01*
X1285748Y8847836D01*
X1297736Y8865666D01*
X1311046Y8882583D01*
X1325676Y8898331D01*
X1341526Y8912910D01*
X1358442Y8926220D01*
X1376324Y8938158D01*
X1395120Y8948674D01*
X1414678Y8957614D01*
X1434896Y8965031D01*
X1455623Y8970873D01*
X1476705Y8975039D01*
X1498092Y8977528D01*
X1519885Y8978392D01*
X7364984Y8978392D01*
X7387590Y8977477D01*
X7408925Y8974886D01*
X7430058Y8970670D01*
X7450734Y8964777D01*
X7470952Y8957310D01*
X7490459Y8948267D01*
X7509205Y8937752D01*
X7527086Y8925763D01*
X7543952Y8912402D01*
X7559751Y8897772D01*
X7574330Y8881973D01*
X7587640Y8865057D01*
X7599578Y8847124D01*
X7610043Y8828328D01*
X7619034Y8808770D01*
X7626451Y8788603D01*
X7632242Y8767876D01*
X7636408Y8746744D01*
X7638948Y8725408D01*
X7639761Y8703614D01*
X7639761Y4847285D01*
X7638846Y4824679D01*
X7636306Y4803343D01*
X7632090Y4782210D01*
X7626197Y4761534D01*
X7618730Y4741367D01*
X7609687Y4721809D01*
X7599172Y4703064D01*
X7587183Y4685182D01*
X7573822Y4668316D01*
X7559192Y4652518D01*
X7543342Y4637938D01*
X7526426Y4624628D01*
X7508544Y4612690D01*
X7489748Y4602226D01*
X7470190Y4593234D01*
X7449972Y4585817D01*
X7429296Y4580026D01*
X7408164Y4575860D01*
X7386777Y4573371D01*
X7364984Y4572508D01*
G37*

%LPC*%
G36*
X3184804Y8528050D02*
G01*
X3232150Y8528050D01*
X3232150Y8575395D01*
X3221685Y8569655D01*
X3210712Y8561578D01*
X3200908Y8552078D01*
X3192424Y8541359D01*
X3185464Y8529624D01*
G37*
G36*
X1489202Y4614926D02*
G01*
X1507998Y4614926D01*
X1526743Y4616856D01*
X1545183Y4620615D01*
X1563166Y4626254D01*
X1580489Y4633722D01*
X1596948Y4642866D01*
X1612392Y4653584D01*
X1626666Y4665878D01*
X1639671Y4679492D01*
X1651152Y4694428D01*
X1661160Y4710379D01*
X1669440Y4727295D01*
X1675993Y4744974D01*
X1680667Y4763160D01*
X1683562Y4781804D01*
X1684477Y4800600D01*
X1683562Y4819396D01*
X1680667Y4838039D01*
X1675993Y4856226D01*
X1669440Y4873904D01*
X1661160Y4890820D01*
X1651152Y4906772D01*
X1639671Y4921707D01*
X1626666Y4935321D01*
X1612392Y4947615D01*
X1596948Y4958334D01*
X1580489Y4967478D01*
X1563166Y4974945D01*
X1545183Y4980584D01*
X1526743Y4984343D01*
X1507998Y4986274D01*
X1489202Y4986274D01*
X1470456Y4984343D01*
X1452016Y4980584D01*
X1434033Y4974945D01*
X1416710Y4967478D01*
X1400251Y4958334D01*
X1384808Y4947615D01*
X1370533Y4935321D01*
X1357528Y4921707D01*
X1346047Y4906772D01*
X1336040Y4890820D01*
X1327759Y4873904D01*
X1321206Y4856226D01*
X1316532Y4838039D01*
X1313637Y4819396D01*
X1312722Y4800600D01*
X1313637Y4781804D01*
X1316532Y4763160D01*
X1321206Y4744974D01*
X1327759Y4727295D01*
X1336040Y4710379D01*
X1346047Y4694428D01*
X1357528Y4679492D01*
X1370533Y4665878D01*
X1384808Y4653584D01*
X1400251Y4642866D01*
X1416710Y4633722D01*
X1434033Y4626254D01*
X1452016Y4620615D01*
X1470456Y4616856D01*
G37*
G36*
X1935480Y5386324D02*
G01*
X1952345Y5387238D01*
X1969058Y5390083D01*
X1985314Y5394756D01*
X2000961Y5401259D01*
X2015743Y5409438D01*
X2029561Y5419242D01*
X2042160Y5430520D01*
X2053437Y5443118D01*
X2063242Y5456936D01*
X2071420Y5471718D01*
X2077872Y5487365D01*
X2082596Y5503621D01*
X2085390Y5520283D01*
X2086356Y5537200D01*
X2085390Y5554116D01*
X2082596Y5570778D01*
X2077872Y5587034D01*
X2071420Y5602681D01*
X2063242Y5617464D01*
X2053437Y5631281D01*
X2042160Y5643880D01*
X2029561Y5655157D01*
X2015743Y5664962D01*
X2000961Y5673140D01*
X1985314Y5679643D01*
X1969058Y5684316D01*
X1952345Y5687161D01*
X1935480Y5688076D01*
X1918563Y5687161D01*
X1901901Y5684316D01*
X1885645Y5679643D01*
X1869998Y5673140D01*
X1855216Y5664962D01*
X1841398Y5655157D01*
X1828749Y5643880D01*
X1817522Y5631281D01*
X1807718Y5617464D01*
X1799539Y5602681D01*
X1793036Y5587034D01*
X1788363Y5570778D01*
X1785518Y5554116D01*
X1784553Y5537200D01*
X1785518Y5520283D01*
X1788363Y5503621D01*
X1793036Y5487365D01*
X1799539Y5471718D01*
X1807718Y5456936D01*
X1817522Y5443118D01*
X1828749Y5430520D01*
X1841398Y5419242D01*
X1855216Y5409438D01*
X1869998Y5401259D01*
X1885645Y5394756D01*
X1901901Y5390083D01*
X1918563Y5387238D01*
G37*
G36*
X2285492Y5386324D02*
G01*
X2302357Y5387238D01*
X2319070Y5390083D01*
X2335326Y5394756D01*
X2350922Y5401259D01*
X2365756Y5409438D01*
X2379573Y5419242D01*
X2392172Y5430520D01*
X2403449Y5443118D01*
X2413254Y5456936D01*
X2421432Y5471718D01*
X2427884Y5487365D01*
X2432558Y5503621D01*
X2435402Y5520283D01*
X2436368Y5537200D01*
X2435402Y5554116D01*
X2432558Y5570778D01*
X2427884Y5587034D01*
X2421432Y5602681D01*
X2413254Y5617464D01*
X2403449Y5631281D01*
X2392172Y5643880D01*
X2379573Y5655157D01*
X2365756Y5664962D01*
X2350922Y5673140D01*
X2335326Y5679643D01*
X2319070Y5684316D01*
X2302357Y5687161D01*
X2285492Y5688076D01*
X2268575Y5687161D01*
X2251913Y5684316D01*
X2235657Y5679643D01*
X2220010Y5673140D01*
X2205177Y5664962D01*
X2191410Y5655157D01*
X2178761Y5643880D01*
X2167483Y5631281D01*
X2157730Y5617464D01*
X2149500Y5602681D01*
X2143048Y5587034D01*
X2138375Y5570778D01*
X2135530Y5554116D01*
X2134565Y5537200D01*
X2135530Y5520283D01*
X2138375Y5503621D01*
X2143048Y5487365D01*
X2149500Y5471718D01*
X2157730Y5456936D01*
X2167483Y5443118D01*
X2178761Y5430520D01*
X2191410Y5419242D01*
X2205177Y5409438D01*
X2220010Y5401259D01*
X2235657Y5394756D01*
X2251913Y5390083D01*
X2268575Y5387238D01*
G37*
G36*
X6944359Y5386324D02*
G01*
X6961225Y5387238D01*
X6977938Y5390083D01*
X6994194Y5394756D01*
X7009841Y5401259D01*
X7024624Y5409438D01*
X7038441Y5419242D01*
X7051040Y5430520D01*
X7062317Y5443118D01*
X7072122Y5456936D01*
X7080300Y5471718D01*
X7086752Y5487365D01*
X7091476Y5503621D01*
X7094270Y5520283D01*
X7095236Y5537200D01*
X7094270Y5554116D01*
X7091476Y5570778D01*
X7086752Y5587034D01*
X7080300Y5602681D01*
X7072122Y5617464D01*
X7062317Y5631281D01*
X7051040Y5643880D01*
X7038441Y5655157D01*
X7024624Y5664962D01*
X7009841Y5673140D01*
X6994194Y5679643D01*
X6977938Y5684316D01*
X6961225Y5687161D01*
X6944359Y5688076D01*
X6927443Y5687161D01*
X6910781Y5684316D01*
X6894525Y5679643D01*
X6878878Y5673140D01*
X6864096Y5664962D01*
X6850278Y5655157D01*
X6837629Y5643880D01*
X6826402Y5631281D01*
X6816598Y5617464D01*
X6808419Y5602681D01*
X6801916Y5587034D01*
X6797243Y5570778D01*
X6794398Y5554116D01*
X6793433Y5537200D01*
X6794398Y5520283D01*
X6797243Y5503621D01*
X6801916Y5487365D01*
X6808419Y5471718D01*
X6816598Y5456936D01*
X6826402Y5443118D01*
X6837629Y5430520D01*
X6850278Y5419242D01*
X6864096Y5409438D01*
X6878878Y5401259D01*
X6894525Y5394756D01*
X6910781Y5390083D01*
X6927443Y5387238D01*
G37*
G36*
X7294372Y5386324D02*
G01*
X7311237Y5387238D01*
X7327950Y5390083D01*
X7344206Y5394756D01*
X7359802Y5401259D01*
X7374636Y5409438D01*
X7388453Y5419242D01*
X7401052Y5430520D01*
X7412329Y5443118D01*
X7422134Y5456936D01*
X7430312Y5471718D01*
X7436764Y5487365D01*
X7441438Y5503621D01*
X7444282Y5520283D01*
X7445248Y5537200D01*
X7444282Y5554116D01*
X7441438Y5570778D01*
X7436764Y5587034D01*
X7430312Y5602681D01*
X7422134Y5617464D01*
X7412329Y5631281D01*
X7401052Y5643880D01*
X7388453Y5655157D01*
X7374636Y5664962D01*
X7359802Y5673140D01*
X7344206Y5679643D01*
X7327950Y5684316D01*
X7311237Y5687161D01*
X7294372Y5688076D01*
X7277455Y5687161D01*
X7260793Y5684316D01*
X7244537Y5679643D01*
X7228890Y5673140D01*
X7214057Y5664962D01*
X7200290Y5655157D01*
X7187641Y5643880D01*
X7176363Y5631281D01*
X7166609Y5617464D01*
X7158380Y5602681D01*
X7151928Y5587034D01*
X7147255Y5570778D01*
X7144410Y5554116D01*
X7143445Y5537200D01*
X7144410Y5520283D01*
X7147255Y5503621D01*
X7151928Y5487365D01*
X7158380Y5471718D01*
X7166609Y5456936D01*
X7176363Y5443118D01*
X7187641Y5430520D01*
X7200290Y5419242D01*
X7214057Y5409438D01*
X7228890Y5401259D01*
X7244537Y5394756D01*
X7260793Y5390083D01*
X7277455Y5387238D01*
G37*
G36*
X1585468Y5386324D02*
G01*
X1602384Y5387238D01*
X1619046Y5390083D01*
X1635302Y5394756D01*
X1650949Y5401259D01*
X1665732Y5409438D01*
X1679549Y5419242D01*
X1692148Y5430520D01*
X1703425Y5443118D01*
X1713230Y5456936D01*
X1721408Y5471718D01*
X1727911Y5487365D01*
X1732584Y5503621D01*
X1735429Y5520283D01*
X1736343Y5537200D01*
X1735429Y5554116D01*
X1732584Y5570778D01*
X1727911Y5587034D01*
X1726539Y5590336D01*
X1725777Y5594197D01*
X1726539Y5598109D01*
X1728724Y5601411D01*
X2033168Y5905855D01*
X2036470Y5908040D01*
X2040382Y5908802D01*
X2382824Y5908802D01*
X2386736Y5908040D01*
X2390038Y5905855D01*
X2622245Y5673648D01*
X2626004Y5670194D01*
X2629865Y5667197D01*
X2633980Y5664606D01*
X2638298Y5662320D01*
X2642819Y5660491D01*
X2647442Y5659018D01*
X2652217Y5657951D01*
X2657043Y5657291D01*
X2662123Y5657088D01*
X2720086Y5657088D01*
X2723896Y5656376D01*
X2727147Y5654243D01*
X2729331Y5651093D01*
X2730246Y5647334D01*
X2729636Y5643473D01*
X2727655Y5640171D01*
X2719730Y5631281D01*
X2709926Y5617464D01*
X2701747Y5602681D01*
X2695244Y5587034D01*
X2690571Y5570778D01*
X2687726Y5554116D01*
X2686812Y5537200D01*
X2687726Y5520283D01*
X2690571Y5503621D01*
X2695244Y5487365D01*
X2701747Y5471718D01*
X2709926Y5456936D01*
X2719730Y5443118D01*
X2731008Y5430520D01*
X2743606Y5419242D01*
X2757424Y5409438D01*
X2772206Y5401259D01*
X2787853Y5394756D01*
X2804109Y5390083D01*
X2820771Y5387238D01*
X2837688Y5386324D01*
X2854604Y5387238D01*
X2871266Y5390083D01*
X2887522Y5394756D01*
X2903169Y5401259D01*
X2917952Y5409438D01*
X2931769Y5419242D01*
X2944368Y5430520D01*
X2955645Y5443118D01*
X2965450Y5456936D01*
X2973628Y5471718D01*
X2980131Y5487365D01*
X2984804Y5503621D01*
X2987649Y5520283D01*
X2988564Y5537200D01*
X2987649Y5554116D01*
X2984804Y5570778D01*
X2980131Y5587034D01*
X2973628Y5602681D01*
X2965450Y5617464D01*
X2955645Y5631281D01*
X2947720Y5640171D01*
X2945739Y5643473D01*
X2945130Y5647334D01*
X2946044Y5651093D01*
X2948228Y5654243D01*
X2951480Y5656376D01*
X2955290Y5657088D01*
X3070098Y5657088D01*
X3073857Y5656376D01*
X3077108Y5654243D01*
X3079343Y5651093D01*
X3080258Y5647334D01*
X3079648Y5643473D01*
X3077667Y5640171D01*
X3069742Y5631281D01*
X3059938Y5617464D01*
X3051759Y5602681D01*
X3045256Y5587034D01*
X3040583Y5570778D01*
X3037738Y5554116D01*
X3036773Y5537200D01*
X3037738Y5520283D01*
X3040583Y5503621D01*
X3045256Y5487365D01*
X3051759Y5471718D01*
X3059938Y5456936D01*
X3069742Y5443118D01*
X3080969Y5430520D01*
X3093618Y5419242D01*
X3107436Y5409438D01*
X3122218Y5401259D01*
X3137865Y5394756D01*
X3154121Y5390083D01*
X3170783Y5387238D01*
X3187700Y5386324D01*
X3204565Y5387238D01*
X3221278Y5390083D01*
X3237534Y5394756D01*
X3253181Y5401259D01*
X3267964Y5409438D01*
X3281781Y5419242D01*
X3294379Y5430520D01*
X3305657Y5443118D01*
X3315462Y5456936D01*
X3323640Y5471718D01*
X3330092Y5487365D01*
X3334816Y5503621D01*
X3337610Y5520283D01*
X3338576Y5537200D01*
X3337610Y5554116D01*
X3334816Y5570778D01*
X3330092Y5587034D01*
X3323640Y5602681D01*
X3315462Y5617464D01*
X3305657Y5631281D01*
X3297732Y5640171D01*
X3295751Y5643473D01*
X3295142Y5647334D01*
X3296005Y5651093D01*
X3298240Y5654243D01*
X3301492Y5656376D01*
X3305301Y5657088D01*
X3420059Y5657088D01*
X3423869Y5656376D01*
X3427120Y5654243D01*
X3429355Y5651093D01*
X3430219Y5647334D01*
X3429660Y5643473D01*
X3427679Y5640171D01*
X3419703Y5631281D01*
X3409950Y5617464D01*
X3401720Y5602681D01*
X3395268Y5587034D01*
X3390595Y5570778D01*
X3387750Y5554116D01*
X3386785Y5537200D01*
X3387750Y5520283D01*
X3390595Y5503621D01*
X3395268Y5487365D01*
X3401720Y5471718D01*
X3409950Y5456936D01*
X3419703Y5443118D01*
X3430981Y5430520D01*
X3443630Y5419242D01*
X3457397Y5409438D01*
X3472230Y5401259D01*
X3487877Y5394756D01*
X3504133Y5390083D01*
X3520795Y5387238D01*
X3537712Y5386324D01*
X3554577Y5387238D01*
X3571290Y5390083D01*
X3587546Y5394756D01*
X3603142Y5401259D01*
X3617976Y5409438D01*
X3631793Y5419242D01*
X3644392Y5430520D01*
X3655669Y5443118D01*
X3665474Y5456936D01*
X3673652Y5471718D01*
X3680104Y5487365D01*
X3684778Y5503621D01*
X3687622Y5520283D01*
X3688587Y5537200D01*
X3687622Y5554116D01*
X3684778Y5570778D01*
X3680104Y5587034D01*
X3673652Y5602681D01*
X3665474Y5617464D01*
X3655669Y5631281D01*
X3647744Y5640171D01*
X3645763Y5643473D01*
X3645154Y5647334D01*
X3646017Y5651093D01*
X3648252Y5654243D01*
X3651504Y5656376D01*
X3655314Y5657088D01*
X3886758Y5657088D01*
X3890670Y5656326D01*
X3893972Y5654141D01*
X3946651Y5601411D01*
X3948836Y5598109D01*
X3949649Y5594248D01*
X3948836Y5590336D01*
X3947464Y5587034D01*
X3942791Y5570778D01*
X3939946Y5554116D01*
X3939032Y5537200D01*
X3939946Y5520283D01*
X3942791Y5503621D01*
X3947464Y5487365D01*
X3953967Y5471718D01*
X3962146Y5456936D01*
X3971950Y5443118D01*
X3983228Y5430520D01*
X3995826Y5419242D01*
X4009644Y5409438D01*
X4024426Y5401259D01*
X4040073Y5394756D01*
X4056329Y5390083D01*
X4072991Y5387238D01*
X4089908Y5386324D01*
X4106824Y5387238D01*
X4123486Y5390083D01*
X4139742Y5394756D01*
X4155389Y5401259D01*
X4170172Y5409438D01*
X4183989Y5419242D01*
X4196588Y5430520D01*
X4207865Y5443118D01*
X4217670Y5456936D01*
X4225848Y5471718D01*
X4232351Y5487365D01*
X4237024Y5503621D01*
X4239869Y5520283D01*
X4240784Y5537200D01*
X4239869Y5554116D01*
X4237024Y5570778D01*
X4232351Y5587034D01*
X4230979Y5590336D01*
X4230217Y5594197D01*
X4230979Y5598109D01*
X4233164Y5601411D01*
X4285183Y5653379D01*
X4288485Y5655564D01*
X4292346Y5656376D01*
X4321657Y5656376D01*
X4325467Y5655614D01*
X4328668Y5653532D01*
X4330903Y5650331D01*
X4331817Y5646572D01*
X4331208Y5642762D01*
X4329226Y5639409D01*
X4321962Y5631281D01*
X4312158Y5617464D01*
X4303979Y5602681D01*
X4297476Y5587034D01*
X4292803Y5570778D01*
X4289958Y5554116D01*
X4288993Y5537200D01*
X4289958Y5520283D01*
X4292803Y5503621D01*
X4297476Y5487365D01*
X4303979Y5471718D01*
X4312158Y5456936D01*
X4321962Y5443118D01*
X4333189Y5430520D01*
X4345838Y5419242D01*
X4359656Y5409438D01*
X4374438Y5401259D01*
X4390085Y5394756D01*
X4406341Y5390083D01*
X4423003Y5387238D01*
X4439920Y5386324D01*
X4456785Y5387238D01*
X4473498Y5390083D01*
X4489754Y5394756D01*
X4505401Y5401259D01*
X4520184Y5409438D01*
X4534001Y5419242D01*
X4546600Y5430520D01*
X4557877Y5443118D01*
X4567682Y5456936D01*
X4575860Y5471718D01*
X4582312Y5487365D01*
X4587036Y5503621D01*
X4589830Y5520283D01*
X4590796Y5537200D01*
X4589830Y5554116D01*
X4587036Y5570778D01*
X4582312Y5587034D01*
X4575860Y5602681D01*
X4567682Y5617464D01*
X4557877Y5631281D01*
X4550613Y5639409D01*
X4548632Y5642762D01*
X4548022Y5646572D01*
X4548886Y5650331D01*
X4551121Y5653532D01*
X4554372Y5655614D01*
X4558182Y5656376D01*
X4671669Y5656376D01*
X4675428Y5655614D01*
X4678680Y5653532D01*
X4680915Y5650331D01*
X4681778Y5646572D01*
X4681220Y5642762D01*
X4679238Y5639409D01*
X4671923Y5631281D01*
X4662170Y5617464D01*
X4653940Y5602681D01*
X4647488Y5587034D01*
X4642815Y5570778D01*
X4639970Y5554116D01*
X4639005Y5537200D01*
X4639970Y5520283D01*
X4642815Y5503621D01*
X4647488Y5487365D01*
X4653940Y5471718D01*
X4662170Y5456936D01*
X4671923Y5443118D01*
X4683201Y5430520D01*
X4695850Y5419242D01*
X4709617Y5409438D01*
X4724450Y5401259D01*
X4740097Y5394756D01*
X4756353Y5390083D01*
X4773015Y5387238D01*
X4789932Y5386324D01*
X4806797Y5387238D01*
X4823510Y5390083D01*
X4839766Y5394756D01*
X4855362Y5401259D01*
X4870196Y5409438D01*
X4884013Y5419242D01*
X4896612Y5430520D01*
X4907889Y5443118D01*
X4917694Y5456936D01*
X4925872Y5471718D01*
X4932324Y5487365D01*
X4936998Y5503621D01*
X4939842Y5520283D01*
X4940808Y5537200D01*
X4939842Y5554116D01*
X4936998Y5570778D01*
X4932324Y5587034D01*
X4925872Y5602681D01*
X4917694Y5617464D01*
X4907889Y5631281D01*
X4900625Y5639409D01*
X4898644Y5642762D01*
X4898034Y5646572D01*
X4898898Y5650331D01*
X4901133Y5653532D01*
X4904384Y5655614D01*
X4908194Y5656376D01*
X5139740Y5656376D01*
X5143601Y5655564D01*
X5146903Y5653379D01*
X5198872Y5601411D01*
X5201056Y5598109D01*
X5201869Y5594248D01*
X5201056Y5590336D01*
X5199684Y5587034D01*
X5195011Y5570778D01*
X5192166Y5554116D01*
X5191252Y5537200D01*
X5192166Y5520283D01*
X5195011Y5503621D01*
X5199684Y5487365D01*
X5206187Y5471718D01*
X5214366Y5456936D01*
X5224170Y5443118D01*
X5235448Y5430520D01*
X5248046Y5419242D01*
X5261864Y5409438D01*
X5276646Y5401259D01*
X5292293Y5394756D01*
X5308549Y5390083D01*
X5325211Y5387238D01*
X5342128Y5386324D01*
X5359044Y5387238D01*
X5375706Y5390083D01*
X5391962Y5394756D01*
X5407609Y5401259D01*
X5422392Y5409438D01*
X5436209Y5419242D01*
X5448808Y5430520D01*
X5460085Y5443118D01*
X5469890Y5456936D01*
X5478068Y5471718D01*
X5484571Y5487365D01*
X5489244Y5503621D01*
X5492089Y5520283D01*
X5493004Y5537200D01*
X5492089Y5554116D01*
X5489244Y5570778D01*
X5484571Y5587034D01*
X5483199Y5590336D01*
X5482437Y5594197D01*
X5483199Y5598109D01*
X5485384Y5601411D01*
X5541670Y5657697D01*
X5544972Y5659882D01*
X5548884Y5660644D01*
X5577687Y5660644D01*
X5581497Y5659932D01*
X5584748Y5657799D01*
X5586984Y5654649D01*
X5587847Y5650890D01*
X5587238Y5647029D01*
X5585256Y5643727D01*
X5574182Y5631281D01*
X5564378Y5617464D01*
X5556199Y5602681D01*
X5549696Y5587034D01*
X5545023Y5570778D01*
X5542178Y5554116D01*
X5541213Y5537200D01*
X5542178Y5520283D01*
X5545023Y5503621D01*
X5549696Y5487365D01*
X5556199Y5471718D01*
X5564378Y5456936D01*
X5574182Y5443118D01*
X5585409Y5430520D01*
X5598058Y5419242D01*
X5611876Y5409438D01*
X5626658Y5401259D01*
X5642305Y5394756D01*
X5658561Y5390083D01*
X5675223Y5387238D01*
X5692140Y5386324D01*
X5709005Y5387238D01*
X5725718Y5390083D01*
X5741974Y5394756D01*
X5757621Y5401259D01*
X5772404Y5409438D01*
X5786221Y5419242D01*
X5798820Y5430520D01*
X5810097Y5443118D01*
X5819902Y5456936D01*
X5828080Y5471718D01*
X5834532Y5487365D01*
X5839256Y5503621D01*
X5842050Y5520283D01*
X5843016Y5537200D01*
X5842050Y5554116D01*
X5839256Y5570778D01*
X5834532Y5587034D01*
X5828080Y5602681D01*
X5819902Y5617464D01*
X5810097Y5631281D01*
X5798972Y5643727D01*
X5796991Y5647029D01*
X5796432Y5650890D01*
X5797296Y5654649D01*
X5799531Y5657799D01*
X5802782Y5659932D01*
X5806541Y5660644D01*
X5927699Y5660644D01*
X5931509Y5659932D01*
X5934760Y5657799D01*
X5936996Y5654649D01*
X5937859Y5650890D01*
X5937250Y5647029D01*
X5935268Y5643727D01*
X5924143Y5631281D01*
X5914390Y5617464D01*
X5906160Y5602681D01*
X5899708Y5587034D01*
X5895035Y5570778D01*
X5892190Y5554116D01*
X5891225Y5537200D01*
X5892190Y5520283D01*
X5895035Y5503621D01*
X5899708Y5487365D01*
X5906160Y5471718D01*
X5914390Y5456936D01*
X5924143Y5443118D01*
X5935421Y5430520D01*
X5948070Y5419242D01*
X5961837Y5409438D01*
X5976670Y5401259D01*
X5992317Y5394756D01*
X6008573Y5390083D01*
X6025235Y5387238D01*
X6042152Y5386324D01*
X6059017Y5387238D01*
X6075730Y5390083D01*
X6091986Y5394756D01*
X6107582Y5401259D01*
X6122416Y5409438D01*
X6136233Y5419242D01*
X6148832Y5430520D01*
X6160109Y5443118D01*
X6169914Y5456936D01*
X6178092Y5471718D01*
X6184544Y5487365D01*
X6189218Y5503621D01*
X6192062Y5520283D01*
X6193028Y5537200D01*
X6192062Y5554116D01*
X6189218Y5570778D01*
X6184544Y5587034D01*
X6178092Y5602681D01*
X6169914Y5617464D01*
X6160109Y5631281D01*
X6148984Y5643727D01*
X6147003Y5647029D01*
X6146393Y5650890D01*
X6147308Y5654649D01*
X6149492Y5657799D01*
X6152743Y5659932D01*
X6156553Y5660644D01*
X6479895Y5660644D01*
X6483705Y5659932D01*
X6486956Y5657799D01*
X6489192Y5654649D01*
X6490055Y5650890D01*
X6489496Y5647029D01*
X6487515Y5643727D01*
X6476390Y5631281D01*
X6466586Y5617464D01*
X6458407Y5602681D01*
X6451904Y5587034D01*
X6447231Y5570778D01*
X6444386Y5554116D01*
X6443472Y5537200D01*
X6444386Y5520283D01*
X6447231Y5503621D01*
X6451904Y5487365D01*
X6458407Y5471718D01*
X6466586Y5456936D01*
X6476390Y5443118D01*
X6487668Y5430520D01*
X6500266Y5419242D01*
X6514084Y5409438D01*
X6528866Y5401259D01*
X6544513Y5394756D01*
X6560769Y5390083D01*
X6577431Y5387238D01*
X6594348Y5386324D01*
X6611264Y5387238D01*
X6627926Y5390083D01*
X6644182Y5394756D01*
X6659829Y5401259D01*
X6674612Y5409438D01*
X6688429Y5419242D01*
X6701028Y5430520D01*
X6712305Y5443118D01*
X6722109Y5456936D01*
X6730288Y5471718D01*
X6736791Y5487365D01*
X6741464Y5503621D01*
X6744309Y5520283D01*
X6745224Y5537200D01*
X6744309Y5554116D01*
X6741464Y5570778D01*
X6736791Y5587034D01*
X6730288Y5602681D01*
X6722109Y5617464D01*
X6712305Y5631281D01*
X6701028Y5643880D01*
X6688429Y5655157D01*
X6674612Y5664962D01*
X6659829Y5673140D01*
X6656578Y5674512D01*
X6653275Y5676696D01*
X6651040Y5679998D01*
X6650278Y5683910D01*
X6650278Y5689193D01*
X6651040Y5693054D01*
X6653275Y5696356D01*
X7075170Y6118301D01*
X7078624Y6122060D01*
X7081570Y6125921D01*
X7084212Y6130036D01*
X7086447Y6134354D01*
X7088327Y6138875D01*
X7089800Y6143498D01*
X7090867Y6148273D01*
X7091476Y6153099D01*
X7091730Y6158230D01*
X7091730Y6488277D01*
X7092492Y6492189D01*
X7094677Y6495491D01*
X7097979Y6497675D01*
X7101281Y6499047D01*
X7116064Y6507226D01*
X7129881Y6517030D01*
X7142480Y6528307D01*
X7153757Y6540906D01*
X7163562Y6554724D01*
X7171740Y6569506D01*
X7178243Y6585153D01*
X7182916Y6601409D01*
X7185761Y6618071D01*
X7186675Y6634988D01*
X7185761Y6651904D01*
X7182916Y6668566D01*
X7178243Y6684822D01*
X7171740Y6700469D01*
X7163562Y6715252D01*
X7153757Y6729069D01*
X7142480Y6741668D01*
X7129881Y6752945D01*
X7116064Y6762750D01*
X7101281Y6770928D01*
X7085634Y6777431D01*
X7069378Y6782104D01*
X7052716Y6784949D01*
X7035800Y6785864D01*
X7018883Y6784949D01*
X7002221Y6782104D01*
X6985965Y6777431D01*
X6970318Y6770928D01*
X6955536Y6762750D01*
X6941718Y6752945D01*
X6929120Y6741668D01*
X6917842Y6729069D01*
X6908038Y6715252D01*
X6899859Y6700469D01*
X6893356Y6684822D01*
X6888683Y6668566D01*
X6885838Y6651904D01*
X6884924Y6634988D01*
X6885838Y6618071D01*
X6888683Y6601409D01*
X6893356Y6585153D01*
X6899859Y6569506D01*
X6908038Y6554724D01*
X6917842Y6540906D01*
X6929120Y6528307D01*
X6941718Y6517030D01*
X6955536Y6507226D01*
X6970318Y6499047D01*
X6973620Y6497675D01*
X6976922Y6495491D01*
X6979107Y6492189D01*
X6979869Y6488277D01*
X6979869Y6185357D01*
X6979107Y6181445D01*
X6976922Y6178143D01*
X6574180Y5775452D01*
X6570878Y5773216D01*
X6567017Y5772454D01*
X5521706Y5772454D01*
X5516626Y5772251D01*
X5511800Y5771591D01*
X5507024Y5770575D01*
X5502402Y5769102D01*
X5497880Y5767222D01*
X5493562Y5764987D01*
X5489448Y5762345D01*
X5485587Y5759399D01*
X5481828Y5755944D01*
X5406339Y5680456D01*
X5403037Y5678271D01*
X5399176Y5677458D01*
X5395264Y5678271D01*
X5391962Y5679643D01*
X5375706Y5684316D01*
X5359044Y5687161D01*
X5342128Y5688076D01*
X5325211Y5687161D01*
X5308549Y5684316D01*
X5292293Y5679643D01*
X5289042Y5678271D01*
X5285130Y5677509D01*
X5281269Y5678271D01*
X5277967Y5680456D01*
X5206796Y5751626D01*
X5203037Y5755081D01*
X5199176Y5758078D01*
X5195062Y5760669D01*
X5190744Y5762904D01*
X5186222Y5764784D01*
X5181549Y5766257D01*
X5176824Y5767324D01*
X5171948Y5767933D01*
X5166868Y5768187D01*
X4265218Y5768187D01*
X4260138Y5767933D01*
X4255262Y5767324D01*
X4250537Y5766257D01*
X4245864Y5764784D01*
X4241342Y5762904D01*
X4237024Y5760669D01*
X4232910Y5758078D01*
X4229049Y5755081D01*
X4225290Y5751626D01*
X4154119Y5680456D01*
X4150817Y5678271D01*
X4146956Y5677458D01*
X4143044Y5678271D01*
X4139742Y5679643D01*
X4123486Y5684316D01*
X4106824Y5687161D01*
X4089908Y5688076D01*
X4072991Y5687161D01*
X4056329Y5684316D01*
X4040073Y5679643D01*
X4036822Y5678271D01*
X4032910Y5677509D01*
X4029049Y5678271D01*
X4025747Y5680456D01*
X3953814Y5752388D01*
X3950055Y5755843D01*
X3946194Y5758789D01*
X3942079Y5761431D01*
X3937762Y5763666D01*
X3933240Y5765546D01*
X3928618Y5767019D01*
X3923842Y5768035D01*
X3919016Y5768695D01*
X3913936Y5768898D01*
X2689301Y5768898D01*
X2685389Y5769660D01*
X2682087Y5771896D01*
X2469083Y5984900D01*
X2466898Y5988202D01*
X2466136Y5992063D01*
X2466136Y8252002D01*
X2466797Y8255660D01*
X2468727Y8258809D01*
X2471724Y8261096D01*
X2478125Y8264296D01*
X2491333Y8272983D01*
X2503474Y8283143D01*
X2514295Y8294674D01*
X2523744Y8307324D01*
X2531618Y8320989D01*
X2537917Y8335518D01*
X2542438Y8350656D01*
X2545181Y8366201D01*
X2546096Y8382000D01*
X2545181Y8397798D01*
X2542438Y8413343D01*
X2537917Y8428482D01*
X2531618Y8443010D01*
X2523744Y8456676D01*
X2514295Y8469325D01*
X2503474Y8480856D01*
X2491333Y8491016D01*
X2478125Y8499703D01*
X2464003Y8506764D01*
X2449169Y8512200D01*
X2433777Y8515807D01*
X2418080Y8517636D01*
X2402281Y8517636D01*
X2386584Y8515807D01*
X2371242Y8512200D01*
X2356358Y8506764D01*
X2342235Y8499703D01*
X2329078Y8491016D01*
X2316937Y8480856D01*
X2306116Y8469325D01*
X2296668Y8456676D01*
X2288743Y8443010D01*
X2282494Y8428482D01*
X2277973Y8413343D01*
X2275230Y8397798D01*
X2274316Y8382000D01*
X2275230Y8366201D01*
X2277973Y8350656D01*
X2282494Y8335518D01*
X2288743Y8320989D01*
X2296668Y8307324D01*
X2306116Y8294674D01*
X2316937Y8283143D01*
X2329078Y8272983D01*
X2342235Y8264296D01*
X2348687Y8261096D01*
X2351684Y8258809D01*
X2353614Y8255660D01*
X2354275Y8252002D01*
X2354275Y6030772D01*
X2353513Y6026912D01*
X2351328Y6023610D01*
X2348026Y6021374D01*
X2344115Y6020612D01*
X2013204Y6020612D01*
X2008124Y6020409D01*
X2003298Y6019749D01*
X1998522Y6018733D01*
X1993900Y6017260D01*
X1989378Y6015380D01*
X1985060Y6013145D01*
X1980946Y6010503D01*
X1977085Y6007557D01*
X1973325Y6004102D01*
X1649679Y5680456D01*
X1646377Y5678271D01*
X1642516Y5677458D01*
X1638604Y5678271D01*
X1635302Y5679643D01*
X1619046Y5684316D01*
X1602384Y5687161D01*
X1585468Y5688076D01*
X1568551Y5687161D01*
X1551889Y5684316D01*
X1535633Y5679643D01*
X1519986Y5673140D01*
X1505204Y5664962D01*
X1491386Y5655157D01*
X1478788Y5643880D01*
X1467510Y5631281D01*
X1457706Y5617464D01*
X1449527Y5602681D01*
X1443024Y5587034D01*
X1438351Y5570778D01*
X1435506Y5554116D01*
X1434592Y5537200D01*
X1435506Y5520283D01*
X1438351Y5503621D01*
X1443024Y5487365D01*
X1449527Y5471718D01*
X1457706Y5456936D01*
X1467510Y5443118D01*
X1478788Y5430520D01*
X1491386Y5419242D01*
X1505204Y5409438D01*
X1519986Y5401259D01*
X1535633Y5394756D01*
X1551889Y5390083D01*
X1568551Y5387238D01*
G37*
G36*
X3321050Y8528050D02*
G01*
X3368243Y8528050D01*
X3364433Y8535619D01*
X3356711Y8546846D01*
X3347567Y8557006D01*
X3337153Y8565794D01*
X3325672Y8573109D01*
X3321050Y8575243D01*
G37*
G36*
X1489202Y8526526D02*
G01*
X1507998Y8526526D01*
X1526743Y8528456D01*
X1545183Y8532215D01*
X1563166Y8537854D01*
X1580489Y8545322D01*
X1596948Y8554466D01*
X1612392Y8565184D01*
X1626666Y8577478D01*
X1639671Y8591092D01*
X1651152Y8606028D01*
X1661160Y8621979D01*
X1669440Y8638895D01*
X1675993Y8656574D01*
X1680667Y8674760D01*
X1683562Y8693404D01*
X1684477Y8712200D01*
X1683562Y8730996D01*
X1680667Y8749639D01*
X1675993Y8767826D01*
X1669440Y8785504D01*
X1661160Y8802420D01*
X1651152Y8818372D01*
X1639671Y8833307D01*
X1626666Y8846921D01*
X1612392Y8859215D01*
X1596948Y8869934D01*
X1580489Y8879078D01*
X1563166Y8886545D01*
X1545183Y8892184D01*
X1526743Y8895943D01*
X1507998Y8897874D01*
X1489202Y8897874D01*
X1470456Y8895943D01*
X1452016Y8892184D01*
X1434033Y8886545D01*
X1416710Y8879078D01*
X1400251Y8869934D01*
X1384808Y8859215D01*
X1370533Y8846921D01*
X1357528Y8833307D01*
X1346047Y8818372D01*
X1336040Y8802420D01*
X1327759Y8785504D01*
X1321206Y8767826D01*
X1316532Y8749639D01*
X1313637Y8730996D01*
X1312722Y8712200D01*
X1313637Y8693404D01*
X1316532Y8674760D01*
X1321206Y8656574D01*
X1327759Y8638895D01*
X1336040Y8621979D01*
X1346047Y8606028D01*
X1357528Y8591092D01*
X1370533Y8577478D01*
X1384808Y8565184D01*
X1400251Y8554466D01*
X1416710Y8545322D01*
X1434033Y8537854D01*
X1452016Y8532215D01*
X1470456Y8528456D01*
G37*
G36*
X7382002Y8526526D02*
G01*
X7400798Y8526526D01*
X7419543Y8528456D01*
X7437983Y8532215D01*
X7455966Y8537854D01*
X7473289Y8545322D01*
X7489748Y8554466D01*
X7505192Y8565184D01*
X7519466Y8577478D01*
X7532471Y8591092D01*
X7543952Y8606028D01*
X7553959Y8621979D01*
X7562240Y8638895D01*
X7568793Y8656574D01*
X7573467Y8674760D01*
X7576362Y8693404D01*
X7577277Y8712200D01*
X7576362Y8730996D01*
X7573467Y8749639D01*
X7568793Y8767826D01*
X7562240Y8785504D01*
X7553959Y8802420D01*
X7543952Y8818372D01*
X7532471Y8833307D01*
X7519466Y8846921D01*
X7505192Y8859215D01*
X7489748Y8869934D01*
X7473289Y8879078D01*
X7455966Y8886545D01*
X7437983Y8892184D01*
X7419543Y8895943D01*
X7400798Y8897874D01*
X7382002Y8897874D01*
X7363256Y8895943D01*
X7344816Y8892184D01*
X7326833Y8886545D01*
X7309510Y8879078D01*
X7293051Y8869934D01*
X7277608Y8859215D01*
X7263333Y8846921D01*
X7250328Y8833307D01*
X7238847Y8818372D01*
X7228840Y8802420D01*
X7220559Y8785504D01*
X7214006Y8767826D01*
X7209332Y8749639D01*
X7206437Y8730996D01*
X7205522Y8712200D01*
X7206437Y8693404D01*
X7209332Y8674760D01*
X7214006Y8656574D01*
X7220559Y8638895D01*
X7228840Y8621979D01*
X7238847Y8606028D01*
X7250328Y8591092D01*
X7263333Y8577478D01*
X7277608Y8565184D01*
X7293051Y8554466D01*
X7309510Y8545322D01*
X7326833Y8537854D01*
X7344816Y8532215D01*
X7363256Y8528456D01*
G37*
G36*
X3321050Y8391956D02*
G01*
X3325672Y8394090D01*
X3337153Y8401405D01*
X3347567Y8410194D01*
X3356711Y8420354D01*
X3364433Y8431580D01*
X3368243Y8439150D01*
X3321050Y8439150D01*
G37*
G36*
X3232150Y8391804D02*
G01*
X3232150Y8439150D01*
X3184804Y8439150D01*
X3185464Y8437575D01*
X3192424Y8425840D01*
X3200908Y8415121D01*
X3210712Y8405622D01*
X3221685Y8397544D01*
G37*
G36*
X4289196Y8381593D02*
G01*
X4302810Y8382050D01*
X4316272Y8384286D01*
X4329277Y8388350D01*
X4341672Y8394090D01*
X4353153Y8401405D01*
X4363567Y8410194D01*
X4372711Y8420354D01*
X4380433Y8431580D01*
X4386580Y8443722D01*
X4391050Y8456625D01*
X4393793Y8469985D01*
X4394708Y8483600D01*
X4393793Y8497214D01*
X4391050Y8510574D01*
X4386580Y8523478D01*
X4380433Y8535619D01*
X4372711Y8546846D01*
X4363567Y8557006D01*
X4353153Y8565794D01*
X4341672Y8573109D01*
X4329277Y8578850D01*
X4316272Y8582914D01*
X4302810Y8585149D01*
X4289196Y8585606D01*
X4275632Y8584285D01*
X4262374Y8581085D01*
X4249623Y8576208D01*
X4237685Y8569655D01*
X4226712Y8561578D01*
X4216908Y8552078D01*
X4208424Y8541359D01*
X4201464Y8529624D01*
X4196181Y8517077D01*
X4192574Y8503920D01*
X4190746Y8490407D01*
X4190746Y8476792D01*
X4192574Y8463280D01*
X4196181Y8450122D01*
X4201464Y8437575D01*
X4208424Y8425840D01*
X4216908Y8415121D01*
X4226712Y8405622D01*
X4237685Y8397544D01*
X4249623Y8390991D01*
X4262374Y8386114D01*
X4275632Y8382914D01*
G37*
G36*
X4035196Y8381593D02*
G01*
X4048810Y8382050D01*
X4062272Y8384286D01*
X4075277Y8388350D01*
X4087672Y8394090D01*
X4099153Y8401405D01*
X4109567Y8410194D01*
X4118711Y8420354D01*
X4126433Y8431580D01*
X4132579Y8443722D01*
X4137050Y8456625D01*
X4139793Y8469985D01*
X4140708Y8483600D01*
X4139793Y8497214D01*
X4137050Y8510574D01*
X4132579Y8523478D01*
X4126433Y8535619D01*
X4118711Y8546846D01*
X4109567Y8557006D01*
X4099153Y8565794D01*
X4087672Y8573109D01*
X4075277Y8578850D01*
X4062272Y8582914D01*
X4048810Y8585149D01*
X4035196Y8585606D01*
X4021632Y8584285D01*
X4008374Y8581085D01*
X3995623Y8576208D01*
X3983685Y8569655D01*
X3972712Y8561578D01*
X3962908Y8552078D01*
X3954424Y8541359D01*
X3947464Y8529624D01*
X3942181Y8517077D01*
X3938574Y8503920D01*
X3936746Y8490407D01*
X3936746Y8476792D01*
X3938574Y8463280D01*
X3942181Y8450122D01*
X3947464Y8437575D01*
X3954424Y8425840D01*
X3962908Y8415121D01*
X3972712Y8405622D01*
X3983685Y8397544D01*
X3995623Y8390991D01*
X4008374Y8386114D01*
X4021632Y8382914D01*
G37*
G36*
X2052320Y8246364D02*
G01*
X2068118Y8246364D01*
X2083816Y8248192D01*
X2099157Y8251799D01*
X2114042Y8257235D01*
X2128164Y8264296D01*
X2141372Y8272983D01*
X2153462Y8283143D01*
X2164283Y8294674D01*
X2173732Y8307324D01*
X2181656Y8320989D01*
X2187905Y8335518D01*
X2192426Y8350656D01*
X2195169Y8366201D01*
X2196084Y8382000D01*
X2195169Y8397798D01*
X2192426Y8413343D01*
X2187905Y8428482D01*
X2181656Y8443010D01*
X2173732Y8456676D01*
X2164283Y8469325D01*
X2153462Y8480856D01*
X2141372Y8491016D01*
X2128164Y8499703D01*
X2114042Y8506764D01*
X2099157Y8512200D01*
X2083816Y8515807D01*
X2068118Y8517636D01*
X2052320Y8517636D01*
X2036622Y8515807D01*
X2021230Y8512200D01*
X2006396Y8506764D01*
X1992274Y8499703D01*
X1979066Y8491016D01*
X1966925Y8480856D01*
X1956104Y8469325D01*
X1946656Y8456676D01*
X1938782Y8443010D01*
X1932533Y8428482D01*
X1927961Y8413343D01*
X1925218Y8397798D01*
X1924304Y8382000D01*
X1925218Y8366201D01*
X1927961Y8350656D01*
X1932533Y8335518D01*
X1938782Y8320989D01*
X1946656Y8307324D01*
X1956104Y8294674D01*
X1966925Y8283143D01*
X1979066Y8272983D01*
X1992274Y8264296D01*
X2006396Y8257235D01*
X2021230Y8251799D01*
X2036622Y8248192D01*
G37*
G36*
X4289196Y8127593D02*
G01*
X4302810Y8128050D01*
X4316272Y8130286D01*
X4329277Y8134350D01*
X4341672Y8140090D01*
X4353153Y8147405D01*
X4363567Y8156194D01*
X4372711Y8166353D01*
X4380433Y8177580D01*
X4386580Y8189722D01*
X4391050Y8202625D01*
X4393793Y8215985D01*
X4394708Y8229600D01*
X4393793Y8243214D01*
X4391050Y8256574D01*
X4386580Y8269478D01*
X4380433Y8281619D01*
X4372711Y8292846D01*
X4363567Y8303006D01*
X4353153Y8311794D01*
X4341672Y8319109D01*
X4329277Y8324850D01*
X4316272Y8328914D01*
X4302810Y8331149D01*
X4289196Y8331606D01*
X4275632Y8330285D01*
X4262374Y8327085D01*
X4249623Y8322208D01*
X4237685Y8315655D01*
X4226712Y8307578D01*
X4216908Y8298078D01*
X4208424Y8287359D01*
X4201464Y8275624D01*
X4196181Y8263077D01*
X4192574Y8249920D01*
X4190746Y8236407D01*
X4190746Y8222792D01*
X4192574Y8209280D01*
X4196181Y8196122D01*
X4201464Y8183575D01*
X4208424Y8171840D01*
X4216908Y8161121D01*
X4226712Y8151622D01*
X4237685Y8143544D01*
X4249623Y8136991D01*
X4262374Y8132114D01*
X4275632Y8128914D01*
G37*
G36*
X3273196Y8127593D02*
G01*
X3286810Y8128050D01*
X3300272Y8130286D01*
X3313277Y8134350D01*
X3325672Y8140090D01*
X3337153Y8147405D01*
X3347567Y8156194D01*
X3356711Y8166353D01*
X3364433Y8177580D01*
X3370579Y8189722D01*
X3375050Y8202625D01*
X3377793Y8215985D01*
X3378708Y8229600D01*
X3377793Y8243214D01*
X3375050Y8256574D01*
X3370579Y8269478D01*
X3364433Y8281619D01*
X3356711Y8292846D01*
X3347567Y8303006D01*
X3337153Y8311794D01*
X3325672Y8319109D01*
X3313277Y8324850D01*
X3300272Y8328914D01*
X3286810Y8331149D01*
X3273196Y8331606D01*
X3259632Y8330285D01*
X3246374Y8327085D01*
X3233623Y8322208D01*
X3221685Y8315655D01*
X3210712Y8307578D01*
X3200908Y8298078D01*
X3192424Y8287359D01*
X3185464Y8275624D01*
X3180181Y8263077D01*
X3176574Y8249920D01*
X3174746Y8236407D01*
X3174746Y8222792D01*
X3176574Y8209280D01*
X3180181Y8196122D01*
X3185464Y8183575D01*
X3192424Y8171840D01*
X3200908Y8161121D01*
X3210712Y8151622D01*
X3221685Y8143544D01*
X3233623Y8136991D01*
X3246374Y8132114D01*
X3259632Y8128914D01*
G37*
G36*
X3705250Y7620965D02*
G01*
X3715004Y7621778D01*
X3724503Y7624318D01*
X3733393Y7628483D01*
X3741470Y7634122D01*
X3748430Y7641081D01*
X3754018Y7649108D01*
X3758184Y7658049D01*
X3760724Y7667498D01*
X3761587Y7677302D01*
X3760724Y7687106D01*
X3758184Y7696606D01*
X3754018Y7705496D01*
X3748430Y7713522D01*
X3741470Y7720482D01*
X3733393Y7726121D01*
X3724503Y7730286D01*
X3715004Y7732826D01*
X3706977Y7733538D01*
X3703574Y7734452D01*
X3700678Y7736484D01*
X3678631Y7758531D01*
X3676396Y7761833D01*
X3675634Y7765694D01*
X3675634Y8176615D01*
X3676599Y8180882D01*
X3679240Y8184388D01*
X3683101Y8186420D01*
X3687470Y8186623D01*
X3691534Y8184997D01*
X3694531Y8181797D01*
X3700424Y8171840D01*
X3708908Y8161121D01*
X3718712Y8151622D01*
X3729685Y8143544D01*
X3741623Y8136991D01*
X3754374Y8132114D01*
X3767632Y8128914D01*
X3781196Y8127593D01*
X3794810Y8128050D01*
X3808272Y8130286D01*
X3818483Y8133486D01*
X3822090Y8133892D01*
X3825646Y8133029D01*
X3828643Y8130946D01*
X3993591Y7965998D01*
X3995826Y7962696D01*
X3996588Y7958836D01*
X3996588Y7722311D01*
X3995826Y7718450D01*
X3993591Y7715148D01*
X3992016Y7713522D01*
X3986377Y7705496D01*
X3982212Y7696606D01*
X3979672Y7687106D01*
X3978808Y7677302D01*
X3979672Y7667498D01*
X3982212Y7658049D01*
X3986377Y7649108D01*
X3992016Y7641081D01*
X3998976Y7634122D01*
X4007002Y7628483D01*
X4015892Y7624318D01*
X4025392Y7621778D01*
X4035196Y7620965D01*
X4045000Y7621778D01*
X4054500Y7624318D01*
X4063390Y7628483D01*
X4071416Y7634122D01*
X4078376Y7641081D01*
X4084015Y7649108D01*
X4088180Y7658049D01*
X4090720Y7667498D01*
X4091584Y7677302D01*
X4090720Y7687106D01*
X4088180Y7696606D01*
X4084015Y7705496D01*
X4078376Y7713522D01*
X4076801Y7715148D01*
X4074566Y7718450D01*
X4073804Y7722311D01*
X4073804Y7963865D01*
X4074566Y7967776D01*
X4076801Y7971028D01*
X4080052Y7973263D01*
X4083964Y7974025D01*
X4087876Y7973263D01*
X4091127Y7971028D01*
X4319574Y7742631D01*
X4321606Y7739735D01*
X4322521Y7736331D01*
X4323232Y7728254D01*
X4325772Y7718806D01*
X4329938Y7709865D01*
X4335526Y7701838D01*
X4342485Y7694879D01*
X4350562Y7689240D01*
X4359452Y7685074D01*
X4368952Y7682534D01*
X4378706Y7681722D01*
X4388510Y7682534D01*
X4398010Y7685074D01*
X4406900Y7689240D01*
X4414977Y7694879D01*
X4421936Y7701838D01*
X4427524Y7709865D01*
X4431690Y7718806D01*
X4434230Y7728254D01*
X4435094Y7738059D01*
X4434230Y7747863D01*
X4431690Y7757363D01*
X4427524Y7766253D01*
X4421936Y7774279D01*
X4414977Y7781239D01*
X4406900Y7786878D01*
X4398010Y7791043D01*
X4388510Y7793583D01*
X4380484Y7794294D01*
X4377080Y7795209D01*
X4374184Y7797241D01*
X4058005Y8113369D01*
X4055719Y8116874D01*
X4055059Y8120938D01*
X4056024Y8124952D01*
X4058564Y8128253D01*
X4062171Y8130286D01*
X4075277Y8134350D01*
X4087672Y8140090D01*
X4099153Y8147405D01*
X4109567Y8156194D01*
X4118711Y8166353D01*
X4126433Y8177580D01*
X4132579Y8189722D01*
X4137050Y8202625D01*
X4139793Y8215985D01*
X4140708Y8229600D01*
X4139793Y8243214D01*
X4137050Y8256574D01*
X4132579Y8269478D01*
X4126433Y8281619D01*
X4118711Y8292846D01*
X4109567Y8303006D01*
X4099153Y8311794D01*
X4087672Y8319109D01*
X4075277Y8324850D01*
X4062272Y8328914D01*
X4048810Y8331149D01*
X4035196Y8331606D01*
X4021632Y8330285D01*
X4008374Y8327085D01*
X3995623Y8322208D01*
X3983685Y8315655D01*
X3972712Y8307578D01*
X3967429Y8302447D01*
X3964127Y8300313D01*
X3960266Y8299602D01*
X3956405Y8300415D01*
X3953154Y8302650D01*
X3950970Y8305901D01*
X3950208Y8309762D01*
X3950208Y8356092D01*
X3949395Y8364118D01*
X3947210Y8371382D01*
X3943654Y8378037D01*
X3938524Y8384235D01*
X3883202Y8439607D01*
X3881069Y8442706D01*
X3880256Y8446363D01*
X3880815Y8450122D01*
X3883050Y8456625D01*
X3885793Y8469985D01*
X3886708Y8483600D01*
X3885793Y8497214D01*
X3883050Y8510574D01*
X3878579Y8523478D01*
X3872433Y8535619D01*
X3864711Y8546846D01*
X3855567Y8557006D01*
X3845153Y8565794D01*
X3833672Y8573109D01*
X3821277Y8578850D01*
X3808272Y8582914D01*
X3794810Y8585149D01*
X3781196Y8585606D01*
X3767632Y8584285D01*
X3754374Y8581085D01*
X3741623Y8576208D01*
X3729685Y8569655D01*
X3718712Y8561578D01*
X3708908Y8552078D01*
X3700424Y8541359D01*
X3693464Y8529624D01*
X3688181Y8517077D01*
X3684574Y8503920D01*
X3682746Y8490407D01*
X3682746Y8476792D01*
X3684574Y8463280D01*
X3688181Y8450122D01*
X3693464Y8437575D01*
X3700424Y8425840D01*
X3708908Y8415121D01*
X3718712Y8405622D01*
X3729685Y8397544D01*
X3741623Y8390991D01*
X3754374Y8386114D01*
X3767632Y8382914D01*
X3781196Y8381593D01*
X3794810Y8382050D01*
X3808272Y8384286D01*
X3818483Y8387486D01*
X3822090Y8387892D01*
X3825646Y8387029D01*
X3828643Y8384946D01*
X3869994Y8343595D01*
X3872229Y8340293D01*
X3872992Y8336432D01*
X3872992Y8310118D01*
X3872280Y8306358D01*
X3870198Y8303107D01*
X3867099Y8300872D01*
X3863390Y8299958D01*
X3859580Y8300466D01*
X3856278Y8302345D01*
X3845153Y8311794D01*
X3833672Y8319109D01*
X3821277Y8324850D01*
X3808272Y8328914D01*
X3794810Y8331149D01*
X3781196Y8331606D01*
X3767632Y8330285D01*
X3754374Y8327085D01*
X3741623Y8322208D01*
X3729685Y8315655D01*
X3718712Y8307578D01*
X3708908Y8298078D01*
X3700424Y8287359D01*
X3694531Y8277402D01*
X3691534Y8274202D01*
X3687470Y8272576D01*
X3683101Y8272780D01*
X3679240Y8274812D01*
X3676599Y8278317D01*
X3675634Y8282584D01*
X3675634Y8376666D01*
X3674821Y8384692D01*
X3672636Y8391956D01*
X3669080Y8398611D01*
X3663950Y8404809D01*
X3629202Y8439607D01*
X3627069Y8442706D01*
X3626256Y8446363D01*
X3626815Y8450122D01*
X3629050Y8456625D01*
X3631793Y8469985D01*
X3632708Y8483600D01*
X3631793Y8497214D01*
X3629050Y8510574D01*
X3624579Y8523478D01*
X3618433Y8535619D01*
X3610711Y8546846D01*
X3601567Y8557006D01*
X3591153Y8565794D01*
X3579672Y8573109D01*
X3567277Y8578850D01*
X3554272Y8582914D01*
X3540810Y8585149D01*
X3527196Y8585606D01*
X3513632Y8584285D01*
X3500374Y8581085D01*
X3487623Y8576208D01*
X3475685Y8569655D01*
X3464712Y8561578D01*
X3454908Y8552078D01*
X3446424Y8541359D01*
X3439464Y8529624D01*
X3434181Y8517077D01*
X3430574Y8503920D01*
X3428746Y8490407D01*
X3428746Y8476792D01*
X3430574Y8463280D01*
X3434181Y8450122D01*
X3439464Y8437575D01*
X3446424Y8425840D01*
X3454908Y8415121D01*
X3464712Y8405622D01*
X3475685Y8397544D01*
X3487623Y8390991D01*
X3500374Y8386114D01*
X3513632Y8382914D01*
X3527196Y8381593D01*
X3540810Y8382050D01*
X3554272Y8384286D01*
X3564483Y8387486D01*
X3568090Y8387892D01*
X3571646Y8387029D01*
X3574643Y8384946D01*
X3595420Y8364169D01*
X3597656Y8360867D01*
X3598418Y8357006D01*
X3598418Y8325713D01*
X3597503Y8321497D01*
X3594912Y8318042D01*
X3591153Y8315959D01*
X3586835Y8315604D01*
X3582771Y8317128D01*
X3579672Y8319109D01*
X3567277Y8324850D01*
X3554272Y8328914D01*
X3540810Y8331149D01*
X3527196Y8331606D01*
X3513632Y8330285D01*
X3500374Y8327085D01*
X3487623Y8322208D01*
X3475685Y8315655D01*
X3464712Y8307578D01*
X3454908Y8298078D01*
X3446424Y8287359D01*
X3439464Y8275624D01*
X3434181Y8263077D01*
X3430574Y8249920D01*
X3428746Y8236407D01*
X3428746Y8222792D01*
X3430574Y8209280D01*
X3434435Y8195309D01*
X3434740Y8191753D01*
X3433826Y8188299D01*
X3431794Y8185403D01*
X3041040Y7794650D01*
X3038957Y7793075D01*
X3036519Y7792059D01*
X3032760Y7791043D01*
X3023870Y7786878D01*
X3015792Y7781239D01*
X3008833Y7774279D01*
X3003245Y7766253D01*
X2999079Y7757363D01*
X2996539Y7747863D01*
X2995676Y7738059D01*
X2996539Y7728254D01*
X2999079Y7718806D01*
X3003245Y7709865D01*
X3008833Y7701838D01*
X3015792Y7694879D01*
X3023870Y7689240D01*
X3032760Y7685074D01*
X3042259Y7682534D01*
X3052013Y7681722D01*
X3061817Y7682534D01*
X3071317Y7685074D01*
X3080207Y7689240D01*
X3088284Y7694879D01*
X3095244Y7701838D01*
X3100832Y7709865D01*
X3104997Y7718806D01*
X3107537Y7728254D01*
X3108401Y7738059D01*
X3107639Y7746898D01*
X3108198Y7751267D01*
X3110585Y7754975D01*
X3486556Y8130946D01*
X3489756Y8133130D01*
X3493566Y8133943D01*
X3497376Y8133232D01*
X3500374Y8132114D01*
X3513632Y8128914D01*
X3527196Y8127593D01*
X3540810Y8128050D01*
X3554272Y8130286D01*
X3567277Y8134350D01*
X3579672Y8140090D01*
X3582771Y8142071D01*
X3586835Y8143595D01*
X3591153Y8143240D01*
X3594912Y8141157D01*
X3597503Y8137702D01*
X3598418Y8133486D01*
X3598418Y7745984D01*
X3599230Y7738008D01*
X3601415Y7730744D01*
X3604971Y7724089D01*
X3610101Y7717840D01*
X3646068Y7681874D01*
X3648100Y7678978D01*
X3649014Y7675575D01*
X3649726Y7667498D01*
X3652265Y7658049D01*
X3656431Y7649108D01*
X3662019Y7641081D01*
X3668979Y7634122D01*
X3677056Y7628483D01*
X3685946Y7624318D01*
X3695446Y7621778D01*
G37*
G36*
X7035800Y7184085D02*
G01*
X7052716Y7185050D01*
X7069378Y7187895D01*
X7085634Y7192568D01*
X7101281Y7199020D01*
X7116064Y7207250D01*
X7129881Y7217003D01*
X7142480Y7228281D01*
X7153757Y7240930D01*
X7163562Y7254697D01*
X7171740Y7269530D01*
X7178243Y7285177D01*
X7182916Y7301433D01*
X7185761Y7318095D01*
X7186675Y7335012D01*
X7185761Y7351877D01*
X7182916Y7368590D01*
X7178243Y7384846D01*
X7171740Y7400442D01*
X7163562Y7415275D01*
X7153757Y7429093D01*
X7142480Y7441692D01*
X7129881Y7452969D01*
X7116064Y7462774D01*
X7101281Y7470952D01*
X7085634Y7477404D01*
X7069378Y7482078D01*
X7052716Y7484922D01*
X7035800Y7485888D01*
X7018883Y7484922D01*
X7002221Y7482078D01*
X6985965Y7477404D01*
X6970318Y7470952D01*
X6955536Y7462774D01*
X6941718Y7452969D01*
X6929120Y7441692D01*
X6917842Y7429093D01*
X6908038Y7415275D01*
X6899859Y7400442D01*
X6893356Y7384846D01*
X6888683Y7368590D01*
X6885838Y7351877D01*
X6884924Y7335012D01*
X6885838Y7318095D01*
X6888683Y7301433D01*
X6893356Y7285177D01*
X6899859Y7269530D01*
X6908038Y7254697D01*
X6917842Y7240930D01*
X6929120Y7228281D01*
X6941718Y7217003D01*
X6955536Y7207250D01*
X6970318Y7199020D01*
X6985965Y7192568D01*
X7002221Y7187895D01*
X7018883Y7185050D01*
G37*
G36*
X7382002Y4614926D02*
G01*
X7400798Y4614926D01*
X7419543Y4616856D01*
X7437983Y4620615D01*
X7455966Y4626254D01*
X7473289Y4633722D01*
X7489748Y4642866D01*
X7505192Y4653584D01*
X7519466Y4665878D01*
X7532471Y4679492D01*
X7543952Y4694428D01*
X7553959Y4710379D01*
X7562240Y4727295D01*
X7568793Y4744974D01*
X7573467Y4763160D01*
X7576362Y4781804D01*
X7577277Y4800600D01*
X7576362Y4819396D01*
X7573467Y4838039D01*
X7568793Y4856226D01*
X7562240Y4873904D01*
X7553959Y4890820D01*
X7543952Y4906772D01*
X7532471Y4921707D01*
X7519466Y4935321D01*
X7505192Y4947615D01*
X7489748Y4958334D01*
X7473289Y4967478D01*
X7455966Y4974945D01*
X7437983Y4980584D01*
X7419543Y4984343D01*
X7400798Y4986274D01*
X7382002Y4986274D01*
X7363256Y4984343D01*
X7344816Y4980584D01*
X7326833Y4974945D01*
X7309510Y4967478D01*
X7293051Y4958334D01*
X7277608Y4947615D01*
X7263333Y4935321D01*
X7250328Y4921707D01*
X7238847Y4906772D01*
X7228840Y4890820D01*
X7220559Y4873904D01*
X7214006Y4856226D01*
X7209332Y4838039D01*
X7206437Y4819396D01*
X7205522Y4800600D01*
X7206437Y4781804D01*
X7209332Y4763160D01*
X7214006Y4744974D01*
X7220559Y4727295D01*
X7228840Y4710379D01*
X7238847Y4694428D01*
X7250328Y4679492D01*
X7263333Y4665878D01*
X7277608Y4653584D01*
X7293051Y4642866D01*
X7309510Y4633722D01*
X7326833Y4626254D01*
X7344816Y4620615D01*
X7363256Y4616856D01*
G37*
G36*
X5100624Y6048502D02*
G01*
X5110429Y6049314D01*
X5119928Y6051854D01*
X5128818Y6056020D01*
X5136845Y6061659D01*
X5143804Y6068618D01*
X5149443Y6076645D01*
X5153609Y6085586D01*
X5156149Y6095034D01*
X5157012Y6104839D01*
X5156149Y6114643D01*
X5153609Y6124143D01*
X5149443Y6133033D01*
X5143804Y6141059D01*
X5136845Y6148019D01*
X5128818Y6153658D01*
X5119928Y6157823D01*
X5110429Y6160363D01*
X5102352Y6161074D01*
X5098948Y6161989D01*
X5096052Y6164021D01*
X4782159Y6477914D01*
X4775911Y6483045D01*
X4769256Y6486601D01*
X4762042Y6488785D01*
X4754016Y6489598D01*
X4750663Y6490512D01*
X4747818Y6492494D01*
X4718659Y6521653D01*
X4716678Y6524548D01*
X4715764Y6527952D01*
X4715052Y6535978D01*
X4712512Y6545478D01*
X4708347Y6554368D01*
X4702708Y6562445D01*
X4695748Y6569405D01*
X4687722Y6575044D01*
X4678832Y6579158D01*
X4669332Y6581698D01*
X4659528Y6582562D01*
X4649724Y6581698D01*
X4640224Y6579158D01*
X4631334Y6575044D01*
X4623308Y6569405D01*
X4616348Y6562445D01*
X4610709Y6554368D01*
X4606544Y6545478D01*
X4604004Y6535978D01*
X4603140Y6526225D01*
X4604004Y6516420D01*
X4606544Y6506921D01*
X4610709Y6498031D01*
X4616348Y6489954D01*
X4623308Y6483045D01*
X4631334Y6477406D01*
X4640224Y6473240D01*
X4649724Y6470700D01*
X4657801Y6469989D01*
X4661204Y6469075D01*
X4664100Y6467043D01*
X4706975Y6424168D01*
X4713325Y6418884D01*
X4719980Y6415328D01*
X4727194Y6413144D01*
X4735271Y6412382D01*
X4738573Y6411417D01*
X4741418Y6409436D01*
X5041493Y6109411D01*
X5043474Y6106515D01*
X5044389Y6103112D01*
X5045100Y6095034D01*
X5047640Y6085586D01*
X5051806Y6076645D01*
X5057444Y6068618D01*
X5064404Y6061659D01*
X5072430Y6056020D01*
X5081320Y6051854D01*
X5090820Y6049314D01*
G37*
G36*
X7035800Y6834073D02*
G01*
X7052716Y6835038D01*
X7069378Y6837883D01*
X7085634Y6842556D01*
X7101281Y6849059D01*
X7116064Y6857238D01*
X7129881Y6867042D01*
X7142480Y6878269D01*
X7153757Y6890918D01*
X7163562Y6904685D01*
X7171740Y6919518D01*
X7178243Y6935165D01*
X7182916Y6951421D01*
X7185761Y6968083D01*
X7186675Y6985000D01*
X7185761Y7001865D01*
X7182916Y7018578D01*
X7178243Y7034834D01*
X7171740Y7050481D01*
X7163562Y7065264D01*
X7153757Y7079081D01*
X7142480Y7091680D01*
X7129881Y7102957D01*
X7116064Y7112762D01*
X7101281Y7120940D01*
X7085634Y7127392D01*
X7069378Y7132116D01*
X7052716Y7134910D01*
X7035800Y7135875D01*
X7018883Y7134910D01*
X7002221Y7132116D01*
X6985965Y7127392D01*
X6970318Y7120940D01*
X6955536Y7112762D01*
X6941718Y7102957D01*
X6929120Y7091680D01*
X6917842Y7079081D01*
X6908038Y7065264D01*
X6899859Y7050481D01*
X6893356Y7034834D01*
X6888683Y7018578D01*
X6885838Y7001865D01*
X6884924Y6985000D01*
X6885838Y6968083D01*
X6888683Y6951421D01*
X6893356Y6935165D01*
X6899859Y6919518D01*
X6908038Y6904685D01*
X6917842Y6890918D01*
X6929120Y6878269D01*
X6941718Y6867042D01*
X6955536Y6857238D01*
X6970318Y6849059D01*
X6985965Y6842556D01*
X7002221Y6837883D01*
X7018883Y6835038D01*
G37*

%LPD*%
D10*
X2410206Y5964715D02*
G01*
X2013000Y5964715D01*
X1585493Y5537207D01*
X2410206Y8382007D02*
G01*
X2410206Y5964715D01*
X2410206Y5964715D02*
G01*
X2661920Y5713001D01*
X2837713Y5713001D01*
X2837713Y5713001D02*
G01*
X2837713Y5537207D01*
X2837713Y5713001D02*
G01*
X3914140Y5713001D01*
X4089933Y5537207D01*
X4089933Y5537207D02*
G01*
X4264990Y5712264D01*
X5167096Y5712264D01*
X5342153Y5537207D01*
X6594373Y5716557D02*
G01*
X5521502Y5716557D01*
X5342153Y5537207D01*
X7035800Y6634995D02*
G01*
X7035800Y6157983D01*
X6594373Y5716557D01*
X6594373Y5716557D02*
G01*
X6594373Y5537207D01*
D11*
X3784600Y8229607D02*
G01*
X4035196Y7979011D01*
X4035196Y7677310D01*
X3784600Y8483607D02*
G01*
X3911600Y8356607D01*
X3911600Y8205198D01*
X4378731Y7738066D01*
X3530600Y8229607D02*
G01*
X3052038Y7751046D01*
X3052038Y7738066D01*
X5100624Y6104846D02*
G01*
X4754499Y6450972D01*
X4734737Y6450972D01*
X4734737Y6450998D01*
X4659528Y6526207D01*
X3276600Y8483607D02*
G01*
X2934106Y8141114D01*
X2934106Y7423081D01*
X3530600Y8483607D02*
G01*
X3637025Y8377181D01*
X3637025Y7745509D01*
X3705225Y7677310D01*
D12*
G01*
X5342140Y5537200D03*
G01*
X5692127Y5537200D03*
G01*
X6042139Y5537200D03*
G01*
X6594360Y5537200D03*
G01*
X6944347Y5537200D03*
G01*
X7294359Y5537200D03*
G01*
X4089920Y5537200D03*
G01*
X4439907Y5537200D03*
G01*
X4789919Y5537200D03*
G01*
X1585480Y5537200D03*
G01*
X1935467Y5537200D03*
G01*
X2285479Y5537200D03*
G01*
X7035800Y6635000D03*
G01*
X7035800Y6984987D03*
G01*
X7035800Y7334999D03*
G01*
X2837700Y5537200D03*
G01*
X3187687Y5537200D03*
G01*
X3537699Y5537200D03*
D13*
G01*
X2410193Y8382000D03*
G01*
X2060206Y8382000D03*
D14*
G01*
X3276600Y8229600D03*
G01*
X3276600Y8483600D03*
G01*
X3530600Y8229600D03*
G01*
X3530600Y8483600D03*
G01*
X3784600Y8229600D03*
G01*
X3784600Y8483600D03*
G01*
X4038600Y8229600D03*
G01*
X4038600Y8483600D03*
G01*
X4292600Y8229600D03*
G01*
X4292600Y8483600D03*
D15*
G01*
X3705225Y7677310D03*
G01*
X2934106Y7423081D03*
G01*
X5100624Y6104846D03*
G01*
X4659528Y6526207D03*
G01*
X3052038Y7738066D03*
G01*
X4378731Y7738066D03*
G01*
X4035196Y7677310D03*
M02*
