G04 Layer: TopSolderMaskLayer*
G04 EasyEDA v6.5.29, 2023-07-15 16:34:33*
G04 ff16eedd4ae041ca9ad6f45f5caac9ae,10*
G04 Gerber Generator version 0.2*
G04 Scale: 100 percent, Rotated: No, Reflected: No *
G04 Dimensions in millimeters *
G04 leading zeros omitted , absolute positions ,4 integer and 5 decimal *
%FSLAX45Y45*%
%MOMM*%

%AMMACRO1*1,1,$1,$2,$3*1,1,$1,$4,$5*1,1,$1,0-$2,0-$3*1,1,$1,0-$4,0-$5*20,1,$1,$2,$3,$4,$5,0*20,1,$1,$4,$5,0-$2,0-$3,0*20,1,$1,0-$2,0-$3,0-$4,0-$5,0*20,1,$1,0-$4,0-$5,$2,$3,0*4,1,4,$2,$3,$4,$5,0-$2,0-$3,0-$4,0-$5,$2,$3,0*%
%ADD10C,2.6016*%
%ADD11MACRO1,0.1016X0.18X-0.465X-0.18X-0.465*%
%ADD12MACRO1,0.1016X0.18X0.465X-0.18X0.465*%
%ADD13MACRO1,0.1016X-0.18X0.465X0.18X0.465*%
%ADD14MACRO1,0.1016X-0.18X-0.465X0.18X-0.465*%
%ADD15MACRO1,0.1016X0.81X-1.0232X-0.81X-1.0232*%
%ADD16MACRO1,0.1016X-0.81X1.0232X0.81X1.0232*%
%ADD17MACRO1,0.1016X0.45X0.5X0.45X-0.5*%
%ADD18MACRO1,0.1016X-0.5X0.45X0.5X0.45*%
%ADD19C,2.3016*%
%ADD20MACRO1,0.1016X-0.4032X-0.432X-0.4032X0.432*%
%ADD21MACRO1,0.1016X0.4032X-0.432X0.4032X0.432*%
%ADD22MACRO1,0.1016X0.432X-0.4032X-0.432X-0.4032*%
%ADD23MACRO1,0.1016X0.432X0.4032X-0.432X0.4032*%
%ADD24MACRO1,0.1016X0.4032X0.432X0.4032X-0.432*%
%ADD25MACRO1,0.1016X-0.4032X0.432X-0.4032X-0.432*%
%ADD26MACRO1,0.1016X-0.475X-0.85X-0.475X0.85*%
%ADD27MACRO1,0.1016X0.475X0.85X0.475X-0.85*%
%ADD28C,1.6240*%
%ADD29O,0.7036053999999999X2.0725892000000004*%

%LPD*%
D10*
G01*
X5342140Y5537200D03*
G01*
X5692127Y5537200D03*
G01*
X6042139Y5537200D03*
G01*
X6594360Y5537200D03*
G01*
X6944347Y5537200D03*
G01*
X7294359Y5537200D03*
G01*
X4089920Y5537200D03*
G01*
X4439907Y5537200D03*
G01*
X4789919Y5537200D03*
G01*
X1585480Y5537200D03*
G01*
X1935467Y5537200D03*
G01*
X2285479Y5537200D03*
G01*
X7035800Y6635000D03*
G01*
X7035800Y6984987D03*
G01*
X7035800Y7334999D03*
G01*
X2837700Y5537200D03*
G01*
X3187687Y5537200D03*
G01*
X3537699Y5537200D03*
D11*
G01*
X4235467Y6464300D03*
D12*
G01*
X4235467Y6337300D03*
D13*
G01*
X3009900Y6337300D03*
D14*
G01*
X3009900Y6464300D03*
D13*
G01*
X4848197Y6337300D03*
D14*
G01*
X4848197Y6464300D03*
D11*
G01*
X5461000Y6464300D03*
D12*
G01*
X5461000Y6337300D03*
D11*
G01*
X3622702Y6464300D03*
D12*
G01*
X3622702Y6337300D03*
D15*
G01*
X2031062Y7860388D03*
D16*
G01*
X2032942Y7379591D03*
D17*
G01*
X2891690Y6026739D03*
G01*
X2721691Y6026739D03*
G01*
X1621690Y6026739D03*
G01*
X1451691Y6026739D03*
G01*
X4123590Y6026739D03*
G01*
X3953591Y6026739D03*
G01*
X5380890Y6026739D03*
G01*
X5210891Y6026739D03*
G01*
X6587390Y6026739D03*
G01*
X6417391Y6026739D03*
D18*
G01*
X6604000Y6663590D03*
G01*
X6604000Y6493591D03*
D19*
G01*
X2410193Y8382000D03*
G01*
X2060206Y8382000D03*
D20*
G01*
X6196724Y6451600D03*
D21*
G01*
X6046075Y6451600D03*
D22*
G01*
X3530607Y7758824D03*
D23*
G01*
X3530607Y7608175D03*
D22*
G01*
X3181347Y7758824D03*
D23*
G01*
X3181347Y7608175D03*
D22*
G01*
X3879852Y7758824D03*
D23*
G01*
X3879852Y7608175D03*
D22*
G01*
X4578347Y7758824D03*
D23*
G01*
X4578347Y7608175D03*
D22*
G01*
X4229100Y7758824D03*
D23*
G01*
X4229100Y7608175D03*
D24*
G01*
X3379075Y6019800D03*
D25*
G01*
X3529724Y6019800D03*
D24*
G01*
X2134475Y6019800D03*
D25*
G01*
X2285124Y6019800D03*
D24*
G01*
X4649075Y6019800D03*
D25*
G01*
X4799724Y6019800D03*
D24*
G01*
X5893675Y6019800D03*
D25*
G01*
X6044324Y6019800D03*
D24*
G01*
X7138275Y6019800D03*
D25*
G01*
X7288924Y6019800D03*
D22*
G01*
X6604000Y7365124D03*
D23*
G01*
X6604000Y7214475D03*
D26*
G01*
X2766060Y6650184D03*
G01*
X3020060Y6650184D03*
G01*
X3020060Y7310163D03*
G01*
X2766060Y7310163D03*
G01*
X3372131Y6650184D03*
G01*
X3626131Y6650184D03*
G01*
X3626131Y7310163D03*
G01*
X3372131Y7310163D03*
G01*
X3978219Y6650184D03*
G01*
X4232219Y6650184D03*
G01*
X4232219Y7310163D03*
G01*
X3978219Y7310163D03*
G01*
X4584303Y6650184D03*
G01*
X4838303Y6650184D03*
G01*
X4838303Y7310163D03*
G01*
X4584303Y7310163D03*
G01*
X5207000Y6655010D03*
G01*
X5461000Y6655010D03*
G01*
X5461000Y7314989D03*
G01*
X5207000Y7314989D03*
D27*
G01*
X6045200Y7327689D03*
G01*
X5791200Y7327689D03*
G01*
X5791200Y6667710D03*
G01*
X6045200Y6667710D03*
D28*
G01*
X3276600Y8229600D03*
G01*
X3276600Y8483600D03*
G01*
X3530600Y8229600D03*
G01*
X3530600Y8483600D03*
G01*
X3784600Y8229600D03*
G01*
X3784600Y8483600D03*
G01*
X4038600Y8229600D03*
G01*
X4038600Y8483600D03*
G01*
X4292600Y8229600D03*
G01*
X4292600Y8483600D03*
D29*
G01*
X5168900Y7600442D03*
G01*
X5295900Y7600442D03*
G01*
X5422900Y7600442D03*
G01*
X5549900Y7600442D03*
G01*
X5676900Y7600442D03*
G01*
X5803900Y7600442D03*
G01*
X5930900Y7600442D03*
G01*
X6057900Y7600442D03*
G01*
X5168900Y8147558D03*
G01*
X5295900Y8147558D03*
G01*
X5422900Y8147558D03*
G01*
X5549900Y8147558D03*
G01*
X5676900Y8147558D03*
G01*
X5803900Y8147558D03*
G01*
X5930900Y8147558D03*
G01*
X6057900Y8147558D03*
M02*
