G04 Layer: TopPasteMaskLayer*
G04 EasyEDA v6.5.29, 2023-07-15 16:34:33*
G04 ff16eedd4ae041ca9ad6f45f5caac9ae,10*
G04 Gerber Generator version 0.2*
G04 Scale: 100 percent, Rotated: No, Reflected: No *
G04 Dimensions in millimeters *
G04 leading zeros omitted , absolute positions ,4 integer and 5 decimal *
%FSLAX45Y45*%
%MOMM*%

%AMMACRO1*21,1,$1,$2,0,0,$3*%
%ADD10MACRO1,0.36X0.93X0.0000*%
%ADD11MACRO1,1.62X2.0464X0.0000*%
%ADD12R,0.8999X1.0000*%
%ADD13R,1.0000X0.8999*%
%ADD14R,0.9500X1.7000*%
%ADD15O,0.6020054X1.9709892*%
%ADD16O,0.0109X1.9709892*%

%LPD*%
G36*
X6160922Y6496608D02*
G01*
X6155893Y6491579D01*
X6155893Y6468821D01*
X6192875Y6468821D01*
X6192875Y6435801D01*
X6155893Y6435801D01*
X6155893Y6411620D01*
X6160922Y6406591D01*
X6240881Y6406591D01*
X6245910Y6411620D01*
X6245910Y6491579D01*
X6240881Y6496608D01*
G37*
G36*
X6001918Y6496608D02*
G01*
X5996889Y6491579D01*
X5996889Y6411620D01*
X6001918Y6406591D01*
X6080912Y6406591D01*
X6085890Y6411620D01*
X6085890Y6435801D01*
X6047892Y6435801D01*
X6047892Y6468821D01*
X6085890Y6468821D01*
X6085890Y6491579D01*
X6080912Y6496608D01*
G37*
G36*
X3490620Y7808010D02*
G01*
X3485591Y7802981D01*
X3485591Y7723022D01*
X3490620Y7717993D01*
X3513429Y7717993D01*
X3513429Y7755026D01*
X3546398Y7755026D01*
X3546398Y7717993D01*
X3570630Y7717993D01*
X3575608Y7723022D01*
X3575608Y7802981D01*
X3570630Y7808010D01*
G37*
G36*
X3490620Y7647990D02*
G01*
X3485591Y7643012D01*
X3485591Y7564018D01*
X3490620Y7558989D01*
X3570630Y7558989D01*
X3575608Y7564018D01*
X3575608Y7643012D01*
X3570630Y7647990D01*
X3546398Y7647990D01*
X3546398Y7609992D01*
X3513429Y7609992D01*
X3513429Y7647990D01*
G37*
G36*
X3141370Y7808010D02*
G01*
X3136341Y7802981D01*
X3136341Y7723022D01*
X3141370Y7717993D01*
X3164128Y7717993D01*
X3164128Y7755026D01*
X3197148Y7755026D01*
X3197148Y7717993D01*
X3221329Y7717993D01*
X3226358Y7723022D01*
X3226358Y7802981D01*
X3221329Y7808010D01*
G37*
G36*
X3141370Y7647990D02*
G01*
X3136341Y7643012D01*
X3136341Y7564018D01*
X3141370Y7558989D01*
X3221329Y7558989D01*
X3226358Y7564018D01*
X3226358Y7643012D01*
X3221329Y7647990D01*
X3197148Y7647990D01*
X3197148Y7609992D01*
X3164128Y7609992D01*
X3164128Y7647990D01*
G37*
G36*
X3839870Y7808010D02*
G01*
X3834841Y7802981D01*
X3834841Y7723022D01*
X3839870Y7717993D01*
X3862628Y7717993D01*
X3862628Y7755026D01*
X3895648Y7755026D01*
X3895648Y7717993D01*
X3919829Y7717993D01*
X3924858Y7723022D01*
X3924858Y7802981D01*
X3919829Y7808010D01*
G37*
G36*
X3839870Y7647990D02*
G01*
X3834841Y7643012D01*
X3834841Y7564018D01*
X3839870Y7558989D01*
X3919829Y7558989D01*
X3924858Y7564018D01*
X3924858Y7643012D01*
X3919829Y7647990D01*
X3895648Y7647990D01*
X3895648Y7609992D01*
X3862628Y7609992D01*
X3862628Y7647990D01*
G37*
G36*
X4538370Y7808010D02*
G01*
X4533341Y7802981D01*
X4533341Y7723022D01*
X4538370Y7717993D01*
X4561128Y7717993D01*
X4561128Y7755026D01*
X4594148Y7755026D01*
X4594148Y7717993D01*
X4618329Y7717993D01*
X4623358Y7723022D01*
X4623358Y7802981D01*
X4618329Y7808010D01*
G37*
G36*
X4538370Y7647990D02*
G01*
X4533341Y7643012D01*
X4533341Y7564018D01*
X4538370Y7558989D01*
X4618329Y7558989D01*
X4623358Y7564018D01*
X4623358Y7643012D01*
X4618329Y7647990D01*
X4594148Y7647990D01*
X4594148Y7609992D01*
X4561128Y7609992D01*
X4561128Y7647990D01*
G37*
G36*
X4189120Y7808010D02*
G01*
X4184091Y7802981D01*
X4184091Y7723022D01*
X4189120Y7717993D01*
X4211878Y7717993D01*
X4211878Y7755026D01*
X4244898Y7755026D01*
X4244898Y7717993D01*
X4269079Y7717993D01*
X4274108Y7723022D01*
X4274108Y7802981D01*
X4269079Y7808010D01*
G37*
G36*
X4189120Y7647990D02*
G01*
X4184091Y7643012D01*
X4184091Y7564018D01*
X4189120Y7558989D01*
X4269079Y7558989D01*
X4274108Y7564018D01*
X4274108Y7643012D01*
X4269079Y7647990D01*
X4244898Y7647990D01*
X4244898Y7609992D01*
X4211878Y7609992D01*
X4211878Y7647990D01*
G37*
G36*
X3334918Y6064808D02*
G01*
X3329889Y6059779D01*
X3329889Y5979820D01*
X3334918Y5974791D01*
X3414877Y5974791D01*
X3419906Y5979820D01*
X3419906Y6002578D01*
X3382924Y6002578D01*
X3382924Y6035598D01*
X3419906Y6035598D01*
X3419906Y6059779D01*
X3414877Y6064808D01*
G37*
G36*
X3494887Y6064808D02*
G01*
X3489909Y6059779D01*
X3489909Y6035598D01*
X3527907Y6035598D01*
X3527907Y6002578D01*
X3489909Y6002578D01*
X3489909Y5979820D01*
X3494887Y5974791D01*
X3573881Y5974791D01*
X3578910Y5979820D01*
X3578910Y6059779D01*
X3573881Y6064808D01*
G37*
G36*
X2090318Y6064808D02*
G01*
X2085289Y6059779D01*
X2085289Y5979820D01*
X2090318Y5974791D01*
X2170277Y5974791D01*
X2175306Y5979820D01*
X2175306Y6002578D01*
X2138324Y6002578D01*
X2138324Y6035598D01*
X2175306Y6035598D01*
X2175306Y6059779D01*
X2170277Y6064808D01*
G37*
G36*
X2250287Y6064808D02*
G01*
X2245309Y6059779D01*
X2245309Y6035598D01*
X2283307Y6035598D01*
X2283307Y6002578D01*
X2245309Y6002578D01*
X2245309Y5979820D01*
X2250287Y5974791D01*
X2329281Y5974791D01*
X2334310Y5979820D01*
X2334310Y6059779D01*
X2329281Y6064808D01*
G37*
G36*
X4604918Y6064808D02*
G01*
X4599889Y6059779D01*
X4599889Y5979820D01*
X4604918Y5974791D01*
X4684877Y5974791D01*
X4689906Y5979820D01*
X4689906Y6002578D01*
X4652924Y6002578D01*
X4652924Y6035598D01*
X4689906Y6035598D01*
X4689906Y6059779D01*
X4684877Y6064808D01*
G37*
G36*
X4764887Y6064808D02*
G01*
X4759909Y6059779D01*
X4759909Y6035598D01*
X4797907Y6035598D01*
X4797907Y6002578D01*
X4759909Y6002578D01*
X4759909Y5979820D01*
X4764887Y5974791D01*
X4843881Y5974791D01*
X4848910Y5979820D01*
X4848910Y6059779D01*
X4843881Y6064808D01*
G37*
G36*
X5849518Y6064808D02*
G01*
X5844489Y6059779D01*
X5844489Y5979820D01*
X5849518Y5974791D01*
X5929477Y5974791D01*
X5934506Y5979820D01*
X5934506Y6002578D01*
X5897524Y6002578D01*
X5897524Y6035598D01*
X5934506Y6035598D01*
X5934506Y6059779D01*
X5929477Y6064808D01*
G37*
G36*
X6009487Y6064808D02*
G01*
X6004509Y6059779D01*
X6004509Y6035598D01*
X6042507Y6035598D01*
X6042507Y6002578D01*
X6004509Y6002578D01*
X6004509Y5979820D01*
X6009487Y5974791D01*
X6088481Y5974791D01*
X6093510Y5979820D01*
X6093510Y6059779D01*
X6088481Y6064808D01*
G37*
G36*
X7094118Y6064808D02*
G01*
X7089089Y6059779D01*
X7089089Y5979820D01*
X7094118Y5974791D01*
X7174077Y5974791D01*
X7179106Y5979820D01*
X7179106Y6002578D01*
X7142124Y6002578D01*
X7142124Y6035598D01*
X7179106Y6035598D01*
X7179106Y6059779D01*
X7174077Y6064808D01*
G37*
G36*
X7254087Y6064808D02*
G01*
X7249109Y6059779D01*
X7249109Y6035598D01*
X7287107Y6035598D01*
X7287107Y6002578D01*
X7249109Y6002578D01*
X7249109Y5979820D01*
X7254087Y5974791D01*
X7333081Y5974791D01*
X7338110Y5979820D01*
X7338110Y6059779D01*
X7333081Y6064808D01*
G37*
G36*
X6564020Y7414310D02*
G01*
X6558991Y7409281D01*
X6558991Y7329322D01*
X6564020Y7324293D01*
X6586778Y7324293D01*
X6586778Y7361326D01*
X6619798Y7361326D01*
X6619798Y7324293D01*
X6643979Y7324293D01*
X6649008Y7329322D01*
X6649008Y7409281D01*
X6643979Y7414310D01*
G37*
G36*
X6564020Y7254290D02*
G01*
X6558991Y7249312D01*
X6558991Y7170318D01*
X6564020Y7165289D01*
X6643979Y7165289D01*
X6649008Y7170318D01*
X6649008Y7249312D01*
X6643979Y7254290D01*
X6619798Y7254290D01*
X6619798Y7216292D01*
X6586778Y7216292D01*
X6586778Y7254290D01*
G37*
D10*
G01*
X4235467Y6464300D03*
G01*
X4235467Y6337300D03*
G01*
X3009900Y6337300D03*
G01*
X3009900Y6464300D03*
G01*
X4848197Y6337300D03*
G01*
X4848197Y6464300D03*
G01*
X5461000Y6464300D03*
G01*
X5461000Y6337300D03*
G01*
X3622702Y6464300D03*
G01*
X3622702Y6337300D03*
D11*
G01*
X2031062Y7860388D03*
G01*
X2032942Y7379591D03*
D12*
G01*
X2891696Y6026739D03*
G01*
X2721693Y6026739D03*
G01*
X1621696Y6026739D03*
G01*
X1451693Y6026739D03*
G01*
X4123596Y6026739D03*
G01*
X3953593Y6026739D03*
G01*
X5380896Y6026739D03*
G01*
X5210893Y6026739D03*
G01*
X6587396Y6026739D03*
G01*
X6417393Y6026739D03*
D13*
G01*
X6604000Y6663596D03*
G01*
X6604000Y6493593D03*
D14*
G01*
X2766059Y6650177D03*
G01*
X3020059Y6650177D03*
G01*
X3020059Y7310170D03*
G01*
X2766059Y7310170D03*
G01*
X3372131Y6650177D03*
G01*
X3626131Y6650177D03*
G01*
X3626131Y7310170D03*
G01*
X3372131Y7310170D03*
G01*
X3978219Y6650177D03*
G01*
X4232219Y6650177D03*
G01*
X4232219Y7310170D03*
G01*
X3978219Y7310170D03*
G01*
X4584303Y6650177D03*
G01*
X4838303Y6650177D03*
G01*
X4838303Y7310170D03*
G01*
X4584303Y7310170D03*
G01*
X5207000Y6655003D03*
G01*
X5461000Y6655003D03*
G01*
X5461000Y7314996D03*
G01*
X5207000Y7314996D03*
G01*
X6045200Y7327696D03*
G01*
X5791200Y7327696D03*
G01*
X5791200Y6667703D03*
G01*
X6045200Y6667703D03*
D15*
G01*
X5168900Y7600442D03*
G01*
X5295900Y7600442D03*
G01*
X5422900Y7600442D03*
G01*
X5549900Y7600442D03*
G01*
X5676900Y7600442D03*
G01*
X5803900Y7600442D03*
G01*
X5930900Y7600442D03*
G01*
X6057900Y7600442D03*
G01*
X5168900Y8147558D03*
G01*
X5295900Y8147558D03*
G01*
X5422900Y8147558D03*
G01*
X5549900Y8147558D03*
G01*
X5676900Y8147558D03*
G01*
X5803900Y8147558D03*
G01*
X5930900Y8147558D03*
G01*
X6057900Y8147558D03*
M02*
