G04 Layer: TopSilkscreenLayer*
G04 EasyEDA v6.5.29, 2023-07-15 16:34:33*
G04 ff16eedd4ae041ca9ad6f45f5caac9ae,10*
G04 Gerber Generator version 0.2*
G04 Scale: 100 percent, Rotated: No, Reflected: No *
G04 Dimensions in millimeters *
G04 leading zeros omitted , absolute positions ,4 integer and 5 decimal *
%FSLAX45Y45*%
%MOMM*%

%ADD10C,0.2032*%
%ADD11C,0.1524*%
%ADD12C,0.2540*%
%ADD13C,0.1520*%
%ADD14C,0.1500*%
%ADD15C,0.4000*%
%ADD16C,0.3000*%
%ADD17C,0.0126*%

%LPD*%
G36*
X6621322Y8343900D02*
G01*
X6617157Y8343849D01*
X6612229Y8342782D01*
X6605879Y8339480D01*
X6600901Y8334197D01*
X6598310Y8328863D01*
X6597142Y8323935D01*
X6597142Y8315248D01*
X6598412Y8310067D01*
X6601561Y8303564D01*
X6606286Y8298383D01*
X6611772Y8294725D01*
X6611772Y8201558D01*
X6548120Y8265312D01*
X6547256Y8283143D01*
X6545732Y8290306D01*
X6543751Y8294268D01*
X6540652Y8297011D01*
X6537147Y8299450D01*
X6532372Y8301481D01*
X6527698Y8302345D01*
X6523685Y8302294D01*
X6518249Y8301177D01*
X6512204Y8298180D01*
X6505854Y8291830D01*
X6503263Y8286902D01*
X6501688Y8282381D01*
X6501231Y8275980D01*
X6502450Y8270036D01*
X6505194Y8264499D01*
X6509207Y8259927D01*
X6509207Y8259216D01*
X6513576Y8254492D01*
X6517741Y8252714D01*
X6522974Y8252307D01*
X6528816Y8253628D01*
X6533134Y8255609D01*
X6592112Y8191855D01*
X6503771Y8191855D01*
X6503263Y8194040D01*
X6500469Y8198053D01*
X6497167Y8200745D01*
X6493611Y8203031D01*
X6487922Y8205266D01*
X6483654Y8206231D01*
X6474968Y8206231D01*
X6469786Y8204911D01*
X6464096Y8202066D01*
X6459067Y8197088D01*
X6456222Y8191246D01*
X6454952Y8186369D01*
X6454952Y8177377D01*
X6456578Y8171535D01*
X6458712Y8167065D01*
X6464249Y8161426D01*
X6469278Y8158937D01*
X6475272Y8157362D01*
X6478727Y8157362D01*
X6481673Y8156092D01*
X6487617Y8156041D01*
X6492798Y8158530D01*
X6496456Y8161578D01*
X6500317Y8165998D01*
X6503873Y8171992D01*
X6597142Y8172043D01*
X6597142Y8186877D01*
X6611620Y8201355D01*
X6626656Y8201355D01*
X6641084Y8186928D01*
X6709613Y8250580D01*
X6713778Y8248903D01*
X6718503Y8247532D01*
X6725716Y8247634D01*
X6731000Y8249564D01*
X6735470Y8252256D01*
X6741515Y8258149D01*
X6744462Y8263331D01*
X6746138Y8268462D01*
X6746544Y8274405D01*
X6745630Y8279180D01*
X6743547Y8284464D01*
X6739534Y8289848D01*
X6734759Y8293658D01*
X6729222Y8296300D01*
X6725005Y8297164D01*
X6718503Y8297164D01*
X6713931Y8295995D01*
X6709003Y8293557D01*
X6705193Y8290356D01*
X6701485Y8289340D01*
X6699453Y8288528D01*
X6695389Y8284108D01*
X6693814Y8279841D01*
X6692900Y8274558D01*
X6693408Y8269681D01*
X6694931Y8265312D01*
X6631178Y8205927D01*
X6631178Y8294725D01*
X6637426Y8299094D01*
X6641134Y8303310D01*
X6644690Y8310473D01*
X6645859Y8316010D01*
X6645859Y8322564D01*
X6644589Y8328659D01*
X6641795Y8334603D01*
X6636512Y8339836D01*
X6631482Y8342375D01*
X6625539Y8343900D01*
G37*
G36*
X6752183Y8202879D02*
G01*
X6749135Y8202117D01*
X6745122Y8200136D01*
X6741159Y8196783D01*
X6737096Y8191855D01*
X6734048Y8186674D01*
X6641084Y8186674D01*
X6641084Y8166862D01*
X6734352Y8166862D01*
X6736080Y8163864D01*
X6739381Y8159699D01*
X6744258Y8156092D01*
X6748576Y8154212D01*
X6754164Y8152485D01*
X6763258Y8152485D01*
X6769608Y8154263D01*
X6773976Y8156752D01*
X6779107Y8161934D01*
X6781647Y8167166D01*
X6783070Y8172246D01*
X6783019Y8181746D01*
X6781241Y8187690D01*
X6778701Y8192414D01*
X6773722Y8197392D01*
X6768033Y8200136D01*
X6762902Y8201355D01*
X6759194Y8201355D01*
X6756400Y8202523D01*
G37*
G36*
X6601663Y8166862D02*
G01*
X6533286Y8103209D01*
X6529628Y8104733D01*
X6524091Y8106308D01*
X6518757Y8106308D01*
X6514541Y8105394D01*
X6509664Y8103108D01*
X6504838Y8099450D01*
X6500215Y8094014D01*
X6497726Y8088884D01*
X6496558Y8083905D01*
X6496558Y8077962D01*
X6497726Y8073034D01*
X6500622Y8067294D01*
X6507022Y8060893D01*
X6512204Y8058048D01*
X6516928Y8056625D01*
X6524853Y8056625D01*
X6530390Y8058353D01*
X6534759Y8060944D01*
X6542836Y8067497D01*
X6545783Y8073440D01*
X6546138Y8081213D01*
X6544818Y8085886D01*
X6543141Y8088223D01*
X6543852Y8089239D01*
X6611772Y8152384D01*
X6611772Y8063992D01*
X6606438Y8060791D01*
X6600901Y8056372D01*
X6596024Y8050784D01*
X6593179Y8045399D01*
X6591909Y8040370D01*
X6592366Y8034223D01*
X6593636Y8029244D01*
X6596532Y8023707D01*
X6601459Y8018881D01*
X6606844Y8016087D01*
X6612026Y8014817D01*
X6621119Y8014817D01*
X6627012Y8016443D01*
X6631736Y8018932D01*
X6636562Y8023707D01*
X6639458Y8029244D01*
X6640677Y8034020D01*
X6641185Y8039150D01*
X6642608Y8043519D01*
X6643116Y8047481D01*
X6642252Y8051850D01*
X6640017Y8056575D01*
X6636715Y8060334D01*
X6631178Y8063992D01*
X6631178Y8157362D01*
X6611823Y8157362D01*
X6611569Y8152434D01*
X6602069Y8166862D01*
G37*
G36*
X7265873Y8152231D02*
G01*
X7252766Y8152130D01*
X7240778Y8149844D01*
X7231380Y8146592D01*
X7222286Y8142071D01*
X7215530Y8137702D01*
X7209840Y8132825D01*
X7205776Y8126272D01*
X7201509Y8117535D01*
X7198359Y8108086D01*
X7196785Y8100923D01*
X7195413Y8091424D01*
X7195362Y8068056D01*
X7196785Y8058556D01*
X7198715Y8050275D01*
X7200798Y8043925D01*
X7204608Y8036001D01*
X7207250Y8032292D01*
X7213346Y8024774D01*
X7218324Y8020303D01*
X7224979Y8016341D01*
X7231380Y8013700D01*
X7238542Y8011668D01*
X7245248Y8010448D01*
X7255459Y8009636D01*
X7263942Y8009636D01*
X7272578Y8010499D01*
X7281925Y8012480D01*
X7288834Y8014919D01*
X7293559Y8017256D01*
X7299959Y8021523D01*
X7311390Y8033258D01*
X7316419Y8040370D01*
X7319213Y8045907D01*
X7321092Y8051393D01*
X7322210Y8057794D01*
X7322769Y8063890D01*
X7278420Y8063890D01*
X7278014Y8056981D01*
X7277100Y8054086D01*
X7273848Y8049158D01*
X7269124Y8045703D01*
X7264653Y8044332D01*
X7254748Y8044332D01*
X7249363Y8045805D01*
X7243673Y8049514D01*
X7238238Y8055000D01*
X7236358Y8058251D01*
X7234631Y8064500D01*
X7234275Y8088274D01*
X7235494Y8096199D01*
X7237272Y8100923D01*
X7245248Y8108899D01*
X7250023Y8111388D01*
X7254748Y8112810D01*
X7264653Y8112810D01*
X7269073Y8111490D01*
X7273442Y8108289D01*
X7273950Y8105190D01*
X7277150Y8096961D01*
X7278268Y8091830D01*
X7278319Y8093202D01*
X7327442Y8093202D01*
X7323785Y8106867D01*
X7321803Y8113217D01*
X7318705Y8120989D01*
X7315453Y8127492D01*
X7312101Y8132622D01*
X7308037Y8137550D01*
X7301484Y8141614D01*
X7291222Y8146643D01*
X7282688Y8149437D01*
X7272985Y8151418D01*
G37*
G36*
X6675577Y8142325D02*
G01*
X6675577Y8107934D01*
X6741871Y8107629D01*
X6746646Y8106257D01*
X6753301Y8103514D01*
X6755079Y8101888D01*
X6757162Y8097215D01*
X6758381Y8091830D01*
X6758787Y8075980D01*
X6757263Y8068462D01*
X6755079Y8062925D01*
X6751370Y8056575D01*
X6743446Y8048650D01*
X6739077Y8046110D01*
X6734352Y8044332D01*
X6709613Y8044078D01*
X6709613Y8107934D01*
X6675577Y8107934D01*
X6675577Y8009585D01*
X6744258Y8009940D01*
X6751370Y8011210D01*
X6757314Y8012836D01*
X6764477Y8015579D01*
X6771589Y8019643D01*
X6775958Y8022844D01*
X6782511Y8028381D01*
X6787642Y8034781D01*
X6791198Y8041690D01*
X6793890Y8048650D01*
X6796024Y8057337D01*
X6797548Y8067700D01*
X6798056Y8081518D01*
X6797090Y8092643D01*
X6795922Y8100161D01*
X6793992Y8107781D01*
X6792315Y8112810D01*
X6788454Y8121040D01*
X6784949Y8125917D01*
X6779361Y8131149D01*
X6774738Y8134299D01*
X6768134Y8137652D01*
X6761276Y8139887D01*
X6752996Y8141512D01*
X6745833Y8142325D01*
G37*
G36*
X6812584Y8142325D02*
G01*
X6812584Y8009636D01*
X6851802Y8009636D01*
X6851802Y8142325D01*
G37*
G36*
X6871614Y8142325D02*
G01*
X6871614Y8014411D01*
X6969404Y8014411D01*
X6969404Y8049259D01*
X6910781Y8049259D01*
X6910781Y8142325D01*
G37*
G36*
X6959904Y8142325D02*
G01*
X6959904Y8107883D01*
X6993991Y8107883D01*
X6993991Y8009636D01*
X7033158Y8009636D01*
X7033158Y8107883D01*
X7067448Y8108086D01*
X7067651Y8142325D01*
G37*
G36*
X7077557Y8142325D02*
G01*
X7077557Y8004911D01*
X7185253Y8004911D01*
X7185253Y8039353D01*
X7116724Y8039353D01*
X7116724Y8058759D01*
X7170623Y8058759D01*
X7170623Y8093202D01*
X7116724Y8093202D01*
X7116724Y8107883D01*
X7180325Y8108086D01*
X7180529Y8142325D01*
G37*
G36*
X7332167Y8142325D02*
G01*
X7332167Y8009636D01*
X7371791Y8009636D01*
X7371791Y8063890D01*
X7415733Y8063890D01*
X7415733Y8009636D01*
X7454950Y8009636D01*
X7454950Y8142325D01*
X7415733Y8142325D01*
X7415733Y8098383D01*
X7371791Y8098383D01*
X7371791Y8142325D01*
G37*
D10*
X4953000Y8782558D02*
G01*
X4953000Y8668004D01*
X4953000Y8782558D02*
G01*
X5023865Y8782558D01*
X4953000Y8727947D02*
G01*
X4996688Y8727947D01*
X4953000Y8668004D02*
G01*
X5023865Y8668004D01*
X5059934Y8744204D02*
G01*
X5119877Y8668004D01*
X5119877Y8744204D02*
G01*
X5059934Y8668004D01*
X5172202Y8782558D02*
G01*
X5172202Y8689847D01*
X5177790Y8673337D01*
X5188711Y8668004D01*
X5199634Y8668004D01*
X5155945Y8744204D02*
G01*
X5194045Y8744204D01*
X5235447Y8711692D02*
G01*
X5300979Y8711692D01*
X5300979Y8722613D01*
X5295645Y8733281D01*
X5290058Y8738870D01*
X5279136Y8744204D01*
X5262879Y8744204D01*
X5251958Y8738870D01*
X5241036Y8727947D01*
X5235447Y8711692D01*
X5235447Y8700770D01*
X5241036Y8684260D01*
X5251958Y8673337D01*
X5262879Y8668004D01*
X5279136Y8668004D01*
X5290058Y8673337D01*
X5300979Y8684260D01*
X5337047Y8744204D02*
G01*
X5337047Y8668004D01*
X5337047Y8722613D02*
G01*
X5353304Y8738870D01*
X5364225Y8744204D01*
X5380736Y8744204D01*
X5391658Y8738870D01*
X5396991Y8722613D01*
X5396991Y8668004D01*
X5493004Y8727947D02*
G01*
X5487670Y8738870D01*
X5471159Y8744204D01*
X5454904Y8744204D01*
X5438393Y8738870D01*
X5433059Y8727947D01*
X5438393Y8717026D01*
X5449315Y8711692D01*
X5476747Y8706104D01*
X5487670Y8700770D01*
X5493004Y8689847D01*
X5493004Y8684260D01*
X5487670Y8673337D01*
X5471159Y8668004D01*
X5454904Y8668004D01*
X5438393Y8673337D01*
X5433059Y8684260D01*
X5529072Y8782558D02*
G01*
X5534406Y8776970D01*
X5539993Y8782558D01*
X5534406Y8787892D01*
X5529072Y8782558D01*
X5534406Y8744204D02*
G01*
X5534406Y8668004D01*
X5603240Y8744204D02*
G01*
X5592318Y8738870D01*
X5581395Y8727947D01*
X5575808Y8711692D01*
X5575808Y8700770D01*
X5581395Y8684260D01*
X5592318Y8673337D01*
X5603240Y8668004D01*
X5619495Y8668004D01*
X5630418Y8673337D01*
X5641340Y8684260D01*
X5646927Y8700770D01*
X5646927Y8711692D01*
X5641340Y8727947D01*
X5630418Y8738870D01*
X5619495Y8744204D01*
X5603240Y8744204D01*
X5682741Y8744204D02*
G01*
X5682741Y8668004D01*
X5682741Y8722613D02*
G01*
X5699252Y8738870D01*
X5710174Y8744204D01*
X5726429Y8744204D01*
X5737352Y8738870D01*
X5742940Y8722613D01*
X5742940Y8668004D01*
X5862827Y8782558D02*
G01*
X5862827Y8668004D01*
X5862827Y8782558D02*
G01*
X5911850Y8782558D01*
X5928359Y8776970D01*
X5933693Y8771636D01*
X5939281Y8760713D01*
X5939281Y8749792D01*
X5933693Y8738870D01*
X5928359Y8733281D01*
X5911850Y8727947D01*
X5862827Y8727947D02*
G01*
X5911850Y8727947D01*
X5928359Y8722613D01*
X5933693Y8717026D01*
X5939281Y8706104D01*
X5939281Y8689847D01*
X5933693Y8678926D01*
X5928359Y8673337D01*
X5911850Y8668004D01*
X5862827Y8668004D01*
X6002527Y8744204D02*
G01*
X5991606Y8738870D01*
X5980684Y8727947D01*
X5975095Y8711692D01*
X5975095Y8700770D01*
X5980684Y8684260D01*
X5991606Y8673337D01*
X6002527Y8668004D01*
X6018784Y8668004D01*
X6029706Y8673337D01*
X6040627Y8684260D01*
X6045961Y8700770D01*
X6045961Y8711692D01*
X6040627Y8727947D01*
X6029706Y8738870D01*
X6018784Y8744204D01*
X6002527Y8744204D01*
X6147561Y8744204D02*
G01*
X6147561Y8668004D01*
X6147561Y8727947D02*
G01*
X6136640Y8738870D01*
X6125718Y8744204D01*
X6109461Y8744204D01*
X6098540Y8738870D01*
X6087618Y8727947D01*
X6082029Y8711692D01*
X6082029Y8700770D01*
X6087618Y8684260D01*
X6098540Y8673337D01*
X6109461Y8668004D01*
X6125718Y8668004D01*
X6136640Y8673337D01*
X6147561Y8684260D01*
X6183629Y8744204D02*
G01*
X6183629Y8668004D01*
X6183629Y8711692D02*
G01*
X6188963Y8727947D01*
X6199886Y8738870D01*
X6210808Y8744204D01*
X6227063Y8744204D01*
X6328663Y8782558D02*
G01*
X6328663Y8668004D01*
X6328663Y8727947D02*
G01*
X6317741Y8738870D01*
X6306820Y8744204D01*
X6290563Y8744204D01*
X6279641Y8738870D01*
X6268720Y8727947D01*
X6263131Y8711692D01*
X6263131Y8700770D01*
X6268720Y8684260D01*
X6279641Y8673337D01*
X6290563Y8668004D01*
X6306820Y8668004D01*
X6317741Y8673337D01*
X6328663Y8684260D01*
X6448552Y8782558D02*
G01*
X6492240Y8668004D01*
X6535927Y8782558D02*
G01*
X6492240Y8668004D01*
X6571995Y8760713D02*
G01*
X6582918Y8766047D01*
X6599174Y8782558D01*
X6599174Y8668004D01*
X6640575Y8695181D02*
G01*
X6635241Y8689847D01*
X6640575Y8684260D01*
X6646163Y8689847D01*
X6640575Y8695181D01*
X6714743Y8782558D02*
G01*
X6698488Y8776970D01*
X6687565Y8760713D01*
X6681977Y8733281D01*
X6681977Y8717026D01*
X6687565Y8689847D01*
X6698488Y8673337D01*
X6714743Y8668004D01*
X6725665Y8668004D01*
X6742175Y8673337D01*
X6753097Y8689847D01*
X6758431Y8717026D01*
X6758431Y8733281D01*
X6753097Y8760713D01*
X6742175Y8776970D01*
X6725665Y8782558D01*
X6714743Y8782558D01*
X4953000Y8560815D02*
G01*
X4953000Y8446262D01*
X4989068Y8560815D02*
G01*
X4989068Y8446262D01*
X4989068Y8560815D02*
G01*
X5027168Y8560815D01*
X5043424Y8555481D01*
X5054345Y8544560D01*
X5059934Y8533637D01*
X5065268Y8517128D01*
X5065268Y8489950D01*
X5059934Y8473694D01*
X5054345Y8462771D01*
X5043424Y8451850D01*
X5027168Y8446262D01*
X4989068Y8446262D01*
X5183124Y8533637D02*
G01*
X5177790Y8544560D01*
X5166868Y8555481D01*
X5155945Y8560815D01*
X5134102Y8560815D01*
X5123179Y8555481D01*
X5112258Y8544560D01*
X5106924Y8533637D01*
X5101336Y8517128D01*
X5101336Y8489950D01*
X5106924Y8473694D01*
X5112258Y8462771D01*
X5123179Y8451850D01*
X5134102Y8446262D01*
X5155945Y8446262D01*
X5166868Y8451850D01*
X5177790Y8462771D01*
X5183124Y8473694D01*
X5219191Y8538971D02*
G01*
X5230113Y8544560D01*
X5246370Y8560815D01*
X5246370Y8446262D01*
X5315204Y8560815D02*
G01*
X5298693Y8555481D01*
X5288025Y8538971D01*
X5282438Y8511794D01*
X5282438Y8495537D01*
X5288025Y8468105D01*
X5298693Y8451850D01*
X5315204Y8446262D01*
X5326125Y8446262D01*
X5342381Y8451850D01*
X5353304Y8468105D01*
X5358891Y8495537D01*
X5358891Y8511794D01*
X5353304Y8538971D01*
X5342381Y8555481D01*
X5326125Y8560815D01*
X5315204Y8560815D01*
X5522468Y8560815D02*
G01*
X5511545Y8560815D01*
X5500624Y8555481D01*
X5495290Y8538971D01*
X5495290Y8446262D01*
X5478779Y8522715D02*
G01*
X5516879Y8522715D01*
X5585713Y8522715D02*
G01*
X5574791Y8517128D01*
X5563870Y8506460D01*
X5558536Y8489950D01*
X5558536Y8479028D01*
X5563870Y8462771D01*
X5574791Y8451850D01*
X5585713Y8446262D01*
X5601970Y8446262D01*
X5612891Y8451850D01*
X5623813Y8462771D01*
X5629402Y8479028D01*
X5629402Y8489950D01*
X5623813Y8506460D01*
X5612891Y8517128D01*
X5601970Y8522715D01*
X5585713Y8522715D01*
X5665470Y8522715D02*
G01*
X5665470Y8446262D01*
X5665470Y8489950D02*
G01*
X5670804Y8506460D01*
X5681725Y8517128D01*
X5692647Y8522715D01*
X5708904Y8522715D01*
X5829045Y8560815D02*
G01*
X5829045Y8446262D01*
X5829045Y8560815D02*
G01*
X5878068Y8560815D01*
X5894577Y8555481D01*
X5899911Y8549894D01*
X5905245Y8538971D01*
X5905245Y8528050D01*
X5899911Y8517128D01*
X5894577Y8511794D01*
X5878068Y8506460D01*
X5829045Y8506460D02*
G01*
X5878068Y8506460D01*
X5894577Y8500871D01*
X5899911Y8495537D01*
X5905245Y8484615D01*
X5905245Y8468105D01*
X5899911Y8457184D01*
X5894577Y8451850D01*
X5878068Y8446262D01*
X5829045Y8446262D01*
X6017768Y8544560D02*
G01*
X6006845Y8555481D01*
X5990336Y8560815D01*
X5968745Y8560815D01*
X5952236Y8555481D01*
X5941313Y8544560D01*
X5941313Y8533637D01*
X5946902Y8522715D01*
X5952236Y8517128D01*
X5963158Y8511794D01*
X5995924Y8500871D01*
X6006845Y8495537D01*
X6012179Y8489950D01*
X6017768Y8479028D01*
X6017768Y8462771D01*
X6006845Y8451850D01*
X5990336Y8446262D01*
X5968745Y8446262D01*
X5952236Y8451850D01*
X5941313Y8462771D01*
X6053836Y8560815D02*
G01*
X6053836Y8446262D01*
X6053836Y8560815D02*
G01*
X6097270Y8446262D01*
X6140958Y8560815D02*
G01*
X6097270Y8446262D01*
X6140958Y8560815D02*
G01*
X6140958Y8446262D01*
X6258813Y8533637D02*
G01*
X6253479Y8544560D01*
X6242558Y8555481D01*
X6231636Y8560815D01*
X6209791Y8560815D01*
X6198870Y8555481D01*
X6187947Y8544560D01*
X6182359Y8533637D01*
X6177025Y8517128D01*
X6177025Y8489950D01*
X6182359Y8473694D01*
X6187947Y8462771D01*
X6198870Y8451850D01*
X6209791Y8446262D01*
X6231636Y8446262D01*
X6242558Y8451850D01*
X6253479Y8462771D01*
X6258813Y8473694D01*
X6294881Y8560815D02*
G01*
X6294881Y8446262D01*
X6294881Y8560815D02*
G01*
X6365747Y8560815D01*
X6294881Y8506460D02*
G01*
X6338570Y8506460D01*
X6294881Y8446262D02*
G01*
X6365747Y8446262D01*
X6434327Y8560815D02*
G01*
X6418072Y8555481D01*
X6407150Y8538971D01*
X6401815Y8511794D01*
X6401815Y8495537D01*
X6407150Y8468105D01*
X6418072Y8451850D01*
X6434327Y8446262D01*
X6445250Y8446262D01*
X6461759Y8451850D01*
X6472681Y8468105D01*
X6478015Y8495537D01*
X6478015Y8511794D01*
X6472681Y8538971D01*
X6461759Y8555481D01*
X6445250Y8560815D01*
X6434327Y8560815D01*
X6568693Y8560815D02*
G01*
X6514084Y8484615D01*
X6595872Y8484615D01*
X6568693Y8560815D02*
G01*
X6568693Y8446262D01*
X6631940Y8560815D02*
G01*
X6631940Y8479028D01*
X6637274Y8462771D01*
X6648195Y8451850D01*
X6664706Y8446262D01*
X6675627Y8446262D01*
X6691884Y8451850D01*
X6702806Y8462771D01*
X6708393Y8479028D01*
X6708393Y8560815D01*
X6744208Y8495537D02*
G01*
X6842506Y8495537D01*
X6878574Y8560815D02*
G01*
X6878574Y8446262D01*
X6878574Y8560815D02*
G01*
X6927595Y8560815D01*
X6943852Y8555481D01*
X6949440Y8549894D01*
X6954774Y8538971D01*
X6954774Y8522715D01*
X6949440Y8511794D01*
X6943852Y8506460D01*
X6927595Y8500871D01*
X6878574Y8500871D01*
X6990841Y8560815D02*
G01*
X6990841Y8446262D01*
X6990841Y8560815D02*
G01*
X7039863Y8560815D01*
X7056374Y8555481D01*
X7061708Y8549894D01*
X7067295Y8538971D01*
X7067295Y8522715D01*
X7061708Y8511794D01*
X7056374Y8506460D01*
X7039863Y8500871D01*
X6990841Y8500871D01*
X2037588Y8962897D02*
G01*
X2037588Y8799321D01*
X1955800Y8881110D02*
G01*
X2119375Y8881110D01*
X2286106Y8935008D02*
G01*
X2286106Y8820454D01*
X2286106Y8935008D02*
G01*
X2324206Y8935008D01*
X2340462Y8929420D01*
X2351384Y8918498D01*
X2356972Y8907576D01*
X2362306Y8891320D01*
X2362306Y8863888D01*
X2356972Y8847632D01*
X2351384Y8836710D01*
X2340462Y8825788D01*
X2324206Y8820454D01*
X2286106Y8820454D01*
X2480162Y8907576D02*
G01*
X2474828Y8918498D01*
X2463906Y8929420D01*
X2452984Y8935008D01*
X2431140Y8935008D01*
X2420218Y8929420D01*
X2409296Y8918498D01*
X2403708Y8907576D01*
X2398374Y8891320D01*
X2398374Y8863888D01*
X2403708Y8847632D01*
X2409296Y8836710D01*
X2420218Y8825788D01*
X2431140Y8820454D01*
X2452984Y8820454D01*
X2463906Y8825788D01*
X2474828Y8836710D01*
X2480162Y8847632D01*
X2516230Y8935008D02*
G01*
X2516230Y8820454D01*
X2516230Y8935008D02*
G01*
X2559918Y8820454D01*
X2603352Y8935008D02*
G01*
X2559918Y8820454D01*
X2603352Y8935008D02*
G01*
X2603352Y8820454D01*
D11*
X5780277Y5055107D02*
G01*
X5774943Y5065521D01*
X5764529Y5075936D01*
X5754370Y5081015D01*
X5733541Y5081015D01*
X5723127Y5075936D01*
X5712713Y5065521D01*
X5707379Y5055107D01*
X5702300Y5039360D01*
X5702300Y5013452D01*
X5707379Y4997957D01*
X5712713Y4987544D01*
X5723127Y4977129D01*
X5733541Y4972050D01*
X5754370Y4972050D01*
X5764529Y4977129D01*
X5774943Y4987544D01*
X5780277Y4997957D01*
X5814568Y5081015D02*
G01*
X5855970Y5029200D01*
X5855970Y4972050D01*
X5897625Y5081015D02*
G01*
X5855970Y5029200D01*
X6009893Y5055107D02*
G01*
X6004559Y5065521D01*
X5994400Y5075936D01*
X5983986Y5081015D01*
X5963158Y5081015D01*
X5952743Y5075936D01*
X5942329Y5065521D01*
X5937250Y5055107D01*
X5931915Y5039360D01*
X5931915Y5013452D01*
X5937250Y4997957D01*
X5942329Y4987544D01*
X5952743Y4977129D01*
X5963158Y4972050D01*
X5983986Y4972050D01*
X5994400Y4977129D01*
X6004559Y4987544D01*
X6009893Y4997957D01*
X6044184Y5081015D02*
G01*
X6044184Y4972050D01*
X6044184Y4972050D02*
G01*
X6106413Y4972050D01*
X6140704Y5081015D02*
G01*
X6140704Y4972050D01*
X6140704Y5081015D02*
G01*
X6208268Y5081015D01*
X6140704Y5029200D02*
G01*
X6182359Y5029200D01*
X6140704Y4972050D02*
G01*
X6208268Y4972050D01*
X7099300Y5068315D02*
G01*
X7099300Y4959350D01*
X7099300Y5068315D02*
G01*
X7135622Y5068315D01*
X7151370Y5063236D01*
X7161529Y5052821D01*
X7166863Y5042407D01*
X7171943Y5026660D01*
X7171943Y5000752D01*
X7166863Y4985257D01*
X7161529Y4974844D01*
X7151370Y4964429D01*
X7135622Y4959350D01*
X7099300Y4959350D01*
X7237475Y5068315D02*
G01*
X7227061Y5063236D01*
X7216647Y5052821D01*
X7211568Y5042407D01*
X7206234Y5026660D01*
X7206234Y5000752D01*
X7211568Y4985257D01*
X7216647Y4974844D01*
X7227061Y4964429D01*
X7237475Y4959350D01*
X7258304Y4959350D01*
X7268718Y4964429D01*
X7279131Y4974844D01*
X7284211Y4985257D01*
X7289545Y5000752D01*
X7289545Y5026660D01*
X7284211Y5042407D01*
X7279131Y5052821D01*
X7268718Y5063236D01*
X7258304Y5068315D01*
X7237475Y5068315D01*
X7354824Y5068315D02*
G01*
X7344409Y5063236D01*
X7334250Y5052821D01*
X7328915Y5042407D01*
X7323836Y5026660D01*
X7323836Y5000752D01*
X7328915Y4985257D01*
X7334250Y4974844D01*
X7344409Y4964429D01*
X7354824Y4959350D01*
X7375652Y4959350D01*
X7386065Y4964429D01*
X7396479Y4974844D01*
X7401559Y4985257D01*
X7406893Y5000752D01*
X7406893Y5026660D01*
X7401559Y5042407D01*
X7396479Y5052821D01*
X7386065Y5063236D01*
X7375652Y5068315D01*
X7354824Y5068315D01*
X7441184Y5068315D02*
G01*
X7441184Y4959350D01*
X7441184Y5068315D02*
G01*
X7487920Y5068315D01*
X7503413Y5063236D01*
X7508747Y5057902D01*
X7513827Y5047487D01*
X7513827Y5037073D01*
X7508747Y5026660D01*
X7503413Y5021579D01*
X7487920Y5016500D01*
X7441184Y5016500D01*
X7477506Y5016500D02*
G01*
X7513827Y4959350D01*
X4356100Y5068315D02*
G01*
X4356100Y4959350D01*
X4356100Y5068315D02*
G01*
X4423663Y5068315D01*
X4356100Y5016500D02*
G01*
X4397756Y5016500D01*
X4356100Y4959350D02*
G01*
X4423663Y4959350D01*
X4457954Y4922773D02*
G01*
X4551425Y4922773D01*
X4658359Y5052821D02*
G01*
X4648200Y5063236D01*
X4632452Y5068315D01*
X4611624Y5068315D01*
X4596129Y5063236D01*
X4585715Y5052821D01*
X4585715Y5042407D01*
X4591050Y5031994D01*
X4596129Y5026660D01*
X4606543Y5021579D01*
X4637786Y5011165D01*
X4648200Y5006086D01*
X4653279Y5000752D01*
X4658359Y4990337D01*
X4658359Y4974844D01*
X4648200Y4964429D01*
X4632452Y4959350D01*
X4611624Y4959350D01*
X4596129Y4964429D01*
X4585715Y4974844D01*
X4729225Y5068315D02*
G01*
X4729225Y4959350D01*
X4692650Y5068315D02*
G01*
X4765547Y5068315D01*
X4831079Y5068315D02*
G01*
X4820665Y5063236D01*
X4810252Y5052821D01*
X4804918Y5042407D01*
X4799838Y5026660D01*
X4799838Y5000752D01*
X4804918Y4985257D01*
X4810252Y4974844D01*
X4820665Y4964429D01*
X4831079Y4959350D01*
X4851654Y4959350D01*
X4862068Y4964429D01*
X4872481Y4974844D01*
X4877815Y4985257D01*
X4882895Y5000752D01*
X4882895Y5026660D01*
X4877815Y5042407D01*
X4872481Y5052821D01*
X4862068Y5063236D01*
X4851654Y5068315D01*
X4831079Y5068315D01*
X4917186Y5068315D02*
G01*
X4917186Y4959350D01*
X4917186Y5068315D02*
G01*
X4963922Y5068315D01*
X4979670Y5063236D01*
X4984750Y5057902D01*
X4989829Y5047487D01*
X4989829Y5031994D01*
X4984750Y5021579D01*
X4979670Y5016500D01*
X4963922Y5011165D01*
X4917186Y5011165D01*
X2095500Y5081015D02*
G01*
X2095500Y4972050D01*
X2168143Y5081015D02*
G01*
X2168143Y4972050D01*
X2095500Y5029200D02*
G01*
X2168143Y5029200D01*
X2233675Y5081015D02*
G01*
X2223261Y5075936D01*
X2212847Y5065521D01*
X2207768Y5055107D01*
X2202434Y5039360D01*
X2202434Y5013452D01*
X2207768Y4997957D01*
X2212847Y4987544D01*
X2223261Y4977129D01*
X2233675Y4972050D01*
X2254504Y4972050D01*
X2264918Y4977129D01*
X2275331Y4987544D01*
X2280411Y4997957D01*
X2285745Y5013452D01*
X2285745Y5039360D01*
X2280411Y5055107D01*
X2275331Y5065521D01*
X2264918Y5075936D01*
X2254504Y5081015D01*
X2233675Y5081015D01*
X2320036Y5081015D02*
G01*
X2320036Y4972050D01*
X2320036Y4972050D02*
G01*
X2382265Y4972050D01*
X2416556Y5081015D02*
G01*
X2416556Y4972050D01*
X2416556Y5081015D02*
G01*
X2452877Y5081015D01*
X2468625Y5075936D01*
X2479040Y5065521D01*
X2484120Y5055107D01*
X2489200Y5039360D01*
X2489200Y5013452D01*
X2484120Y4997957D01*
X2479040Y4987544D01*
X2468625Y4977129D01*
X2452877Y4972050D01*
X2416556Y4972050D01*
X7504684Y7168642D02*
G01*
X7509763Y7158228D01*
X7520177Y7147813D01*
X7530591Y7142479D01*
X7546340Y7137400D01*
X7572247Y7137400D01*
X7587741Y7142479D01*
X7598156Y7147813D01*
X7608570Y7158228D01*
X7613650Y7168642D01*
X7613650Y7189470D01*
X7608570Y7199629D01*
X7598156Y7210044D01*
X7587741Y7215378D01*
X7572247Y7220458D01*
X7546340Y7220458D01*
X7530591Y7215378D01*
X7520177Y7210044D01*
X7509763Y7199629D01*
X7504684Y7189470D01*
X7504684Y7168642D01*
X7504684Y7254747D02*
G01*
X7582661Y7254747D01*
X7598156Y7260081D01*
X7608570Y7270495D01*
X7613650Y7285989D01*
X7613650Y7296404D01*
X7608570Y7311897D01*
X7598156Y7322312D01*
X7582661Y7327645D01*
X7504684Y7327645D01*
X7504684Y7398258D02*
G01*
X7613650Y7398258D01*
X7504684Y7361936D02*
G01*
X7504684Y7434579D01*
X7504684Y7500112D02*
G01*
X7509763Y7484363D01*
X7525511Y7473950D01*
X7551420Y7468870D01*
X7566913Y7468870D01*
X7593075Y7473950D01*
X7608570Y7484363D01*
X7613650Y7500112D01*
X7613650Y7510526D01*
X7608570Y7526020D01*
X7593075Y7536434D01*
X7566913Y7541513D01*
X7551420Y7541513D01*
X7525511Y7536434D01*
X7509763Y7526020D01*
X7504684Y7510526D01*
X7504684Y7500112D01*
X3238500Y5068315D02*
G01*
X3238500Y4959350D01*
X3238500Y5068315D02*
G01*
X3285236Y5068315D01*
X3300729Y5063236D01*
X3306063Y5057902D01*
X3311143Y5047487D01*
X3311143Y5031994D01*
X3306063Y5021579D01*
X3300729Y5016500D01*
X3285236Y5011165D01*
X3238500Y5011165D01*
X3345434Y5068315D02*
G01*
X3345434Y4959350D01*
X3345434Y5068315D02*
G01*
X3392170Y5068315D01*
X3407918Y5063236D01*
X3412997Y5057902D01*
X3418331Y5047487D01*
X3418331Y5037073D01*
X3412997Y5026660D01*
X3407918Y5021579D01*
X3392170Y5016500D01*
X3345434Y5016500D01*
X3382009Y5016500D02*
G01*
X3418331Y4959350D01*
X3483609Y5068315D02*
G01*
X3473450Y5063236D01*
X3463036Y5052821D01*
X3457702Y5042407D01*
X3452622Y5026660D01*
X3452622Y5000752D01*
X3457702Y4985257D01*
X3463036Y4974844D01*
X3473450Y4964429D01*
X3483609Y4959350D01*
X3504438Y4959350D01*
X3514852Y4964429D01*
X3525265Y4974844D01*
X3530600Y4985257D01*
X3535679Y5000752D01*
X3535679Y5026660D01*
X3530600Y5042407D01*
X3525265Y5052821D01*
X3514852Y5063236D01*
X3504438Y5068315D01*
X3483609Y5068315D01*
X3569970Y5068315D02*
G01*
X3569970Y4959350D01*
X3569970Y5068315D02*
G01*
X3616706Y5068315D01*
X3632200Y5063236D01*
X3637534Y5057902D01*
X3642613Y5047487D01*
X3642613Y5037073D01*
X3637534Y5026660D01*
X3632200Y5021579D01*
X3616706Y5016500D01*
X3569970Y5016500D02*
G01*
X3616706Y5016500D01*
X3632200Y5011165D01*
X3637534Y5006086D01*
X3642613Y4995671D01*
X3642613Y4979923D01*
X3637534Y4969510D01*
X3632200Y4964429D01*
X3616706Y4959350D01*
X3569970Y4959350D01*
X3676904Y5068315D02*
G01*
X3676904Y4959350D01*
X3676904Y5068315D02*
G01*
X3744468Y5068315D01*
X3676904Y5016500D02*
G01*
X3718559Y5016500D01*
X3676904Y4959350D02*
G01*
X3744468Y4959350D01*
X4031251Y6324600D02*
G01*
X4140217Y6324600D01*
X4031251Y6324600D02*
G01*
X4031251Y6360921D01*
X4036331Y6376670D01*
X4046745Y6386829D01*
X4057159Y6392163D01*
X4072907Y6397244D01*
X4098815Y6397244D01*
X4114309Y6392163D01*
X4124723Y6386829D01*
X4135137Y6376670D01*
X4140217Y6360921D01*
X4140217Y6324600D01*
X4052079Y6431534D02*
G01*
X4046745Y6441947D01*
X4031251Y6457695D01*
X4140217Y6457695D01*
X2780278Y6324587D02*
G01*
X2889244Y6324587D01*
X2780278Y6324587D02*
G01*
X2780278Y6360909D01*
X2785358Y6376657D01*
X2795772Y6386817D01*
X2806186Y6392151D01*
X2821934Y6397231D01*
X2847842Y6397231D01*
X2863336Y6392151D01*
X2873750Y6386817D01*
X2884164Y6376657D01*
X2889244Y6360909D01*
X2889244Y6324587D01*
X2806186Y6436855D02*
G01*
X2801106Y6436855D01*
X2790692Y6441935D01*
X2785358Y6447269D01*
X2780278Y6457683D01*
X2780278Y6478257D01*
X2785358Y6488671D01*
X2790692Y6494005D01*
X2801106Y6499085D01*
X2811520Y6499085D01*
X2821934Y6494005D01*
X2837428Y6483591D01*
X2889244Y6431521D01*
X2889244Y6504419D01*
X4643981Y6324600D02*
G01*
X4752947Y6324600D01*
X4643981Y6324600D02*
G01*
X4643981Y6360921D01*
X4649061Y6376670D01*
X4659475Y6386829D01*
X4669889Y6392163D01*
X4685637Y6397244D01*
X4711545Y6397244D01*
X4727039Y6392163D01*
X4737453Y6386829D01*
X4747867Y6376670D01*
X4752947Y6360921D01*
X4752947Y6324600D01*
X4643981Y6441947D02*
G01*
X4643981Y6499097D01*
X4685637Y6468110D01*
X4685637Y6483604D01*
X4690717Y6494018D01*
X4695797Y6499097D01*
X4711545Y6504431D01*
X4721959Y6504431D01*
X4737453Y6499097D01*
X4747867Y6488684D01*
X4752947Y6473189D01*
X4752947Y6457695D01*
X4747867Y6441947D01*
X4742787Y6436868D01*
X4732373Y6431534D01*
X5256784Y6299200D02*
G01*
X5365750Y6299200D01*
X5256784Y6299200D02*
G01*
X5256784Y6335521D01*
X5261863Y6351270D01*
X5272277Y6361429D01*
X5282691Y6366763D01*
X5298440Y6371844D01*
X5324347Y6371844D01*
X5339841Y6366763D01*
X5350256Y6361429D01*
X5360670Y6351270D01*
X5365750Y6335521D01*
X5365750Y6299200D01*
X5256784Y6458204D02*
G01*
X5329427Y6406134D01*
X5329427Y6484112D01*
X5256784Y6458204D02*
G01*
X5365750Y6458204D01*
X3418486Y6311900D02*
G01*
X3527452Y6311900D01*
X3418486Y6311900D02*
G01*
X3418486Y6348221D01*
X3423566Y6363970D01*
X3433980Y6374129D01*
X3444394Y6379463D01*
X3460142Y6384544D01*
X3486050Y6384544D01*
X3501544Y6379463D01*
X3511958Y6374129D01*
X3522372Y6363970D01*
X3527452Y6348221D01*
X3527452Y6311900D01*
X3418486Y6481318D02*
G01*
X3418486Y6429247D01*
X3465222Y6424168D01*
X3460142Y6429247D01*
X3454808Y6444995D01*
X3454808Y6460489D01*
X3460142Y6475984D01*
X3470302Y6486397D01*
X3486050Y6491731D01*
X3496464Y6491731D01*
X3511958Y6486397D01*
X3522372Y6475984D01*
X3527452Y6460489D01*
X3527452Y6444995D01*
X3522372Y6429247D01*
X3517292Y6424168D01*
X3506878Y6418834D01*
X1738884Y7619987D02*
G01*
X1847850Y7619987D01*
X1738884Y7619987D02*
G01*
X1738884Y7656309D01*
X1743963Y7672057D01*
X1754378Y7682217D01*
X1764792Y7687551D01*
X1780539Y7692631D01*
X1806447Y7692631D01*
X1821942Y7687551D01*
X1832355Y7682217D01*
X1842770Y7672057D01*
X1847850Y7656309D01*
X1847850Y7619987D01*
X1754378Y7789405D02*
G01*
X1743963Y7784071D01*
X1738884Y7768577D01*
X1738884Y7758163D01*
X1743963Y7742669D01*
X1759712Y7732255D01*
X1785620Y7726921D01*
X1811528Y7726921D01*
X1832355Y7732255D01*
X1842770Y7742669D01*
X1847850Y7758163D01*
X1847850Y7763497D01*
X1842770Y7778991D01*
X1832355Y7789405D01*
X1816862Y7794485D01*
X1811528Y7794485D01*
X1796034Y7789405D01*
X1785620Y7778991D01*
X1780539Y7763497D01*
X1780539Y7758163D01*
X1785620Y7742669D01*
X1796034Y7732255D01*
X1811528Y7726921D01*
X2679692Y6274803D02*
G01*
X2679692Y6165837D01*
X2679692Y6165837D02*
G01*
X2741922Y6165837D01*
X2776212Y6274803D02*
G01*
X2776212Y6165837D01*
X2776212Y6274803D02*
G01*
X2843776Y6274803D01*
X2776212Y6222987D02*
G01*
X2817868Y6222987D01*
X2776212Y6165837D02*
G01*
X2843776Y6165837D01*
X2878066Y6274803D02*
G01*
X2878066Y6165837D01*
X2878066Y6274803D02*
G01*
X2914642Y6274803D01*
X2930136Y6269723D01*
X2940550Y6259309D01*
X2945630Y6248895D01*
X2950964Y6233147D01*
X2950964Y6207239D01*
X2945630Y6191745D01*
X2940550Y6181331D01*
X2930136Y6170917D01*
X2914642Y6165837D01*
X2878066Y6165837D01*
X2985254Y6253975D02*
G01*
X2995668Y6259309D01*
X3011162Y6274803D01*
X3011162Y6165837D01*
X1409697Y6274803D02*
G01*
X1409697Y6165837D01*
X1409697Y6165837D02*
G01*
X1471927Y6165837D01*
X1506217Y6274803D02*
G01*
X1506217Y6165837D01*
X1506217Y6274803D02*
G01*
X1573781Y6274803D01*
X1506217Y6222987D02*
G01*
X1547873Y6222987D01*
X1506217Y6165837D02*
G01*
X1573781Y6165837D01*
X1608071Y6274803D02*
G01*
X1608071Y6165837D01*
X1608071Y6274803D02*
G01*
X1644647Y6274803D01*
X1660141Y6269723D01*
X1670555Y6259309D01*
X1675635Y6248895D01*
X1680969Y6233147D01*
X1680969Y6207239D01*
X1675635Y6191745D01*
X1670555Y6181331D01*
X1660141Y6170917D01*
X1644647Y6165837D01*
X1608071Y6165837D01*
X1720339Y6248895D02*
G01*
X1720339Y6253975D01*
X1725673Y6264389D01*
X1730753Y6269723D01*
X1741167Y6274803D01*
X1761995Y6274803D01*
X1772409Y6269723D01*
X1777489Y6264389D01*
X1782823Y6253975D01*
X1782823Y6243561D01*
X1777489Y6233147D01*
X1767075Y6217653D01*
X1715259Y6165837D01*
X1787903Y6165837D01*
X3949689Y6274803D02*
G01*
X3949689Y6165837D01*
X3949689Y6165837D02*
G01*
X4011919Y6165837D01*
X4046209Y6274803D02*
G01*
X4046209Y6165837D01*
X4046209Y6274803D02*
G01*
X4113773Y6274803D01*
X4046209Y6222987D02*
G01*
X4087865Y6222987D01*
X4046209Y6165837D02*
G01*
X4113773Y6165837D01*
X4148063Y6274803D02*
G01*
X4148063Y6165837D01*
X4148063Y6274803D02*
G01*
X4184639Y6274803D01*
X4200133Y6269723D01*
X4210547Y6259309D01*
X4215627Y6248895D01*
X4220961Y6233147D01*
X4220961Y6207239D01*
X4215627Y6191745D01*
X4210547Y6181331D01*
X4200133Y6170917D01*
X4184639Y6165837D01*
X4148063Y6165837D01*
X4265665Y6274803D02*
G01*
X4322815Y6274803D01*
X4291573Y6233147D01*
X4307067Y6233147D01*
X4317481Y6228067D01*
X4322815Y6222987D01*
X4327895Y6207239D01*
X4327895Y6196825D01*
X4322815Y6181331D01*
X4312401Y6170917D01*
X4296653Y6165837D01*
X4281159Y6165837D01*
X4265665Y6170917D01*
X4260331Y6175997D01*
X4255251Y6186411D01*
X5168887Y6274803D02*
G01*
X5168887Y6165837D01*
X5168887Y6165837D02*
G01*
X5231117Y6165837D01*
X5265407Y6274803D02*
G01*
X5265407Y6165837D01*
X5265407Y6274803D02*
G01*
X5332971Y6274803D01*
X5265407Y6222987D02*
G01*
X5307063Y6222987D01*
X5265407Y6165837D02*
G01*
X5332971Y6165837D01*
X5367261Y6274803D02*
G01*
X5367261Y6165837D01*
X5367261Y6274803D02*
G01*
X5403837Y6274803D01*
X5419331Y6269723D01*
X5429745Y6259309D01*
X5434825Y6248895D01*
X5440159Y6233147D01*
X5440159Y6207239D01*
X5434825Y6191745D01*
X5429745Y6181331D01*
X5419331Y6170917D01*
X5403837Y6165837D01*
X5367261Y6165837D01*
X5526265Y6274803D02*
G01*
X5474449Y6202159D01*
X5552427Y6202159D01*
X5526265Y6274803D02*
G01*
X5526265Y6165837D01*
X6388084Y6274803D02*
G01*
X6388084Y6165837D01*
X6388084Y6165837D02*
G01*
X6450314Y6165837D01*
X6484604Y6274803D02*
G01*
X6484604Y6165837D01*
X6484604Y6274803D02*
G01*
X6552168Y6274803D01*
X6484604Y6222987D02*
G01*
X6526260Y6222987D01*
X6484604Y6165837D02*
G01*
X6552168Y6165837D01*
X6586458Y6274803D02*
G01*
X6586458Y6165837D01*
X6586458Y6274803D02*
G01*
X6623034Y6274803D01*
X6638528Y6269723D01*
X6648942Y6259309D01*
X6654022Y6248895D01*
X6659356Y6233147D01*
X6659356Y6207239D01*
X6654022Y6191745D01*
X6648942Y6181331D01*
X6638528Y6170917D01*
X6623034Y6165837D01*
X6586458Y6165837D01*
X6755876Y6274803D02*
G01*
X6704060Y6274803D01*
X6698726Y6228067D01*
X6704060Y6233147D01*
X6719554Y6238481D01*
X6735048Y6238481D01*
X6750796Y6233147D01*
X6761210Y6222987D01*
X6766290Y6207239D01*
X6766290Y6196825D01*
X6761210Y6181331D01*
X6750796Y6170917D01*
X6735048Y6165837D01*
X6719554Y6165837D01*
X6704060Y6170917D01*
X6698726Y6175997D01*
X6693646Y6186411D01*
X6361684Y6451600D02*
G01*
X6470650Y6451600D01*
X6470650Y6451600D02*
G01*
X6470650Y6513829D01*
X6361684Y6548120D02*
G01*
X6470650Y6548120D01*
X6361684Y6548120D02*
G01*
X6361684Y6615684D01*
X6413500Y6548120D02*
G01*
X6413500Y6589776D01*
X6470650Y6548120D02*
G01*
X6470650Y6615684D01*
X6361684Y6649973D02*
G01*
X6470650Y6649973D01*
X6361684Y6649973D02*
G01*
X6361684Y6686550D01*
X6366763Y6702044D01*
X6377177Y6712458D01*
X6387591Y6717537D01*
X6403340Y6722871D01*
X6429247Y6722871D01*
X6444741Y6717537D01*
X6455156Y6712458D01*
X6465570Y6702044D01*
X6470650Y6686550D01*
X6470650Y6649973D01*
X6377177Y6819392D02*
G01*
X6366763Y6814312D01*
X6361684Y6798563D01*
X6361684Y6788150D01*
X6366763Y6772655D01*
X6382511Y6762242D01*
X6408420Y6757162D01*
X6434327Y6757162D01*
X6455156Y6762242D01*
X6465570Y6772655D01*
X6470650Y6788150D01*
X6470650Y6793484D01*
X6465570Y6808978D01*
X6455156Y6819392D01*
X6439661Y6824726D01*
X6434327Y6824726D01*
X6418834Y6819392D01*
X6408420Y6808978D01*
X6403340Y6793484D01*
X6403340Y6788150D01*
X6408420Y6772655D01*
X6418834Y6762242D01*
X6434327Y6757162D01*
X2291079Y8014208D02*
G01*
X2291079Y8019287D01*
X2296413Y8029702D01*
X2301493Y8035036D01*
X2311908Y8040115D01*
X2332736Y8040115D01*
X2343150Y8035036D01*
X2348229Y8029702D01*
X2353563Y8019287D01*
X2353563Y8008873D01*
X2348229Y7998460D01*
X2338070Y7982965D01*
X2286000Y7931150D01*
X2358643Y7931150D01*
X2445004Y8040115D02*
G01*
X2392934Y7967471D01*
X2470911Y7967471D01*
X2445004Y8040115D02*
G01*
X2445004Y7931150D01*
X2505202Y8040115D02*
G01*
X2546858Y7931150D01*
X2588259Y8040115D02*
G01*
X2546858Y7931150D01*
X6121400Y6643115D02*
G01*
X6121400Y6534150D01*
X6121400Y6643115D02*
G01*
X6168136Y6643115D01*
X6183629Y6638036D01*
X6188963Y6632702D01*
X6194043Y6622287D01*
X6194043Y6611873D01*
X6188963Y6601460D01*
X6183629Y6596379D01*
X6168136Y6591300D01*
X6121400Y6591300D01*
X6157722Y6591300D02*
G01*
X6194043Y6534150D01*
X6228334Y6622287D02*
G01*
X6238747Y6627621D01*
X6254495Y6643115D01*
X6254495Y6534150D01*
X3313691Y7683500D02*
G01*
X3422657Y7683500D01*
X3313691Y7683500D02*
G01*
X3313691Y7730236D01*
X3318771Y7745729D01*
X3324105Y7751063D01*
X3334519Y7756144D01*
X3344933Y7756144D01*
X3355347Y7751063D01*
X3360427Y7745729D01*
X3365507Y7730236D01*
X3365507Y7683500D01*
X3365507Y7719821D02*
G01*
X3422657Y7756144D01*
X3339599Y7795768D02*
G01*
X3334519Y7795768D01*
X3324105Y7800847D01*
X3318771Y7806181D01*
X3313691Y7816595D01*
X3313691Y7837170D01*
X3318771Y7847584D01*
X3324105Y7852918D01*
X3334519Y7857997D01*
X3344933Y7857997D01*
X3355347Y7852918D01*
X3370841Y7842504D01*
X3422657Y7790434D01*
X3422657Y7863331D01*
X2964431Y7683500D02*
G01*
X3073397Y7683500D01*
X2964431Y7683500D02*
G01*
X2964431Y7730236D01*
X2969511Y7745729D01*
X2974845Y7751063D01*
X2985259Y7756144D01*
X2995673Y7756144D01*
X3006087Y7751063D01*
X3011167Y7745729D01*
X3016247Y7730236D01*
X3016247Y7683500D01*
X3016247Y7719821D02*
G01*
X3073397Y7756144D01*
X2964431Y7800847D02*
G01*
X2964431Y7857997D01*
X3006087Y7827010D01*
X3006087Y7842504D01*
X3011167Y7852918D01*
X3016247Y7857997D01*
X3031995Y7863331D01*
X3042409Y7863331D01*
X3057903Y7857997D01*
X3068317Y7847584D01*
X3073397Y7832089D01*
X3073397Y7816595D01*
X3068317Y7800847D01*
X3063237Y7795768D01*
X3052823Y7790434D01*
X3662936Y7683500D02*
G01*
X3771902Y7683500D01*
X3662936Y7683500D02*
G01*
X3662936Y7730236D01*
X3668016Y7745729D01*
X3673350Y7751063D01*
X3683764Y7756144D01*
X3694178Y7756144D01*
X3704592Y7751063D01*
X3709672Y7745729D01*
X3714752Y7730236D01*
X3714752Y7683500D01*
X3714752Y7719821D02*
G01*
X3771902Y7756144D01*
X3662936Y7842504D02*
G01*
X3735580Y7790434D01*
X3735580Y7868412D01*
X3662936Y7842504D02*
G01*
X3771902Y7842504D01*
X4361431Y7683500D02*
G01*
X4470397Y7683500D01*
X4361431Y7683500D02*
G01*
X4361431Y7730236D01*
X4366511Y7745729D01*
X4371845Y7751063D01*
X4382259Y7756144D01*
X4392673Y7756144D01*
X4403087Y7751063D01*
X4408167Y7745729D01*
X4413247Y7730236D01*
X4413247Y7683500D01*
X4413247Y7719821D02*
G01*
X4470397Y7756144D01*
X4361431Y7852918D02*
G01*
X4361431Y7800847D01*
X4408167Y7795768D01*
X4403087Y7800847D01*
X4397753Y7816595D01*
X4397753Y7832089D01*
X4403087Y7847584D01*
X4413247Y7857997D01*
X4428995Y7863331D01*
X4439409Y7863331D01*
X4454903Y7857997D01*
X4465317Y7847584D01*
X4470397Y7832089D01*
X4470397Y7816595D01*
X4465317Y7800847D01*
X4460237Y7795768D01*
X4449823Y7790434D01*
X4012184Y7683500D02*
G01*
X4121150Y7683500D01*
X4012184Y7683500D02*
G01*
X4012184Y7730236D01*
X4017263Y7745729D01*
X4022597Y7751063D01*
X4033011Y7756144D01*
X4043425Y7756144D01*
X4053840Y7751063D01*
X4058920Y7745729D01*
X4064000Y7730236D01*
X4064000Y7683500D01*
X4064000Y7719821D02*
G01*
X4121150Y7756144D01*
X4027677Y7852918D02*
G01*
X4017263Y7847584D01*
X4012184Y7832089D01*
X4012184Y7821676D01*
X4017263Y7806181D01*
X4033011Y7795768D01*
X4058920Y7790434D01*
X4084827Y7790434D01*
X4105656Y7795768D01*
X4116070Y7806181D01*
X4121150Y7821676D01*
X4121150Y7827010D01*
X4116070Y7842504D01*
X4105656Y7852918D01*
X4090161Y7857997D01*
X4084827Y7857997D01*
X4069334Y7852918D01*
X4058920Y7842504D01*
X4053840Y7827010D01*
X4053840Y7821676D01*
X4058920Y7806181D01*
X4069334Y7795768D01*
X4084827Y7790434D01*
X3390889Y6274803D02*
G01*
X3390889Y6165837D01*
X3390889Y6274803D02*
G01*
X3437625Y6274803D01*
X3453119Y6269723D01*
X3458453Y6264389D01*
X3463533Y6253975D01*
X3463533Y6243561D01*
X3458453Y6233147D01*
X3453119Y6228067D01*
X3437625Y6222987D01*
X3390889Y6222987D01*
X3427211Y6222987D02*
G01*
X3463533Y6165837D01*
X3570721Y6274803D02*
G01*
X3518651Y6165837D01*
X3497823Y6274803D02*
G01*
X3570721Y6274803D01*
X2146297Y6274803D02*
G01*
X2146297Y6165837D01*
X2146297Y6274803D02*
G01*
X2193033Y6274803D01*
X2208527Y6269723D01*
X2213861Y6264389D01*
X2218941Y6253975D01*
X2218941Y6243561D01*
X2213861Y6233147D01*
X2208527Y6228067D01*
X2193033Y6222987D01*
X2146297Y6222987D01*
X2182619Y6222987D02*
G01*
X2218941Y6165837D01*
X2279393Y6274803D02*
G01*
X2263645Y6269723D01*
X2258565Y6259309D01*
X2258565Y6248895D01*
X2263645Y6238481D01*
X2274059Y6233147D01*
X2294887Y6228067D01*
X2310381Y6222987D01*
X2320795Y6212573D01*
X2326129Y6202159D01*
X2326129Y6186411D01*
X2320795Y6175997D01*
X2315715Y6170917D01*
X2299967Y6165837D01*
X2279393Y6165837D01*
X2263645Y6170917D01*
X2258565Y6175997D01*
X2253231Y6186411D01*
X2253231Y6202159D01*
X2258565Y6212573D01*
X2268979Y6222987D01*
X2284473Y6228067D01*
X2305301Y6233147D01*
X2315715Y6238481D01*
X2320795Y6248895D01*
X2320795Y6259309D01*
X2315715Y6269723D01*
X2299967Y6274803D01*
X2279393Y6274803D01*
X4660887Y6274803D02*
G01*
X4660887Y6165837D01*
X4660887Y6274803D02*
G01*
X4707623Y6274803D01*
X4723117Y6269723D01*
X4728451Y6264389D01*
X4733531Y6253975D01*
X4733531Y6243561D01*
X4728451Y6233147D01*
X4723117Y6228067D01*
X4707623Y6222987D01*
X4660887Y6222987D01*
X4697209Y6222987D02*
G01*
X4733531Y6165837D01*
X4835385Y6238481D02*
G01*
X4830305Y6222987D01*
X4819891Y6212573D01*
X4804397Y6207239D01*
X4799063Y6207239D01*
X4783569Y6212573D01*
X4773155Y6222987D01*
X4767821Y6238481D01*
X4767821Y6243561D01*
X4773155Y6259309D01*
X4783569Y6269723D01*
X4799063Y6274803D01*
X4804397Y6274803D01*
X4819891Y6269723D01*
X4830305Y6259309D01*
X4835385Y6238481D01*
X4835385Y6212573D01*
X4830305Y6186411D01*
X4819891Y6170917D01*
X4804397Y6165837D01*
X4793983Y6165837D01*
X4778235Y6170917D01*
X4773155Y6181331D01*
X5880084Y6274803D02*
G01*
X5880084Y6165837D01*
X5880084Y6274803D02*
G01*
X5926820Y6274803D01*
X5942314Y6269723D01*
X5947648Y6264389D01*
X5952728Y6253975D01*
X5952728Y6243561D01*
X5947648Y6233147D01*
X5942314Y6228067D01*
X5926820Y6222987D01*
X5880084Y6222987D01*
X5916406Y6222987D02*
G01*
X5952728Y6165837D01*
X5987018Y6253975D02*
G01*
X5997432Y6259309D01*
X6013180Y6274803D01*
X6013180Y6165837D01*
X6078458Y6274803D02*
G01*
X6062964Y6269723D01*
X6052550Y6253975D01*
X6047470Y6228067D01*
X6047470Y6212573D01*
X6052550Y6186411D01*
X6062964Y6170917D01*
X6078458Y6165837D01*
X6088872Y6165837D01*
X6104620Y6170917D01*
X6115034Y6186411D01*
X6120114Y6212573D01*
X6120114Y6228067D01*
X6115034Y6253975D01*
X6104620Y6269723D01*
X6088872Y6274803D01*
X6078458Y6274803D01*
X7099284Y6274803D02*
G01*
X7099284Y6165837D01*
X7099284Y6274803D02*
G01*
X7146020Y6274803D01*
X7161514Y6269723D01*
X7166848Y6264389D01*
X7171928Y6253975D01*
X7171928Y6243561D01*
X7166848Y6233147D01*
X7161514Y6228067D01*
X7146020Y6222987D01*
X7099284Y6222987D01*
X7135606Y6222987D02*
G01*
X7171928Y6165837D01*
X7206218Y6253975D02*
G01*
X7216632Y6259309D01*
X7232380Y6274803D01*
X7232380Y6165837D01*
X7266670Y6253975D02*
G01*
X7277084Y6259309D01*
X7292578Y6274803D01*
X7292578Y6165837D01*
X6539484Y7493000D02*
G01*
X6648450Y7493000D01*
X6539484Y7493000D02*
G01*
X6539484Y7539736D01*
X6544563Y7555229D01*
X6549897Y7560563D01*
X6560311Y7565644D01*
X6570725Y7565644D01*
X6581140Y7560563D01*
X6586220Y7555229D01*
X6591300Y7539736D01*
X6591300Y7493000D01*
X6591300Y7529321D02*
G01*
X6648450Y7565644D01*
X6560311Y7599934D02*
G01*
X6554977Y7610347D01*
X6539484Y7626095D01*
X6648450Y7626095D01*
X6565391Y7665465D02*
G01*
X6560311Y7665465D01*
X6549897Y7670800D01*
X6544563Y7675879D01*
X6539484Y7686294D01*
X6539484Y7707121D01*
X6544563Y7717536D01*
X6549897Y7722615D01*
X6560311Y7727950D01*
X6570725Y7727950D01*
X6581140Y7722615D01*
X6596634Y7712202D01*
X6648450Y7660386D01*
X6648450Y7733029D01*
X2549143Y6959600D02*
G01*
X2627122Y6959600D01*
X2642615Y6964679D01*
X2653029Y6975094D01*
X2658109Y6990842D01*
X2658109Y7001255D01*
X2653029Y7016750D01*
X2642615Y7027163D01*
X2627122Y7032244D01*
X2549143Y7032244D01*
X2569972Y7066534D02*
G01*
X2564638Y7076947D01*
X2549143Y7092695D01*
X2658109Y7092695D01*
X3155215Y6959600D02*
G01*
X3233193Y6959600D01*
X3248687Y6964679D01*
X3259101Y6975094D01*
X3264181Y6990842D01*
X3264181Y7001255D01*
X3259101Y7016750D01*
X3248687Y7027163D01*
X3233193Y7032244D01*
X3155215Y7032244D01*
X3155215Y7076947D02*
G01*
X3155215Y7134097D01*
X3196871Y7103110D01*
X3196871Y7118604D01*
X3201951Y7129018D01*
X3207031Y7134097D01*
X3222779Y7139431D01*
X3233193Y7139431D01*
X3248687Y7134097D01*
X3259101Y7123684D01*
X3264181Y7108189D01*
X3264181Y7092695D01*
X3259101Y7076947D01*
X3254021Y7071868D01*
X3243607Y7066534D01*
X3761303Y6959600D02*
G01*
X3839281Y6959600D01*
X3854775Y6964679D01*
X3865189Y6975094D01*
X3870269Y6990842D01*
X3870269Y7001255D01*
X3865189Y7016750D01*
X3854775Y7027163D01*
X3839281Y7032244D01*
X3761303Y7032244D01*
X3761303Y7118604D02*
G01*
X3833947Y7066534D01*
X3833947Y7144512D01*
X3761303Y7118604D02*
G01*
X3870269Y7118604D01*
X4367387Y6959600D02*
G01*
X4445365Y6959600D01*
X4460859Y6964679D01*
X4471273Y6975094D01*
X4476353Y6990842D01*
X4476353Y7001255D01*
X4471273Y7016750D01*
X4460859Y7027163D01*
X4445365Y7032244D01*
X4367387Y7032244D01*
X4367387Y7129018D02*
G01*
X4367387Y7076947D01*
X4414123Y7071868D01*
X4409043Y7076947D01*
X4403709Y7092695D01*
X4403709Y7108189D01*
X4409043Y7123684D01*
X4419203Y7134097D01*
X4434951Y7139431D01*
X4445365Y7139431D01*
X4460859Y7134097D01*
X4471273Y7123684D01*
X4476353Y7108189D01*
X4476353Y7092695D01*
X4471273Y7076947D01*
X4466193Y7071868D01*
X4455779Y7066534D01*
X4990084Y6964426D02*
G01*
X5068061Y6964426D01*
X5083556Y6969505D01*
X5093970Y6979920D01*
X5099050Y6995668D01*
X5099050Y7006081D01*
X5093970Y7021576D01*
X5083556Y7031989D01*
X5068061Y7037070D01*
X4990084Y7037070D01*
X5005577Y7133844D02*
G01*
X4995163Y7128510D01*
X4990084Y7113015D01*
X4990084Y7102602D01*
X4995163Y7087108D01*
X5010911Y7076694D01*
X5036820Y7071360D01*
X5062727Y7071360D01*
X5083556Y7076694D01*
X5093970Y7087108D01*
X5099050Y7102602D01*
X5099050Y7107936D01*
X5093970Y7123429D01*
X5083556Y7133844D01*
X5068061Y7138923D01*
X5062727Y7138923D01*
X5047234Y7133844D01*
X5036820Y7123429D01*
X5031740Y7107936D01*
X5031740Y7102602D01*
X5036820Y7087108D01*
X5047234Y7076694D01*
X5062727Y7071360D01*
X6262115Y7018273D02*
G01*
X6184138Y7018273D01*
X6168643Y7013194D01*
X6158229Y7002779D01*
X6153150Y6987031D01*
X6153150Y6976618D01*
X6158229Y6961123D01*
X6168643Y6950710D01*
X6184138Y6945629D01*
X6262115Y6945629D01*
X6262115Y6838442D02*
G01*
X6153150Y6890512D01*
X6262115Y6911339D02*
G01*
X6262115Y6838442D01*
X2844800Y8954515D02*
G01*
X2844800Y8845550D01*
X2879090Y8954515D02*
G01*
X2879090Y8845550D01*
X2879090Y8954515D02*
G01*
X2915411Y8954515D01*
X2931159Y8949436D01*
X2941320Y8939021D01*
X2946654Y8928608D01*
X2951734Y8912860D01*
X2951734Y8886952D01*
X2946654Y8871458D01*
X2941320Y8861044D01*
X2931159Y8850629D01*
X2915411Y8845550D01*
X2879090Y8845550D01*
X3064002Y8928608D02*
G01*
X3058922Y8939021D01*
X3048508Y8949436D01*
X3038093Y8954515D01*
X3017265Y8954515D01*
X3006852Y8949436D01*
X2996438Y8939021D01*
X2991358Y8928608D01*
X2986024Y8912860D01*
X2986024Y8886952D01*
X2991358Y8871458D01*
X2996438Y8861044D01*
X3006852Y8850629D01*
X3017265Y8845550D01*
X3038093Y8845550D01*
X3048508Y8850629D01*
X3058922Y8861044D01*
X3064002Y8871458D01*
X3098291Y8808974D02*
G01*
X3191763Y8808974D01*
X3226054Y8954515D02*
G01*
X3226054Y8845550D01*
X3226054Y8954515D02*
G01*
X3272790Y8954515D01*
X3288538Y8949436D01*
X3293618Y8944102D01*
X3298952Y8933687D01*
X3298952Y8923274D01*
X3293618Y8912860D01*
X3288538Y8907779D01*
X3272790Y8902700D01*
X3226054Y8902700D02*
G01*
X3272790Y8902700D01*
X3288538Y8897365D01*
X3293618Y8892286D01*
X3298952Y8881871D01*
X3298952Y8866124D01*
X3293618Y8855710D01*
X3288538Y8850629D01*
X3272790Y8845550D01*
X3226054Y8845550D01*
X3364229Y8954515D02*
G01*
X3354070Y8949436D01*
X3343656Y8939021D01*
X3338322Y8928608D01*
X3333241Y8912860D01*
X3333241Y8886952D01*
X3338322Y8871458D01*
X3343656Y8861044D01*
X3354070Y8850629D01*
X3364229Y8845550D01*
X3385058Y8845550D01*
X3395472Y8850629D01*
X3405886Y8861044D01*
X3411220Y8871458D01*
X3416300Y8886952D01*
X3416300Y8912860D01*
X3411220Y8928608D01*
X3405886Y8939021D01*
X3395472Y8949436D01*
X3385058Y8954515D01*
X3364229Y8954515D01*
X3492245Y8954515D02*
G01*
X3450590Y8845550D01*
X3492245Y8954515D02*
G01*
X3533647Y8845550D01*
X3466084Y8881871D02*
G01*
X3518154Y8881871D01*
X3567938Y8954515D02*
G01*
X3567938Y8845550D01*
X3567938Y8954515D02*
G01*
X3614674Y8954515D01*
X3630422Y8949436D01*
X3635502Y8944102D01*
X3640836Y8933687D01*
X3640836Y8923274D01*
X3635502Y8912860D01*
X3630422Y8907779D01*
X3614674Y8902700D01*
X3567938Y8902700D01*
X3604259Y8902700D02*
G01*
X3640836Y8845550D01*
X3675125Y8954515D02*
G01*
X3675125Y8845550D01*
X3675125Y8954515D02*
G01*
X3711447Y8954515D01*
X3726941Y8949436D01*
X3737356Y8939021D01*
X3742690Y8928608D01*
X3747770Y8912860D01*
X3747770Y8886952D01*
X3742690Y8871458D01*
X3737356Y8861044D01*
X3726941Y8850629D01*
X3711447Y8845550D01*
X3675125Y8845550D01*
X5588000Y8395715D02*
G01*
X5588000Y8317737D01*
X5593079Y8302244D01*
X5603493Y8291829D01*
X5619241Y8286750D01*
X5629656Y8286750D01*
X5645150Y8291829D01*
X5655563Y8302244D01*
X5660643Y8317737D01*
X5660643Y8395715D01*
X5721095Y8395715D02*
G01*
X5705347Y8390636D01*
X5700268Y8380221D01*
X5700268Y8369808D01*
X5705347Y8359394D01*
X5715761Y8354060D01*
X5736590Y8348979D01*
X5752084Y8343900D01*
X5762497Y8333486D01*
X5767831Y8323071D01*
X5767831Y8307323D01*
X5762497Y8296910D01*
X5757418Y8291829D01*
X5741670Y8286750D01*
X5721095Y8286750D01*
X5705347Y8291829D01*
X5700268Y8296910D01*
X5694934Y8307323D01*
X5694934Y8323071D01*
X5700268Y8333486D01*
X5710681Y8343900D01*
X5726175Y8348979D01*
X5747004Y8354060D01*
X5757418Y8359394D01*
X5762497Y8369808D01*
X5762497Y8380221D01*
X5757418Y8390636D01*
X5741670Y8395715D01*
X5721095Y8395715D01*
G36*
X4180230Y6340805D02*
G01*
X4180230Y6310325D01*
X4202226Y6310325D01*
X4202226Y6340805D01*
G37*
G36*
X4268673Y6344818D02*
G01*
X4268673Y6314338D01*
X4290669Y6314338D01*
X4290669Y6344818D01*
G37*
G36*
X3043123Y6491274D02*
G01*
X3043123Y6460794D01*
X3065119Y6460794D01*
X3065119Y6491274D01*
G37*
G36*
X2954680Y6487261D02*
G01*
X2954680Y6456781D01*
X2976676Y6456781D01*
X2976676Y6487261D01*
G37*
G36*
X4881422Y6491274D02*
G01*
X4881422Y6460794D01*
X4903419Y6460794D01*
X4903419Y6491274D01*
G37*
G36*
X4792980Y6487261D02*
G01*
X4792980Y6456781D01*
X4814976Y6456781D01*
X4814976Y6487261D01*
G37*
G36*
X5405780Y6340805D02*
G01*
X5405780Y6310325D01*
X5427776Y6310325D01*
X5427776Y6340805D01*
G37*
G36*
X5494223Y6344818D02*
G01*
X5494223Y6314338D01*
X5516219Y6314338D01*
X5516219Y6344818D01*
G37*
G36*
X3567480Y6340805D02*
G01*
X3567480Y6310325D01*
X3589477Y6310325D01*
X3589477Y6340805D01*
G37*
G36*
X3655923Y6344818D02*
G01*
X3655923Y6314338D01*
X3677920Y6314338D01*
X3677920Y6344818D01*
G37*
G36*
X1888032Y7404252D02*
G01*
X1888032Y7358481D01*
X1935784Y7358481D01*
X1935784Y7404252D01*
G37*
G36*
X2128266Y7405471D02*
G01*
X2128266Y7359802D01*
X2175967Y7359802D01*
X2175967Y7405471D01*
G37*
G36*
X2795676Y6062726D02*
G01*
X2794711Y5990742D01*
X2820670Y6026759D01*
G37*
G36*
X1525676Y6062726D02*
G01*
X1524711Y5990742D01*
X1550670Y6026759D01*
G37*
G36*
X4027576Y6062726D02*
G01*
X4026611Y5990742D01*
X4052570Y6026759D01*
G37*
G36*
X5284876Y6062726D02*
G01*
X5283911Y5990742D01*
X5309870Y6026759D01*
G37*
G36*
X6491376Y6062726D02*
G01*
X6490411Y5990742D01*
X6516370Y6026759D01*
G37*
G36*
X6604000Y6592570D02*
G01*
X6567982Y6567576D01*
X6640017Y6566611D01*
G37*
D12*
X5117132Y5837199D02*
G01*
X6267140Y5837199D01*
X6267140Y5837199D02*
G01*
X6267140Y5137200D01*
X5117132Y5837199D02*
G01*
X5117132Y5137200D01*
X5117132Y5137200D02*
G01*
X6267140Y5137200D01*
X6369352Y5837199D02*
G01*
X7519360Y5837199D01*
X7519360Y5837199D02*
G01*
X7519360Y5137200D01*
X6369352Y5837199D02*
G01*
X6369352Y5137200D01*
X6369352Y5137200D02*
G01*
X7519360Y5137200D01*
X3864912Y5837199D02*
G01*
X5014920Y5837199D01*
X5014920Y5837199D02*
G01*
X5014920Y5137200D01*
X3864912Y5837199D02*
G01*
X3864912Y5137200D01*
X3864912Y5137200D02*
G01*
X5014920Y5137200D01*
X1360472Y5837199D02*
G01*
X2510480Y5837199D01*
X2510480Y5837199D02*
G01*
X2510480Y5137200D01*
X1360472Y5837199D02*
G01*
X1360472Y5137200D01*
X1360472Y5137200D02*
G01*
X2510480Y5137200D01*
X6735800Y6409992D02*
G01*
X6735800Y7560000D01*
X6735800Y7560000D02*
G01*
X7435799Y7560000D01*
X6735800Y6409992D02*
G01*
X7435799Y6409992D01*
X7435799Y6409992D02*
G01*
X7435799Y7560000D01*
X2612692Y5837199D02*
G01*
X3762700Y5837199D01*
X3762700Y5837199D02*
G01*
X3762700Y5137200D01*
X2612692Y5837199D02*
G01*
X2612692Y5137200D01*
X2612692Y5137200D02*
G01*
X3762700Y5137200D01*
D13*
X4271769Y6309400D02*
G01*
X4283054Y6309400D01*
X4283054Y6333223D01*
X4187847Y6333182D02*
G01*
X4187847Y6309360D01*
X4199907Y6309360D01*
D11*
X4187847Y6333182D02*
G01*
X4187847Y6468417D01*
X4283087Y6333182D02*
G01*
X4283087Y6468417D01*
D13*
X2973598Y6492199D02*
G01*
X2962313Y6492199D01*
X2962313Y6468376D01*
X3057519Y6468417D02*
G01*
X3057519Y6492239D01*
X3045459Y6492239D01*
D11*
X3057519Y6468417D02*
G01*
X3057519Y6333182D01*
X2962280Y6468417D02*
G01*
X2962280Y6333182D01*
D13*
X4811895Y6492199D02*
G01*
X4800610Y6492199D01*
X4800610Y6468376D01*
X4895816Y6468417D02*
G01*
X4895816Y6492239D01*
X4883757Y6492239D01*
D11*
X4895816Y6468417D02*
G01*
X4895816Y6333182D01*
X4800577Y6468417D02*
G01*
X4800577Y6333182D01*
D13*
X5497301Y6309400D02*
G01*
X5508586Y6309400D01*
X5508586Y6333223D01*
X5413380Y6333182D02*
G01*
X5413380Y6309360D01*
X5425440Y6309360D01*
D11*
X5413380Y6333182D02*
G01*
X5413380Y6468417D01*
X5508619Y6333182D02*
G01*
X5508619Y6468417D01*
D13*
X3659004Y6309400D02*
G01*
X3670289Y6309400D01*
X3670289Y6333223D01*
X3575083Y6333182D02*
G01*
X3575083Y6309360D01*
X3587142Y6309360D01*
D11*
X3575083Y6333182D02*
G01*
X3575083Y6468417D01*
X3670322Y6333182D02*
G01*
X3670322Y6468417D01*
X1895629Y7511491D02*
G01*
X2168370Y7511491D01*
X2168372Y7369649D02*
G01*
X2168372Y7836484D01*
X1895632Y7367399D02*
G01*
X1897379Y7835887D01*
X2168372Y7835889D02*
G01*
X2133323Y7835889D01*
X1905002Y7835889D02*
G01*
X1940052Y7835889D01*
D14*
X2843700Y6099738D02*
G01*
X2958698Y6099738D01*
X2958698Y5954740D01*
X2838698Y5954740D01*
X2776700Y5953739D02*
G01*
X2652699Y5953739D01*
X2652699Y6098738D01*
X2776700Y6098738D01*
X2958698Y6099738D02*
G01*
X2961700Y6099738D01*
X2981700Y6079738D01*
X2981700Y5977740D01*
X2978698Y5974740D01*
X2958698Y5954740D01*
X1573700Y6099738D02*
G01*
X1688698Y6099738D01*
X1688698Y5954740D01*
X1568698Y5954740D01*
X1506700Y5953739D02*
G01*
X1382699Y5953739D01*
X1382699Y6098738D01*
X1506700Y6098738D01*
X1688698Y6099738D02*
G01*
X1691700Y6099738D01*
X1711700Y6079738D01*
X1711700Y5977740D01*
X1708698Y5974740D01*
X1688698Y5954740D01*
X4075600Y6099738D02*
G01*
X4190598Y6099738D01*
X4190598Y5954740D01*
X4070598Y5954740D01*
X4008600Y5953739D02*
G01*
X3884599Y5953739D01*
X3884599Y6098738D01*
X4008600Y6098738D01*
X4190598Y6099738D02*
G01*
X4193600Y6099738D01*
X4213600Y6079738D01*
X4213600Y5977740D01*
X4210598Y5974740D01*
X4190598Y5954740D01*
X5332900Y6099738D02*
G01*
X5447898Y6099738D01*
X5447898Y5954740D01*
X5327898Y5954740D01*
X5265900Y5953739D02*
G01*
X5141899Y5953739D01*
X5141899Y6098738D01*
X5265900Y6098738D01*
X5447898Y6099738D02*
G01*
X5450900Y6099738D01*
X5470900Y6079738D01*
X5470900Y5977740D01*
X5467898Y5974740D01*
X5447898Y5954740D01*
X6539400Y6099738D02*
G01*
X6654398Y6099738D01*
X6654398Y5954740D01*
X6534398Y5954740D01*
X6472400Y5953739D02*
G01*
X6348399Y5953739D01*
X6348399Y6098738D01*
X6472400Y6098738D01*
X6654398Y6099738D02*
G01*
X6657400Y6099738D01*
X6677400Y6079738D01*
X6677400Y5977740D01*
X6674398Y5974740D01*
X6654398Y5954740D01*
X6531000Y6615600D02*
G01*
X6531000Y6730598D01*
X6675998Y6730598D01*
X6675998Y6610598D01*
X6676999Y6548600D02*
G01*
X6676999Y6424599D01*
X6532001Y6424599D01*
X6532001Y6548600D01*
X6531000Y6730598D02*
G01*
X6531000Y6733600D01*
X6551000Y6753600D01*
X6652999Y6753600D01*
X6655998Y6750598D01*
X6675998Y6730598D01*
D12*
X2560429Y8164001D02*
G01*
X2560429Y8534001D01*
X2487696Y8534001D01*
X2487696Y8594001D01*
X2487696Y8604001D01*
X2577696Y8604001D01*
X2577696Y8704000D01*
X2577696Y8704000D02*
G01*
X2247696Y8704000D01*
X2247696Y8644001D01*
X2247696Y8604001D01*
X2337696Y8604001D01*
X2337696Y8534001D01*
X2257696Y8534001D01*
X2257696Y8164001D01*
X2560429Y8164001D01*
X2210442Y8164001D02*
G01*
X2210442Y8534001D01*
X2137709Y8534001D01*
X2137709Y8594001D01*
X2137709Y8604001D01*
X2227709Y8604001D01*
X2227709Y8704000D01*
X2227709Y8704000D02*
G01*
X1897710Y8704000D01*
X1897710Y8644001D01*
X1897710Y8604001D01*
X1987710Y8604001D01*
X1987710Y8534001D01*
X1907710Y8534001D01*
X1907710Y8164001D01*
X2210442Y8164001D01*
X2635201Y8082000D02*
G01*
X1835200Y8082000D01*
X1835200Y8082000D02*
G01*
X1835200Y8781999D01*
X2635201Y8082000D02*
G01*
X2635201Y8781999D01*
X2635201Y8781999D02*
G01*
X1835200Y8781999D01*
D11*
X6164021Y6385539D02*
G01*
X6259908Y6385539D01*
X6259908Y6517660D01*
X6164021Y6517660D01*
X6078778Y6385539D02*
G01*
X5982891Y6385539D01*
X5982891Y6517660D01*
X6078778Y6517660D01*
X3596667Y7726121D02*
G01*
X3596667Y7822008D01*
X3464547Y7822008D01*
X3464547Y7726121D01*
X3596667Y7640878D02*
G01*
X3596667Y7544991D01*
X3464547Y7544991D01*
X3464547Y7640878D01*
X3247407Y7726121D02*
G01*
X3247407Y7822008D01*
X3115287Y7822008D01*
X3115287Y7726121D01*
X3247407Y7640878D02*
G01*
X3247407Y7544991D01*
X3115287Y7544991D01*
X3115287Y7640878D01*
X3945912Y7726121D02*
G01*
X3945912Y7822008D01*
X3813792Y7822008D01*
X3813792Y7726121D01*
X3945912Y7640878D02*
G01*
X3945912Y7544991D01*
X3813792Y7544991D01*
X3813792Y7640878D01*
X4644407Y7726121D02*
G01*
X4644407Y7822008D01*
X4512287Y7822008D01*
X4512287Y7726121D01*
X4644407Y7640878D02*
G01*
X4644407Y7544991D01*
X4512287Y7544991D01*
X4512287Y7640878D01*
X4295160Y7726121D02*
G01*
X4295160Y7822008D01*
X4163039Y7822008D01*
X4163039Y7726121D01*
X4295160Y7640878D02*
G01*
X4295160Y7544991D01*
X4163039Y7544991D01*
X4163039Y7640878D01*
X3411778Y6085860D02*
G01*
X3315891Y6085860D01*
X3315891Y5953739D01*
X3411778Y5953739D01*
X3497021Y6085860D02*
G01*
X3592908Y6085860D01*
X3592908Y5953739D01*
X3497021Y5953739D01*
X2167178Y6085860D02*
G01*
X2071291Y6085860D01*
X2071291Y5953739D01*
X2167178Y5953739D01*
X2252421Y6085860D02*
G01*
X2348308Y6085860D01*
X2348308Y5953739D01*
X2252421Y5953739D01*
X4681778Y6085860D02*
G01*
X4585891Y6085860D01*
X4585891Y5953739D01*
X4681778Y5953739D01*
X4767021Y6085860D02*
G01*
X4862908Y6085860D01*
X4862908Y5953739D01*
X4767021Y5953739D01*
X5926378Y6085860D02*
G01*
X5830491Y6085860D01*
X5830491Y5953739D01*
X5926378Y5953739D01*
X6011621Y6085860D02*
G01*
X6107508Y6085860D01*
X6107508Y5953739D01*
X6011621Y5953739D01*
X7170978Y6085860D02*
G01*
X7075091Y6085860D01*
X7075091Y5953739D01*
X7170978Y5953739D01*
X7256221Y6085860D02*
G01*
X7352108Y6085860D01*
X7352108Y5953739D01*
X7256221Y5953739D01*
X6670060Y7332421D02*
G01*
X6670060Y7428308D01*
X6537939Y7428308D01*
X6537939Y7332421D01*
X6670060Y7247178D02*
G01*
X6670060Y7151291D01*
X6537939Y7151291D01*
X6537939Y7247178D01*
D12*
X2683052Y6760184D02*
G01*
X2683052Y7200188D01*
X3103041Y7200188D01*
X3103041Y6760184D01*
X2683052Y6760184D01*
X3289124Y6760184D02*
G01*
X3289124Y7200188D01*
X3709113Y7200188D01*
X3709113Y6760184D01*
X3289124Y6760184D01*
X3895211Y6760184D02*
G01*
X3895211Y7200188D01*
X4315200Y7200188D01*
X4315200Y6760184D01*
X3895211Y6760184D01*
X4501296Y6760184D02*
G01*
X4501296Y7200188D01*
X4921285Y7200188D01*
X4921285Y6760184D01*
X4501296Y6760184D01*
X5123992Y6765010D02*
G01*
X5123992Y7205014D01*
X5543981Y7205014D01*
X5543981Y6765010D01*
X5123992Y6765010D01*
X6128207Y7217689D02*
G01*
X6128207Y6777685D01*
X5708218Y6777685D01*
X5708218Y7217689D01*
X6128207Y7217689D01*
X3530600Y8089900D02*
G01*
X3530600Y7912100D01*
X3535679Y7919720D01*
X3530600Y8089900D02*
G01*
X4038600Y8089900D01*
X4038600Y7914639D01*
X4038600Y7919720D01*
X2769590Y8796604D02*
G01*
X4799584Y8796604D01*
X4799584Y7916595D01*
X2769590Y7916595D01*
X2769590Y8796604D01*
D11*
X5110779Y7721859D02*
G01*
X5110779Y8026140D01*
X6116020Y8026140D01*
X6116020Y7721859D01*
X5110779Y7721859D01*
D15*
G75*
G01*
X2740660Y6815074D02*
G03*
X2740660Y6815328I20000J127D01*
G75*
G01*
X3346732Y6815074D02*
G03*
X3346732Y6815328I19999J127D01*
G75*
G01*
X3952819Y6815074D02*
G03*
X3952819Y6815328I20000J127D01*
G75*
G01*
X4558904Y6815074D02*
G03*
X4558904Y6815328I19999J127D01*
G75*
G01*
X5181600Y6819900D02*
G03*
X5181600Y6820154I20000J127D01*
G75*
G01*
X6070600Y7162800D02*
G03*
X6070600Y7162546I-20000J-127D01*
D16*
G75*
G01
X5183911Y7797089D02*
G03X5183911Y7797089I-15011J0D01*
G75*
G01
X5107711Y7607300D02*
G03X5107711Y7607300I-15011J0D01*
M02*
