G04 Layer: TopLayer*
G04 EasyEDA v6.5.29, 2023-07-15 16:34:33*
G04 ff16eedd4ae041ca9ad6f45f5caac9ae,10*
G04 Gerber Generator version 0.2*
G04 Scale: 100 percent, Rotated: No, Reflected: No *
G04 Dimensions in millimeters *
G04 leading zeros omitted , absolute positions ,4 integer and 5 decimal *
%FSLAX45Y45*%
%MOMM*%

%AMMACRO1*21,1,$1,$2,0,0,$3*%
%ADD10C,0.2540*%
%ADD11C,0.6000*%
%ADD12MACRO1,0.36X0.93X0.0000*%
%ADD13MACRO1,1.62X2.0464X0.0000*%
%ADD14R,0.8999X1.0000*%
%ADD15R,1.0000X0.8999*%
%ADD16MACRO1,0.864X0.8065X90.0000*%
%ADD17MACRO1,0.864X0.8065X0.0000*%
%ADD18R,0.8640X0.8065*%
%ADD19MACRO1,0.864X0.8065X-90.0000*%
%ADD20R,0.9500X1.7000*%
%ADD21O,0.6020054X1.9709892*%
%ADD22C,2.5000*%
%ADD23C,2.2000*%
%ADD24C,1.5240*%
%ADD25C,0.6100*%
%ADD26C,0.0154*%

%LPD*%
G36*
X1519885Y4572508D02*
G01*
X1497279Y4573422D01*
X1475943Y4575962D01*
X1454810Y4580178D01*
X1434134Y4586071D01*
X1413967Y4593539D01*
X1394409Y4602581D01*
X1375664Y4613148D01*
X1357782Y4625086D01*
X1340916Y4638446D01*
X1325118Y4653076D01*
X1310538Y4668926D01*
X1297228Y4685842D01*
X1285341Y4703724D01*
X1274826Y4722520D01*
X1265834Y4742078D01*
X1258417Y4762296D01*
X1252626Y4783023D01*
X1248460Y4804105D01*
X1245971Y4825492D01*
X1245108Y4847285D01*
X1245108Y8703614D01*
X1246022Y8726170D01*
X1248562Y8747556D01*
X1252829Y8768638D01*
X1258671Y8789365D01*
X1266139Y8809532D01*
X1275181Y8829040D01*
X1285748Y8847836D01*
X1297736Y8865666D01*
X1311046Y8882583D01*
X1325676Y8898331D01*
X1341526Y8912910D01*
X1358442Y8926220D01*
X1376324Y8938158D01*
X1395120Y8948674D01*
X1414678Y8957614D01*
X1434896Y8965031D01*
X1455623Y8970873D01*
X1476705Y8975039D01*
X1498092Y8977528D01*
X1519885Y8978392D01*
X7364984Y8978392D01*
X7387590Y8977477D01*
X7408925Y8974886D01*
X7430058Y8970670D01*
X7450734Y8964777D01*
X7470952Y8957310D01*
X7490459Y8948267D01*
X7509205Y8937752D01*
X7527086Y8925763D01*
X7543952Y8912402D01*
X7559751Y8897772D01*
X7574330Y8881973D01*
X7587640Y8865057D01*
X7599578Y8847124D01*
X7610043Y8828328D01*
X7619034Y8808770D01*
X7626451Y8788603D01*
X7632242Y8767876D01*
X7636408Y8746744D01*
X7638948Y8725408D01*
X7639761Y8703614D01*
X7639761Y4847285D01*
X7638846Y4824679D01*
X7636306Y4803343D01*
X7632090Y4782210D01*
X7626197Y4761534D01*
X7618730Y4741367D01*
X7609687Y4721809D01*
X7599172Y4703064D01*
X7587183Y4685182D01*
X7573822Y4668316D01*
X7559192Y4652518D01*
X7543342Y4637938D01*
X7526426Y4624628D01*
X7508544Y4612690D01*
X7489748Y4602226D01*
X7470190Y4593234D01*
X7449972Y4585817D01*
X7429296Y4580026D01*
X7408164Y4575860D01*
X7386777Y4573371D01*
X7364984Y4572508D01*
G37*

%LPC*%
G36*
X3184804Y8528050D02*
G01*
X3232150Y8528050D01*
X3232150Y8575395D01*
X3221685Y8569655D01*
X3210712Y8561578D01*
X3200908Y8552078D01*
X3192424Y8541359D01*
X3185464Y8529624D01*
G37*
G36*
X1489202Y4614926D02*
G01*
X1507998Y4614926D01*
X1526743Y4616856D01*
X1545183Y4620615D01*
X1563166Y4626254D01*
X1580489Y4633722D01*
X1596948Y4642866D01*
X1612392Y4653584D01*
X1626666Y4665878D01*
X1639671Y4679492D01*
X1651152Y4694428D01*
X1661160Y4710379D01*
X1669440Y4727295D01*
X1675993Y4744974D01*
X1680667Y4763160D01*
X1683562Y4781804D01*
X1684477Y4800600D01*
X1683562Y4819396D01*
X1680667Y4838039D01*
X1675993Y4856226D01*
X1669440Y4873904D01*
X1661160Y4890820D01*
X1651152Y4906772D01*
X1639671Y4921707D01*
X1626666Y4935321D01*
X1612392Y4947615D01*
X1596948Y4958334D01*
X1580489Y4967478D01*
X1563166Y4974945D01*
X1545183Y4980584D01*
X1526743Y4984343D01*
X1507998Y4986274D01*
X1489202Y4986274D01*
X1470456Y4984343D01*
X1452016Y4980584D01*
X1434033Y4974945D01*
X1416710Y4967478D01*
X1400251Y4958334D01*
X1384808Y4947615D01*
X1370533Y4935321D01*
X1357528Y4921707D01*
X1346047Y4906772D01*
X1336040Y4890820D01*
X1327759Y4873904D01*
X1321206Y4856226D01*
X1316532Y4838039D01*
X1313637Y4819396D01*
X1312722Y4800600D01*
X1313637Y4781804D01*
X1316532Y4763160D01*
X1321206Y4744974D01*
X1327759Y4727295D01*
X1336040Y4710379D01*
X1346047Y4694428D01*
X1357528Y4679492D01*
X1370533Y4665878D01*
X1384808Y4653584D01*
X1400251Y4642866D01*
X1416710Y4633722D01*
X1434033Y4626254D01*
X1452016Y4620615D01*
X1470456Y4616856D01*
G37*
G36*
X3707282Y5329529D02*
G01*
X5872581Y5329529D01*
X5880608Y5330342D01*
X5887821Y5332526D01*
X5894527Y5336082D01*
X5900724Y5341213D01*
X5961024Y5401513D01*
X5964682Y5403850D01*
X5969000Y5404459D01*
X5973114Y5403189D01*
X5976670Y5401259D01*
X5992317Y5394756D01*
X6008573Y5390083D01*
X6025235Y5387238D01*
X6042152Y5386324D01*
X6059017Y5387238D01*
X6075730Y5390083D01*
X6091986Y5394756D01*
X6107582Y5401259D01*
X6111138Y5403189D01*
X6115304Y5404459D01*
X6119622Y5403850D01*
X6123228Y5401513D01*
X6172250Y5352491D01*
X6178499Y5347411D01*
X6185154Y5343804D01*
X6192367Y5341620D01*
X6200394Y5340858D01*
X7136130Y5340858D01*
X7144156Y5341620D01*
X7151370Y5343804D01*
X7158024Y5347411D01*
X7164273Y5352491D01*
X7213244Y5401513D01*
X7216902Y5403850D01*
X7221220Y5404459D01*
X7225334Y5403189D01*
X7228890Y5401259D01*
X7244537Y5394756D01*
X7260793Y5390083D01*
X7277455Y5387238D01*
X7294372Y5386324D01*
X7311237Y5387238D01*
X7327950Y5390083D01*
X7344206Y5394756D01*
X7359802Y5401259D01*
X7374636Y5409438D01*
X7388453Y5419242D01*
X7401052Y5430520D01*
X7412329Y5443118D01*
X7422134Y5456936D01*
X7430312Y5471718D01*
X7436764Y5487365D01*
X7441438Y5503621D01*
X7444282Y5520283D01*
X7445248Y5537200D01*
X7444282Y5554116D01*
X7441438Y5570778D01*
X7436764Y5587034D01*
X7430312Y5602681D01*
X7422134Y5617464D01*
X7412329Y5631281D01*
X7401052Y5643880D01*
X7388453Y5655157D01*
X7374636Y5664962D01*
X7359802Y5673140D01*
X7344206Y5679643D01*
X7334910Y5682284D01*
X7331100Y5684367D01*
X7328458Y5687822D01*
X7327544Y5692089D01*
X7327544Y5941568D01*
X7328408Y5945632D01*
X7330795Y5949035D01*
X7334351Y5951169D01*
X7340447Y5953302D01*
X7345375Y5956401D01*
X7349439Y5960465D01*
X7352538Y5965393D01*
X7354468Y5970828D01*
X7355179Y5977178D01*
X7355179Y6062421D01*
X7354468Y6068771D01*
X7352538Y6074206D01*
X7349439Y6079134D01*
X7345375Y6083198D01*
X7340447Y6086297D01*
X7335012Y6088176D01*
X7328662Y6088888D01*
X7269480Y6088888D01*
X7265568Y6089700D01*
X7262266Y6091885D01*
X7260081Y6095187D01*
X7259320Y6099048D01*
X7259320Y6213703D01*
X7258507Y6221730D01*
X7256322Y6228943D01*
X7252766Y6235598D01*
X7247636Y6241846D01*
X7095490Y6393992D01*
X7093254Y6397294D01*
X7092492Y6401206D01*
X7093254Y6405067D01*
X7095490Y6408369D01*
X7222896Y6535775D01*
X7228027Y6542024D01*
X7231583Y6548678D01*
X7233767Y6555943D01*
X7234580Y6563918D01*
X7234580Y6713728D01*
X7233767Y6721754D01*
X7231583Y6728968D01*
X7228027Y6735622D01*
X7222896Y6741871D01*
X7125462Y6839305D01*
X7119670Y6844030D01*
X7117283Y6846874D01*
X7116064Y6850380D01*
X7116216Y6854088D01*
X7117638Y6857542D01*
X7120229Y6860184D01*
X7129881Y6867042D01*
X7142480Y6878269D01*
X7153757Y6890918D01*
X7163562Y6904685D01*
X7171740Y6919518D01*
X7178243Y6935165D01*
X7182916Y6951421D01*
X7185761Y6968083D01*
X7186675Y6985000D01*
X7185761Y7001865D01*
X7182916Y7018578D01*
X7178243Y7034834D01*
X7171740Y7050481D01*
X7163562Y7065264D01*
X7153757Y7079081D01*
X7142480Y7091680D01*
X7129881Y7102957D01*
X7116064Y7112762D01*
X7101281Y7120940D01*
X7085634Y7127392D01*
X7069378Y7132116D01*
X7052716Y7134910D01*
X7035800Y7135875D01*
X7018883Y7134910D01*
X7002221Y7132116D01*
X6985965Y7127392D01*
X6970318Y7120940D01*
X6966813Y7118959D01*
X6962648Y7117740D01*
X6958330Y7118350D01*
X6954672Y7120686D01*
X6880453Y7194905D01*
X6878269Y7198207D01*
X6877507Y7202119D01*
X6877507Y7272426D01*
X6878269Y7276338D01*
X6880453Y7279640D01*
X6883755Y7281824D01*
X6887667Y7282586D01*
X6891528Y7281824D01*
X6894830Y7279640D01*
X6897014Y7276338D01*
X6899859Y7269530D01*
X6908038Y7254697D01*
X6917842Y7240930D01*
X6929120Y7228281D01*
X6941718Y7217003D01*
X6955536Y7207250D01*
X6970318Y7199020D01*
X6985965Y7192568D01*
X7002221Y7187895D01*
X7018883Y7185050D01*
X7035800Y7184085D01*
X7052716Y7185050D01*
X7069378Y7187895D01*
X7085634Y7192568D01*
X7101281Y7199020D01*
X7116064Y7207250D01*
X7129881Y7217003D01*
X7142480Y7228281D01*
X7153757Y7240930D01*
X7163562Y7254697D01*
X7171740Y7269530D01*
X7178243Y7285177D01*
X7182916Y7301433D01*
X7185761Y7318095D01*
X7186675Y7335012D01*
X7185761Y7351877D01*
X7182916Y7368590D01*
X7178243Y7384846D01*
X7171740Y7400442D01*
X7163562Y7415275D01*
X7153757Y7429093D01*
X7142480Y7441692D01*
X7129881Y7452969D01*
X7116064Y7462774D01*
X7101281Y7470952D01*
X7085634Y7477404D01*
X7069378Y7482078D01*
X7052716Y7484922D01*
X7035800Y7485888D01*
X7018883Y7484922D01*
X7002221Y7482078D01*
X6985965Y7477404D01*
X6970318Y7470952D01*
X6955536Y7462774D01*
X6941718Y7452969D01*
X6929120Y7441692D01*
X6917842Y7429093D01*
X6908038Y7415275D01*
X6899859Y7400442D01*
X6897014Y7393635D01*
X6894830Y7390333D01*
X6891528Y7388148D01*
X6887667Y7387386D01*
X6883755Y7388148D01*
X6880453Y7390333D01*
X6878269Y7393635D01*
X6877507Y7397546D01*
X6877507Y7526883D01*
X6876694Y7534909D01*
X6874509Y7542123D01*
X6870953Y7548778D01*
X6865823Y7555026D01*
X6107633Y8313216D01*
X6101435Y8318296D01*
X6094730Y8321852D01*
X6087516Y8324088D01*
X6079490Y8324850D01*
X5284368Y8324850D01*
X5276342Y8324088D01*
X5269128Y8321852D01*
X5262473Y8318296D01*
X5256225Y8313216D01*
X5209184Y8266125D01*
X5205730Y8263890D01*
X5201666Y8263128D01*
X5197703Y8264093D01*
X5188051Y8268614D01*
X5178602Y8271103D01*
X5168900Y8271967D01*
X5159197Y8271103D01*
X5149748Y8268614D01*
X5140909Y8264448D01*
X5132933Y8258860D01*
X5126024Y8251952D01*
X5120436Y8243976D01*
X5116322Y8235137D01*
X5113782Y8225739D01*
X5112867Y8215579D01*
X5112867Y8079536D01*
X5113782Y8069376D01*
X5116322Y8059978D01*
X5120436Y8051139D01*
X5122722Y8047837D01*
X5124399Y8043773D01*
X5124196Y8039404D01*
X5122164Y8035493D01*
X5118658Y8032800D01*
X5114391Y8031886D01*
X4988966Y8031886D01*
X4985105Y8032648D01*
X4981803Y8034832D01*
X4618685Y8397951D01*
X4612436Y8403082D01*
X4605782Y8406638D01*
X4598568Y8408822D01*
X4590542Y8409635D01*
X4384649Y8409635D01*
X4380382Y8410549D01*
X4376877Y8413242D01*
X4374845Y8417102D01*
X4374642Y8421471D01*
X4376267Y8425535D01*
X4380433Y8431580D01*
X4386580Y8443722D01*
X4391050Y8456625D01*
X4393793Y8469985D01*
X4394708Y8483600D01*
X4393793Y8497214D01*
X4391050Y8510574D01*
X4386580Y8523478D01*
X4380433Y8535619D01*
X4372711Y8546846D01*
X4363567Y8557006D01*
X4353153Y8565794D01*
X4341672Y8573109D01*
X4329277Y8578850D01*
X4316272Y8582914D01*
X4302810Y8585149D01*
X4289196Y8585606D01*
X4275632Y8584285D01*
X4262374Y8581085D01*
X4249623Y8576208D01*
X4237685Y8569655D01*
X4226712Y8561578D01*
X4216908Y8552078D01*
X4208424Y8541359D01*
X4201464Y8529624D01*
X4196181Y8517077D01*
X4192574Y8503920D01*
X4190746Y8490407D01*
X4190746Y8476792D01*
X4192574Y8463280D01*
X4196181Y8450122D01*
X4201464Y8437575D01*
X4208983Y8424976D01*
X4210354Y8420963D01*
X4209948Y8416696D01*
X4207865Y8413038D01*
X4204411Y8410498D01*
X4200245Y8409635D01*
X4171391Y8409635D01*
X4167530Y8410397D01*
X4164228Y8412581D01*
X4137202Y8439607D01*
X4135069Y8442706D01*
X4134256Y8446363D01*
X4134815Y8450122D01*
X4137050Y8456625D01*
X4139793Y8469985D01*
X4140708Y8483600D01*
X4139793Y8497214D01*
X4137050Y8510574D01*
X4132579Y8523478D01*
X4126433Y8535619D01*
X4118711Y8546846D01*
X4109567Y8557006D01*
X4099153Y8565794D01*
X4087672Y8573109D01*
X4075277Y8578850D01*
X4062272Y8582914D01*
X4048810Y8585149D01*
X4035196Y8585606D01*
X4021632Y8584285D01*
X4008374Y8581085D01*
X3995623Y8576208D01*
X3983685Y8569655D01*
X3972712Y8561578D01*
X3962908Y8552078D01*
X3954424Y8541359D01*
X3947464Y8529624D01*
X3942181Y8517077D01*
X3938574Y8503920D01*
X3936746Y8490407D01*
X3936746Y8476792D01*
X3938574Y8463280D01*
X3942181Y8450122D01*
X3947464Y8437575D01*
X3954424Y8425840D01*
X3962908Y8415121D01*
X3972712Y8405622D01*
X3983685Y8397544D01*
X3995623Y8390991D01*
X4008374Y8386114D01*
X4021632Y8382914D01*
X4035196Y8381593D01*
X4048810Y8382050D01*
X4062272Y8384286D01*
X4072483Y8387486D01*
X4076090Y8387892D01*
X4079646Y8387029D01*
X4082643Y8384946D01*
X4123537Y8344052D01*
X4129786Y8338972D01*
X4136440Y8335365D01*
X4143654Y8333181D01*
X4151680Y8332419D01*
X4229506Y8332419D01*
X4233621Y8331504D01*
X4237024Y8329066D01*
X4239158Y8325408D01*
X4239615Y8321243D01*
X4238294Y8317230D01*
X4235500Y8314080D01*
X4226712Y8307578D01*
X4216908Y8298078D01*
X4208424Y8287359D01*
X4201464Y8275624D01*
X4196181Y8263077D01*
X4192574Y8249920D01*
X4190746Y8236407D01*
X4190746Y8222792D01*
X4192574Y8209280D01*
X4196181Y8196122D01*
X4201464Y8183575D01*
X4208424Y8171840D01*
X4216908Y8161121D01*
X4226712Y8151622D01*
X4237685Y8143544D01*
X4249623Y8136991D01*
X4262374Y8132114D01*
X4275632Y8128914D01*
X4289196Y8127593D01*
X4302810Y8128050D01*
X4316272Y8130286D01*
X4329277Y8134350D01*
X4341672Y8140090D01*
X4353153Y8147405D01*
X4363567Y8156194D01*
X4372711Y8166353D01*
X4380433Y8177580D01*
X4386580Y8189722D01*
X4391050Y8202625D01*
X4393793Y8215985D01*
X4394708Y8229600D01*
X4393793Y8243214D01*
X4391050Y8256574D01*
X4386580Y8269478D01*
X4380433Y8281619D01*
X4372711Y8292846D01*
X4363567Y8303006D01*
X4353153Y8311794D01*
X4350207Y8313674D01*
X4347108Y8316722D01*
X4345584Y8320786D01*
X4345889Y8325103D01*
X4347972Y8328863D01*
X4351426Y8331504D01*
X4355642Y8332419D01*
X4570831Y8332419D01*
X4574692Y8331606D01*
X4577994Y8329422D01*
X4941112Y7966303D01*
X4947361Y7961223D01*
X4954016Y7957616D01*
X4961229Y7955432D01*
X4969256Y7954670D01*
X6023914Y7954670D01*
X6027775Y7953857D01*
X6031077Y7951673D01*
X6543700Y7439050D01*
X6545935Y7435748D01*
X6546697Y7431887D01*
X6545935Y7427975D01*
X6543700Y7424674D01*
X6540601Y7421575D01*
X6537502Y7416647D01*
X6535623Y7411212D01*
X6534912Y7404862D01*
X6534912Y7362698D01*
X6534099Y7358837D01*
X6531914Y7355535D01*
X6528612Y7353300D01*
X6524752Y7352538D01*
X6520840Y7353300D01*
X6517538Y7355535D01*
X6104788Y7768285D01*
X6098540Y7773416D01*
X6091885Y7776972D01*
X6084671Y7779156D01*
X6076645Y7779969D01*
X6011926Y7779969D01*
X6003899Y7779156D01*
X5996686Y7776972D01*
X5990031Y7773416D01*
X5983782Y7768285D01*
X5962142Y7746644D01*
X5957011Y7740396D01*
X5953455Y7733741D01*
X5952642Y7730998D01*
X5951067Y7727899D01*
X5948578Y7725460D01*
X5945378Y7724089D01*
X5941923Y7723784D01*
X5930849Y7724851D01*
X5921197Y7724038D01*
X5911900Y7721549D01*
X5907430Y7721346D01*
X5903264Y7723174D01*
X5900318Y7726578D01*
X5898845Y7729321D01*
X5893714Y7735570D01*
X5864961Y7764322D01*
X5858764Y7769453D01*
X5852058Y7773009D01*
X5844844Y7775194D01*
X5836818Y7776006D01*
X5274614Y7776006D01*
X5266588Y7775194D01*
X5259374Y7773009D01*
X5252669Y7769453D01*
X5246471Y7764322D01*
X5203698Y7721549D01*
X5200243Y7719314D01*
X5196230Y7718602D01*
X5192217Y7719568D01*
X5188051Y7721498D01*
X5178602Y7724038D01*
X5168900Y7724851D01*
X5159197Y7724038D01*
X5149748Y7721498D01*
X5140909Y7717383D01*
X5132933Y7711795D01*
X5126024Y7704886D01*
X5120436Y7696860D01*
X5116322Y7688021D01*
X5113782Y7678623D01*
X5112867Y7668463D01*
X5112867Y7532420D01*
X5113782Y7522260D01*
X5116322Y7512862D01*
X5120436Y7504023D01*
X5126024Y7496048D01*
X5132933Y7489139D01*
X5138826Y7484973D01*
X5141722Y7481874D01*
X5143093Y7477861D01*
X5142687Y7473645D01*
X5140604Y7469936D01*
X5137150Y7467396D01*
X5132984Y7466533D01*
X5114290Y7466533D01*
X5110429Y7467295D01*
X5107127Y7469479D01*
X4873040Y7703566D01*
X4866843Y7708646D01*
X4860137Y7712202D01*
X4852924Y7714437D01*
X4844897Y7715199D01*
X4657598Y7715199D01*
X4653737Y7715961D01*
X4650435Y7718196D01*
X4648250Y7721498D01*
X4647438Y7725359D01*
X4647438Y7798562D01*
X4646726Y7804912D01*
X4644847Y7810347D01*
X4641748Y7815275D01*
X4637684Y7819339D01*
X4632756Y7822438D01*
X4627321Y7824368D01*
X4620971Y7825079D01*
X4535728Y7825079D01*
X4529378Y7824368D01*
X4523943Y7822438D01*
X4519015Y7819339D01*
X4514951Y7815275D01*
X4511852Y7810347D01*
X4509566Y7803794D01*
X4507890Y7800797D01*
X4505350Y7798562D01*
X4492498Y7794447D01*
X4485792Y7790891D01*
X4479594Y7785811D01*
X4473448Y7779664D01*
X4470146Y7777429D01*
X4466234Y7776667D01*
X4423765Y7776667D01*
X4419854Y7777429D01*
X4416552Y7779664D01*
X4414977Y7781239D01*
X4406900Y7786878D01*
X4398010Y7791043D01*
X4388510Y7793583D01*
X4378706Y7794447D01*
X4368952Y7793583D01*
X4359452Y7791043D01*
X4350562Y7786878D01*
X4342485Y7781239D01*
X4335526Y7774279D01*
X4329938Y7766253D01*
X4325772Y7757363D01*
X4323232Y7747863D01*
X4322368Y7738059D01*
X4323588Y7724292D01*
X4322521Y7720736D01*
X4320286Y7717840D01*
X4317136Y7715859D01*
X4313478Y7715199D01*
X4308348Y7715199D01*
X4304487Y7715961D01*
X4301185Y7718196D01*
X4299000Y7721498D01*
X4298188Y7725359D01*
X4298188Y7798562D01*
X4297476Y7804912D01*
X4295597Y7810347D01*
X4292498Y7815275D01*
X4288434Y7819339D01*
X4283506Y7822438D01*
X4278071Y7824368D01*
X4271721Y7825079D01*
X4186478Y7825079D01*
X4180128Y7824368D01*
X4174693Y7822438D01*
X4169765Y7819339D01*
X4165701Y7815275D01*
X4162602Y7810347D01*
X4160723Y7804912D01*
X4160012Y7798562D01*
X4160012Y7726070D01*
X4159199Y7722209D01*
X4157014Y7718907D01*
X4153712Y7716672D01*
X4149851Y7715910D01*
X4080205Y7715910D01*
X4076344Y7716672D01*
X4073042Y7718907D01*
X4071416Y7720482D01*
X4063390Y7726121D01*
X4054500Y7730286D01*
X4045000Y7732826D01*
X4035196Y7733690D01*
X4025392Y7732826D01*
X4015892Y7730286D01*
X4007002Y7726121D01*
X3998976Y7720482D01*
X3992016Y7713522D01*
X3986377Y7705496D01*
X3982212Y7696606D01*
X3979672Y7687106D01*
X3978808Y7677302D01*
X3979672Y7667498D01*
X3982212Y7658049D01*
X3986377Y7649108D01*
X3992016Y7641081D01*
X3998976Y7634122D01*
X4007002Y7628483D01*
X4015892Y7624318D01*
X4025392Y7621778D01*
X4035196Y7620965D01*
X4045000Y7621778D01*
X4054500Y7624318D01*
X4063390Y7628483D01*
X4071416Y7634122D01*
X4073042Y7635748D01*
X4076344Y7637932D01*
X4080205Y7638694D01*
X4149851Y7638694D01*
X4153712Y7637932D01*
X4157014Y7635748D01*
X4159199Y7632446D01*
X4160012Y7628534D01*
X4160012Y7568438D01*
X4160723Y7562088D01*
X4162602Y7556652D01*
X4165701Y7551724D01*
X4169765Y7547660D01*
X4174693Y7544562D01*
X4180128Y7542631D01*
X4186478Y7541920D01*
X4271721Y7541920D01*
X4278071Y7542631D01*
X4283506Y7544562D01*
X4288434Y7547660D01*
X4292498Y7551724D01*
X4295597Y7556652D01*
X4297476Y7562088D01*
X4298188Y7568438D01*
X4298188Y7618475D01*
X4299000Y7622336D01*
X4301185Y7625638D01*
X4310532Y7635036D01*
X4313834Y7637221D01*
X4317746Y7637983D01*
X4499102Y7637983D01*
X4502962Y7637221D01*
X4506264Y7635036D01*
X4508449Y7631734D01*
X4509262Y7627823D01*
X4509262Y7568438D01*
X4509973Y7562088D01*
X4511852Y7556652D01*
X4514951Y7551724D01*
X4519015Y7547660D01*
X4523943Y7544562D01*
X4529378Y7542631D01*
X4534255Y7541463D01*
X4537151Y7539177D01*
X4539081Y7536027D01*
X4539742Y7532420D01*
X4539742Y7430414D01*
X4539081Y7426858D01*
X4537252Y7423759D01*
X4534509Y7421524D01*
X4525568Y7418425D01*
X4520692Y7415377D01*
X4516577Y7411262D01*
X4513529Y7406386D01*
X4511598Y7400899D01*
X4510887Y7394600D01*
X4510887Y7225741D01*
X4511598Y7219391D01*
X4513529Y7213955D01*
X4516577Y7209028D01*
X4520692Y7204964D01*
X4525568Y7201865D01*
X4531055Y7199985D01*
X4537354Y7199274D01*
X4631232Y7199274D01*
X4637532Y7199985D01*
X4643018Y7201865D01*
X4647895Y7204964D01*
X4652010Y7209028D01*
X4655108Y7213955D01*
X4656988Y7219391D01*
X4657699Y7225741D01*
X4657699Y7394600D01*
X4656988Y7400899D01*
X4655108Y7406386D01*
X4652010Y7411262D01*
X4647895Y7415377D01*
X4643018Y7418425D01*
X4637532Y7420356D01*
X4631131Y7421067D01*
X4627829Y7422032D01*
X4625035Y7424064D01*
X4623054Y7426858D01*
X4619904Y7437831D01*
X4617262Y7443470D01*
X4616958Y7445908D01*
X4616958Y7532420D01*
X4617618Y7536027D01*
X4619548Y7539177D01*
X4622444Y7541463D01*
X4627321Y7542631D01*
X4632756Y7544562D01*
X4637684Y7547660D01*
X4641748Y7551724D01*
X4644847Y7556652D01*
X4646726Y7562088D01*
X4647438Y7568438D01*
X4647438Y7627823D01*
X4648250Y7631734D01*
X4650435Y7635036D01*
X4653737Y7637221D01*
X4657598Y7637983D01*
X4825187Y7637983D01*
X4829098Y7637221D01*
X4832400Y7635036D01*
X5066436Y7400950D01*
X5072684Y7395870D01*
X5079339Y7392263D01*
X5086553Y7390079D01*
X5094579Y7389317D01*
X5123434Y7389317D01*
X5127294Y7388504D01*
X5130596Y7386320D01*
X5132832Y7383018D01*
X5133594Y7379157D01*
X5133594Y7230567D01*
X5134305Y7224217D01*
X5136235Y7218781D01*
X5139283Y7213853D01*
X5143398Y7209790D01*
X5148275Y7206691D01*
X5153761Y7204811D01*
X5160060Y7204100D01*
X5253939Y7204100D01*
X5260238Y7204811D01*
X5265724Y7206691D01*
X5270601Y7209790D01*
X5274716Y7213853D01*
X5277764Y7218781D01*
X5279694Y7224217D01*
X5280406Y7230567D01*
X5280406Y7399426D01*
X5279694Y7405725D01*
X5277764Y7411212D01*
X5274716Y7416088D01*
X5270601Y7420203D01*
X5265724Y7423251D01*
X5260238Y7425181D01*
X5253837Y7425893D01*
X5250535Y7426858D01*
X5247741Y7428890D01*
X5245760Y7431684D01*
X5242610Y7442657D01*
X5239054Y7449312D01*
X5234279Y7455153D01*
X5228437Y7459980D01*
X5221732Y7463536D01*
X5214518Y7465720D01*
X5206492Y7466533D01*
X5204815Y7466533D01*
X5200650Y7467396D01*
X5197195Y7469936D01*
X5195112Y7473645D01*
X5194706Y7477861D01*
X5196078Y7481874D01*
X5198973Y7484973D01*
X5204866Y7489139D01*
X5211775Y7496048D01*
X5217363Y7504023D01*
X5221478Y7512862D01*
X5222595Y7516926D01*
X5224627Y7520838D01*
X5228082Y7523530D01*
X5232400Y7524445D01*
X5236718Y7523530D01*
X5240172Y7520838D01*
X5242204Y7516926D01*
X5243322Y7512862D01*
X5247436Y7504023D01*
X5253024Y7496048D01*
X5259933Y7489139D01*
X5267909Y7483551D01*
X5276748Y7479385D01*
X5286197Y7476896D01*
X5295900Y7476032D01*
X5305602Y7476896D01*
X5315051Y7479385D01*
X5323890Y7483551D01*
X5331866Y7489139D01*
X5338775Y7496048D01*
X5344363Y7504023D01*
X5348478Y7512862D01*
X5349595Y7516926D01*
X5351627Y7520838D01*
X5355082Y7523530D01*
X5359400Y7524445D01*
X5363718Y7523530D01*
X5367172Y7520838D01*
X5369204Y7516926D01*
X5370322Y7512862D01*
X5374436Y7504023D01*
X5380024Y7496048D01*
X5386933Y7489139D01*
X5394909Y7483551D01*
X5403748Y7479385D01*
X5413197Y7476896D01*
X5422900Y7476032D01*
X5432602Y7476896D01*
X5442051Y7479385D01*
X5450890Y7483551D01*
X5458866Y7489139D01*
X5465775Y7496048D01*
X5471363Y7504023D01*
X5475478Y7512862D01*
X5476595Y7516926D01*
X5478627Y7520838D01*
X5482082Y7523530D01*
X5486400Y7524445D01*
X5490718Y7523530D01*
X5494172Y7520838D01*
X5496204Y7516926D01*
X5497322Y7512862D01*
X5501436Y7504023D01*
X5507024Y7496048D01*
X5513933Y7489139D01*
X5521909Y7483551D01*
X5530748Y7479385D01*
X5540197Y7476896D01*
X5549900Y7476032D01*
X5559602Y7476896D01*
X5569051Y7479385D01*
X5577890Y7483551D01*
X5585866Y7489139D01*
X5592775Y7496048D01*
X5598363Y7504023D01*
X5602478Y7512862D01*
X5603595Y7516926D01*
X5605627Y7520838D01*
X5609082Y7523530D01*
X5613400Y7524445D01*
X5617718Y7523530D01*
X5621172Y7520838D01*
X5623204Y7516926D01*
X5624322Y7512862D01*
X5628436Y7504023D01*
X5634024Y7496048D01*
X5640933Y7489139D01*
X5648909Y7483551D01*
X5657748Y7479385D01*
X5667197Y7476896D01*
X5676900Y7476032D01*
X5686602Y7476896D01*
X5696051Y7479385D01*
X5704890Y7483551D01*
X5712866Y7489139D01*
X5719775Y7496048D01*
X5725363Y7504023D01*
X5729478Y7512862D01*
X5730595Y7516926D01*
X5732627Y7520838D01*
X5736082Y7523530D01*
X5740400Y7524445D01*
X5744718Y7523530D01*
X5748172Y7520838D01*
X5750204Y7516926D01*
X5751322Y7512862D01*
X5755436Y7504023D01*
X5761024Y7496048D01*
X5767933Y7489139D01*
X5775909Y7483551D01*
X5784748Y7479385D01*
X5794197Y7476896D01*
X5803900Y7476032D01*
X5813602Y7476896D01*
X5819089Y7477658D01*
X5822645Y7476591D01*
X5825591Y7474356D01*
X5827522Y7471206D01*
X5828182Y7467549D01*
X5828182Y7448753D01*
X5827318Y7444689D01*
X5824880Y7441285D01*
X5821324Y7439152D01*
X5821324Y7376007D01*
X5824880Y7373874D01*
X5827318Y7370470D01*
X5828182Y7366355D01*
X5828182Y7288987D01*
X5827318Y7284923D01*
X5824880Y7281519D01*
X5821324Y7279386D01*
X5821324Y7216241D01*
X5824880Y7214108D01*
X5827318Y7210704D01*
X5828182Y7206640D01*
X5828182Y6876440D01*
X5827420Y6872528D01*
X5825185Y6869226D01*
X5764276Y6808266D01*
X5759145Y6802069D01*
X5755589Y6795414D01*
X5752439Y6784390D01*
X5750458Y6781596D01*
X5747664Y6779564D01*
X5744362Y6778650D01*
X5737961Y6777888D01*
X5732475Y6776008D01*
X5727598Y6772909D01*
X5723483Y6768846D01*
X5720435Y6763918D01*
X5718505Y6758482D01*
X5717794Y6752132D01*
X5717794Y6636664D01*
X5717032Y6632803D01*
X5714796Y6629501D01*
X5711494Y6627317D01*
X5707634Y6626504D01*
X5703722Y6627317D01*
X5700471Y6629501D01*
X5578195Y6751777D01*
X5575960Y6755079D01*
X5575198Y6760209D01*
X5574385Y6768236D01*
X5572201Y6775500D01*
X5568645Y6782155D01*
X5563514Y6788353D01*
X5556859Y6795058D01*
X5550611Y6800189D01*
X5543956Y6803745D01*
X5536742Y6805930D01*
X5528716Y6806742D01*
X5207660Y6806742D01*
X5199634Y6805930D01*
X5192420Y6803745D01*
X5185765Y6800189D01*
X5179923Y6795363D01*
X5174945Y6789369D01*
X5171389Y6782714D01*
X5168239Y6771690D01*
X5166258Y6768896D01*
X5163464Y6766864D01*
X5160162Y6765950D01*
X5153761Y6765188D01*
X5148275Y6763308D01*
X5143398Y6760209D01*
X5139283Y6756146D01*
X5136235Y6751218D01*
X5134305Y6745782D01*
X5133594Y6739432D01*
X5133594Y6570573D01*
X5134305Y6564274D01*
X5136235Y6558788D01*
X5139283Y6553911D01*
X5143398Y6549796D01*
X5148275Y6546748D01*
X5153761Y6544818D01*
X5160060Y6544106D01*
X5253939Y6544106D01*
X5260238Y6544818D01*
X5265724Y6546748D01*
X5270601Y6549796D01*
X5274716Y6553911D01*
X5277764Y6558788D01*
X5279694Y6564274D01*
X5280406Y6570573D01*
X5280406Y6719366D01*
X5281168Y6723227D01*
X5283403Y6726529D01*
X5286705Y6728714D01*
X5290566Y6729526D01*
X5377434Y6729526D01*
X5381294Y6728714D01*
X5384596Y6726529D01*
X5386832Y6723227D01*
X5387594Y6719366D01*
X5387594Y6570573D01*
X5388305Y6564274D01*
X5390235Y6558788D01*
X5393283Y6553911D01*
X5397398Y6549796D01*
X5402275Y6546748D01*
X5407761Y6544818D01*
X5413349Y6544157D01*
X5416905Y6543090D01*
X5419801Y6540855D01*
X5421731Y6537706D01*
X5422392Y6534099D01*
X5422392Y6529222D01*
X5421985Y6526377D01*
X5419699Y6522008D01*
X5417820Y6516573D01*
X5417108Y6510223D01*
X5417108Y6479184D01*
X5416296Y6475323D01*
X5414111Y6472021D01*
X5387949Y6445859D01*
X5382818Y6439611D01*
X5379262Y6432956D01*
X5377078Y6425742D01*
X5376316Y6417716D01*
X5376316Y6229959D01*
X5376519Y6227572D01*
X5376062Y6223355D01*
X5373928Y6219748D01*
X5370525Y6217259D01*
X5366410Y6216396D01*
X5154930Y6216396D01*
X5151018Y6217158D01*
X5147716Y6219393D01*
X4895088Y6472021D01*
X4892903Y6475323D01*
X4892090Y6479235D01*
X4892090Y6510223D01*
X4891379Y6516573D01*
X4889500Y6522008D01*
X4887366Y6525361D01*
X4886045Y6528714D01*
X4885944Y6532372D01*
X4887163Y6535775D01*
X4889449Y6538569D01*
X4892598Y6540347D01*
X4897018Y6541922D01*
X4901895Y6544970D01*
X4906010Y6549085D01*
X4909108Y6553962D01*
X4910988Y6559448D01*
X4911699Y6565747D01*
X4911699Y6734606D01*
X4910988Y6740956D01*
X4909108Y6746392D01*
X4906010Y6751320D01*
X4901895Y6755384D01*
X4897018Y6758482D01*
X4891532Y6760362D01*
X4885232Y6761073D01*
X4791354Y6761073D01*
X4785055Y6760362D01*
X4779568Y6758482D01*
X4774692Y6755384D01*
X4770577Y6751320D01*
X4767529Y6746392D01*
X4765598Y6740956D01*
X4764887Y6734606D01*
X4764887Y6633819D01*
X4764582Y6631330D01*
X4763719Y6629044D01*
X4760163Y6622440D01*
X4757978Y6615226D01*
X4757216Y6607200D01*
X4757216Y6390182D01*
X4757978Y6382207D01*
X4760163Y6374942D01*
X4763719Y6368288D01*
X4768850Y6362039D01*
X4801311Y6329578D01*
X4803495Y6326276D01*
X4804308Y6322415D01*
X4804308Y6291376D01*
X4805019Y6285026D01*
X4806899Y6279591D01*
X4809185Y6275222D01*
X4809591Y6272377D01*
X4809591Y6254800D01*
X4810404Y6246774D01*
X4812588Y6239560D01*
X4816144Y6232855D01*
X4821275Y6226657D01*
X5342788Y5705094D01*
X5344972Y5701893D01*
X5345785Y5698083D01*
X5345125Y5694273D01*
X5343093Y5690971D01*
X5339943Y5688685D01*
X5336184Y5687771D01*
X5325211Y5687161D01*
X5308549Y5684316D01*
X5292293Y5679643D01*
X5276646Y5673140D01*
X5261864Y5664962D01*
X5248046Y5655157D01*
X5235448Y5643880D01*
X5224170Y5631281D01*
X5214366Y5617464D01*
X5206187Y5602681D01*
X5199684Y5587034D01*
X5195011Y5570778D01*
X5192166Y5554116D01*
X5191252Y5537200D01*
X5192166Y5520283D01*
X5195011Y5503621D01*
X5199684Y5487365D01*
X5206187Y5471718D01*
X5214366Y5456936D01*
X5224170Y5443118D01*
X5235448Y5430520D01*
X5242153Y5424474D01*
X5244592Y5421223D01*
X5245557Y5417312D01*
X5244896Y5413298D01*
X5242712Y5409844D01*
X5239359Y5407558D01*
X5235397Y5406745D01*
X4896662Y5406745D01*
X4892649Y5407558D01*
X4889347Y5409844D01*
X4887163Y5413298D01*
X4886502Y5417312D01*
X4887468Y5421223D01*
X4889855Y5424474D01*
X4896612Y5430520D01*
X4907889Y5443118D01*
X4917694Y5456936D01*
X4925872Y5471718D01*
X4932324Y5487365D01*
X4936998Y5503621D01*
X4939842Y5520283D01*
X4940808Y5537200D01*
X4939842Y5554116D01*
X4936998Y5570778D01*
X4932324Y5587034D01*
X4925872Y5602681D01*
X4917694Y5617464D01*
X4907889Y5631281D01*
X4896612Y5643880D01*
X4884013Y5655157D01*
X4870196Y5664962D01*
X4855362Y5673140D01*
X4844592Y5677611D01*
X4841341Y5679795D01*
X4839106Y5683097D01*
X4838344Y5687009D01*
X4838344Y5941568D01*
X4839208Y5945632D01*
X4841595Y5949035D01*
X4845151Y5951169D01*
X4851247Y5953302D01*
X4856175Y5956401D01*
X4860239Y5960465D01*
X4863338Y5965393D01*
X4865268Y5970828D01*
X4865979Y5977178D01*
X4865979Y6062421D01*
X4865268Y6068771D01*
X4863338Y6074206D01*
X4860239Y6079134D01*
X4856175Y6083198D01*
X4851247Y6086297D01*
X4845812Y6088176D01*
X4839462Y6088888D01*
X4762347Y6088888D01*
X4758791Y6089548D01*
X4755642Y6091428D01*
X4753406Y6094272D01*
X4749546Y6101486D01*
X4744415Y6107684D01*
X4360875Y6491274D01*
X4354677Y6496354D01*
X4347972Y6499910D01*
X4340758Y6502146D01*
X4332732Y6502907D01*
X4289298Y6502907D01*
X4285640Y6503568D01*
X4282490Y6505498D01*
X4280255Y6508394D01*
X4279188Y6511950D01*
X4278680Y6516573D01*
X4276648Y6522313D01*
X4275328Y6524802D01*
X4274159Y6528562D01*
X4274515Y6532473D01*
X4276344Y6535978D01*
X4279341Y6538518D01*
X4283100Y6539738D01*
X4285488Y6539992D01*
X4290923Y6541922D01*
X4295851Y6544970D01*
X4299915Y6549085D01*
X4303014Y6553962D01*
X4304893Y6559448D01*
X4305604Y6565747D01*
X4305604Y6734606D01*
X4304893Y6740956D01*
X4303014Y6746392D01*
X4299915Y6751320D01*
X4295851Y6755384D01*
X4290923Y6758482D01*
X4285488Y6760362D01*
X4279138Y6761073D01*
X4185310Y6761073D01*
X4178960Y6760362D01*
X4173524Y6758482D01*
X4168597Y6755384D01*
X4164533Y6751320D01*
X4161434Y6746392D01*
X4159504Y6740956D01*
X4158792Y6734606D01*
X4158792Y6565747D01*
X4159504Y6559448D01*
X4161434Y6553962D01*
X4164533Y6549085D01*
X4168597Y6544970D01*
X4173524Y6541922D01*
X4178960Y6539992D01*
X4185412Y6539280D01*
X4189374Y6537909D01*
X4192524Y6535115D01*
X4194200Y6531254D01*
X4195013Y6525514D01*
X4194454Y6522821D01*
X4192270Y6516573D01*
X4191558Y6510223D01*
X4191558Y6418376D01*
X4192270Y6412026D01*
X4195826Y6402679D01*
X4195826Y6398920D01*
X4194200Y6395008D01*
X4192270Y6389573D01*
X4191558Y6383223D01*
X4191558Y6291376D01*
X4192270Y6285026D01*
X4194200Y6279591D01*
X4196486Y6275222D01*
X4196892Y6272377D01*
X4196892Y6263386D01*
X4197654Y6255359D01*
X4199839Y6248146D01*
X4203395Y6241440D01*
X4208221Y6235598D01*
X4214063Y6230823D01*
X4220718Y6227267D01*
X4227931Y6225082D01*
X4235958Y6224270D01*
X4351680Y6224270D01*
X4355541Y6223508D01*
X4358843Y6221323D01*
X4536135Y6044031D01*
X4538319Y6040729D01*
X4539081Y6036868D01*
X4538319Y6032957D01*
X4536135Y6029655D01*
X4493768Y5987338D01*
X4490466Y5985154D01*
X4486605Y5984392D01*
X4204665Y5984392D01*
X4200753Y5985154D01*
X4197451Y5987338D01*
X4195267Y5990640D01*
X4194505Y5994552D01*
X4194505Y6076188D01*
X4193794Y6082487D01*
X4191863Y6087973D01*
X4188815Y6092850D01*
X4184700Y6096965D01*
X4179824Y6100013D01*
X4174337Y6101943D01*
X4168038Y6102654D01*
X4099458Y6102654D01*
X4095546Y6103416D01*
X4092244Y6105601D01*
X4090060Y6108903D01*
X4089298Y6112814D01*
X4089298Y6464350D01*
X4088485Y6472377D01*
X4086301Y6479590D01*
X4082745Y6486245D01*
X4077614Y6492494D01*
X4040581Y6529527D01*
X4038346Y6532829D01*
X4037584Y6536791D01*
X4038396Y6540703D01*
X4040682Y6544005D01*
X4045965Y6549135D01*
X4049014Y6553962D01*
X4050893Y6559448D01*
X4051604Y6565747D01*
X4051604Y6734606D01*
X4050893Y6740956D01*
X4049014Y6746392D01*
X4045915Y6751320D01*
X4041851Y6755384D01*
X4036923Y6758482D01*
X4031487Y6760362D01*
X4025137Y6761073D01*
X3931310Y6761073D01*
X3924960Y6760362D01*
X3919524Y6758482D01*
X3914597Y6755384D01*
X3910533Y6751320D01*
X3907434Y6746392D01*
X3905504Y6740956D01*
X3904792Y6734606D01*
X3904792Y6565747D01*
X3905504Y6559448D01*
X3907434Y6553962D01*
X3910533Y6549085D01*
X3914597Y6544970D01*
X3919524Y6541922D01*
X3924960Y6539992D01*
X3931412Y6539280D01*
X3934714Y6538315D01*
X3937508Y6536283D01*
X3939438Y6533489D01*
X3942587Y6522516D01*
X3946144Y6515862D01*
X3951274Y6509613D01*
X4009085Y6451803D01*
X4011269Y6448552D01*
X4012082Y6444640D01*
X4012082Y6112459D01*
X4011168Y6108293D01*
X4008678Y6104839D01*
X4004970Y6102756D01*
X4000754Y6102350D01*
X3998010Y6102654D01*
X3909161Y6102654D01*
X3902862Y6101943D01*
X3897376Y6100013D01*
X3892499Y6096965D01*
X3888384Y6092850D01*
X3885285Y6087973D01*
X3883406Y6082487D01*
X3882694Y6076188D01*
X3882694Y5977331D01*
X3883406Y5970981D01*
X3885285Y5965545D01*
X3888384Y5960618D01*
X3892499Y5956554D01*
X3897376Y5953455D01*
X3902862Y5951524D01*
X3909161Y5950813D01*
X3970680Y5950813D01*
X3974592Y5950051D01*
X3977894Y5947867D01*
X4006900Y5918809D01*
X4013149Y5913729D01*
X4019804Y5910122D01*
X4027017Y5907938D01*
X4035044Y5907176D01*
X4506315Y5907176D01*
X4514342Y5907938D01*
X4521555Y5910122D01*
X4528210Y5913729D01*
X4534458Y5918809D01*
X4575149Y5959500D01*
X4578451Y5961735D01*
X4582312Y5962497D01*
X4586224Y5961735D01*
X4589526Y5959500D01*
X4592624Y5956401D01*
X4597552Y5953302D01*
X4602988Y5951423D01*
X4609338Y5950712D01*
X4668723Y5950712D01*
X4672634Y5949899D01*
X4675886Y5947714D01*
X4678121Y5944412D01*
X4678883Y5940552D01*
X4678883Y5834989D01*
X4678121Y5831078D01*
X4675886Y5827776D01*
X4520996Y5672886D01*
X4517390Y5670550D01*
X4513072Y5669940D01*
X4508906Y5671210D01*
X4505401Y5673140D01*
X4489754Y5679643D01*
X4473498Y5684316D01*
X4456785Y5687161D01*
X4439920Y5688076D01*
X4423003Y5687161D01*
X4406341Y5684316D01*
X4390085Y5679643D01*
X4374438Y5673140D01*
X4359656Y5664962D01*
X4345838Y5655157D01*
X4333189Y5643880D01*
X4321962Y5631281D01*
X4312158Y5617464D01*
X4303979Y5602681D01*
X4297476Y5587034D01*
X4292803Y5570778D01*
X4289958Y5554116D01*
X4288993Y5537200D01*
X4289958Y5520283D01*
X4292803Y5503621D01*
X4297476Y5487365D01*
X4303979Y5471718D01*
X4312158Y5456936D01*
X4321962Y5443118D01*
X4333189Y5430520D01*
X4339945Y5424474D01*
X4342384Y5421223D01*
X4343349Y5417312D01*
X4342688Y5413298D01*
X4340504Y5409844D01*
X4337151Y5407558D01*
X4333189Y5406745D01*
X4196638Y5406745D01*
X4192676Y5407558D01*
X4189323Y5409844D01*
X4187139Y5413298D01*
X4186478Y5417312D01*
X4187444Y5421223D01*
X4189882Y5424474D01*
X4196588Y5430520D01*
X4207865Y5443118D01*
X4217670Y5456936D01*
X4225848Y5471718D01*
X4232351Y5487365D01*
X4237024Y5503621D01*
X4239869Y5520283D01*
X4240784Y5537200D01*
X4239869Y5554116D01*
X4237024Y5570778D01*
X4232351Y5587034D01*
X4225848Y5602681D01*
X4217670Y5617464D01*
X4207865Y5631281D01*
X4196588Y5643880D01*
X4183989Y5655157D01*
X4170172Y5664962D01*
X4155389Y5673140D01*
X4139742Y5679643D01*
X4123486Y5684316D01*
X4106824Y5687161D01*
X4089908Y5688076D01*
X4072991Y5687161D01*
X4056329Y5684316D01*
X4040073Y5679643D01*
X4024426Y5673140D01*
X4009644Y5664962D01*
X3995826Y5655157D01*
X3983228Y5643880D01*
X3971950Y5631281D01*
X3962146Y5617464D01*
X3953967Y5602681D01*
X3947464Y5587034D01*
X3942791Y5570778D01*
X3939946Y5554116D01*
X3939032Y5537200D01*
X3939946Y5520283D01*
X3942791Y5503621D01*
X3947464Y5487365D01*
X3953967Y5471718D01*
X3962146Y5456936D01*
X3971950Y5443118D01*
X3983228Y5430520D01*
X3989933Y5424474D01*
X3992372Y5421223D01*
X3993337Y5417312D01*
X3992676Y5413298D01*
X3990492Y5409844D01*
X3987139Y5407558D01*
X3983177Y5406745D01*
X3726992Y5406745D01*
X3723081Y5407507D01*
X3719779Y5409742D01*
X3673398Y5456123D01*
X3671062Y5459780D01*
X3670452Y5464048D01*
X3671671Y5468213D01*
X3673652Y5471718D01*
X3680104Y5487365D01*
X3684778Y5503621D01*
X3687622Y5520283D01*
X3688587Y5537200D01*
X3687622Y5554116D01*
X3684778Y5570778D01*
X3680104Y5587034D01*
X3673652Y5602681D01*
X3665474Y5617464D01*
X3655669Y5631281D01*
X3644392Y5643880D01*
X3631793Y5655157D01*
X3617976Y5664962D01*
X3603142Y5673140D01*
X3587546Y5679643D01*
X3575710Y5683046D01*
X3571900Y5685078D01*
X3569258Y5688584D01*
X3568344Y5692800D01*
X3568344Y5941568D01*
X3569208Y5945632D01*
X3571595Y5949035D01*
X3575151Y5951169D01*
X3581247Y5953302D01*
X3586175Y5956401D01*
X3590239Y5960465D01*
X3593337Y5965393D01*
X3595268Y5970828D01*
X3595979Y5977178D01*
X3595979Y6062421D01*
X3595268Y6068771D01*
X3593337Y6074206D01*
X3590239Y6079134D01*
X3586175Y6083198D01*
X3581247Y6086297D01*
X3575812Y6088176D01*
X3569462Y6088888D01*
X3527856Y6088888D01*
X3523945Y6089700D01*
X3520643Y6091885D01*
X3518458Y6095187D01*
X3517696Y6099048D01*
X3518458Y6102959D01*
X3520643Y6106261D01*
X3649624Y6235242D01*
X3654755Y6241440D01*
X3658311Y6248146D01*
X3660495Y6255359D01*
X3661308Y6263386D01*
X3661308Y6272377D01*
X3661714Y6275222D01*
X3664000Y6279591D01*
X3665880Y6285026D01*
X3666591Y6291376D01*
X3666591Y6383223D01*
X3665880Y6389573D01*
X3662375Y6398920D01*
X3662375Y6402679D01*
X3664000Y6406591D01*
X3665880Y6412026D01*
X3666591Y6418376D01*
X3666591Y6510223D01*
X3665880Y6516573D01*
X3663797Y6522516D01*
X3663238Y6525259D01*
X3664153Y6531305D01*
X3665880Y6535115D01*
X3668979Y6537959D01*
X3672941Y6539280D01*
X3679393Y6539992D01*
X3684828Y6541922D01*
X3689756Y6544970D01*
X3693820Y6549085D01*
X3696919Y6553962D01*
X3698849Y6559448D01*
X3699560Y6565747D01*
X3699560Y6734606D01*
X3698849Y6740956D01*
X3696919Y6746392D01*
X3693820Y6751320D01*
X3689756Y6755384D01*
X3684828Y6758482D01*
X3679393Y6760362D01*
X3672941Y6761124D01*
X3669639Y6762038D01*
X3666845Y6764070D01*
X3664915Y6766864D01*
X3661765Y6777888D01*
X3658209Y6784543D01*
X3653383Y6790385D01*
X3647338Y6795363D01*
X3640683Y6798919D01*
X3633470Y6801103D01*
X3625443Y6801916D01*
X3304438Y6801916D01*
X3296412Y6801103D01*
X3289198Y6798919D01*
X3282492Y6795363D01*
X3276295Y6790232D01*
X3230473Y6744411D01*
X3225342Y6738162D01*
X3221786Y6731508D01*
X3219602Y6724294D01*
X3218789Y6716268D01*
X3218789Y6419850D01*
X3218027Y6415938D01*
X3215792Y6412636D01*
X3169767Y6366611D01*
X3166516Y6364427D01*
X3162604Y6363665D01*
X3158693Y6364427D01*
X3155442Y6366611D01*
X3153206Y6369913D01*
X3152444Y6373825D01*
X3152444Y6744411D01*
X3151632Y6752437D01*
X3149447Y6759651D01*
X3145891Y6766306D01*
X3140760Y6772554D01*
X2731414Y7181900D01*
X2729230Y7185202D01*
X2728468Y7189114D01*
X2729230Y7192975D01*
X2731414Y7196277D01*
X2734716Y7198461D01*
X2738628Y7199274D01*
X2812999Y7199274D01*
X2819298Y7199985D01*
X2824784Y7201865D01*
X2829661Y7204964D01*
X2833776Y7209028D01*
X2836824Y7213955D01*
X2838754Y7219391D01*
X2839466Y7225741D01*
X2839466Y7394600D01*
X2838754Y7400899D01*
X2836824Y7406386D01*
X2833827Y7411212D01*
X2828493Y7416342D01*
X2826258Y7419644D01*
X2825445Y7423556D01*
X2826207Y7427518D01*
X2828391Y7430820D01*
X2964180Y7566609D01*
X2967482Y7568793D01*
X2971342Y7569555D01*
X3103118Y7569555D01*
X3107182Y7568692D01*
X3110585Y7566304D01*
X3112719Y7562748D01*
X3114852Y7556652D01*
X3117951Y7551724D01*
X3122015Y7547660D01*
X3126943Y7544562D01*
X3132378Y7542631D01*
X3138728Y7541920D01*
X3223971Y7541920D01*
X3230321Y7542631D01*
X3235756Y7544562D01*
X3240684Y7547660D01*
X3244748Y7551724D01*
X3247847Y7556652D01*
X3249726Y7562088D01*
X3250438Y7568438D01*
X3250438Y7647940D01*
X3249726Y7654239D01*
X3247847Y7659725D01*
X3244748Y7664602D01*
X3240684Y7668717D01*
X3235756Y7671765D01*
X3229660Y7673898D01*
X3226155Y7676032D01*
X3223717Y7679436D01*
X3222904Y7683500D01*
X3223717Y7687564D01*
X3226155Y7690967D01*
X3229660Y7693101D01*
X3235756Y7695234D01*
X3240684Y7698282D01*
X3244748Y7702397D01*
X3247847Y7707274D01*
X3249726Y7712760D01*
X3250438Y7719059D01*
X3250438Y7798562D01*
X3249726Y7804912D01*
X3247847Y7810347D01*
X3244748Y7815275D01*
X3240684Y7819339D01*
X3235756Y7822438D01*
X3230321Y7824368D01*
X3223971Y7825079D01*
X3138728Y7825079D01*
X3132378Y7824368D01*
X3126943Y7822438D01*
X3122015Y7819339D01*
X3117951Y7815275D01*
X3114852Y7810347D01*
X3112566Y7803794D01*
X3110890Y7800797D01*
X3108350Y7798562D01*
X3095498Y7794447D01*
X3088792Y7790891D01*
X3084220Y7788046D01*
X3080461Y7787538D01*
X3076752Y7788503D01*
X3071317Y7791043D01*
X3061817Y7793583D01*
X3052013Y7794447D01*
X3042259Y7793583D01*
X3032760Y7791043D01*
X3023870Y7786878D01*
X3015792Y7781239D01*
X3008833Y7774279D01*
X3003245Y7766253D01*
X2999079Y7757363D01*
X2996539Y7747863D01*
X2995676Y7738059D01*
X2996539Y7728254D01*
X2999079Y7718806D01*
X3003245Y7709865D01*
X3008833Y7701838D01*
X3015792Y7694879D01*
X3023870Y7689240D01*
X3032760Y7685074D01*
X3042259Y7682534D01*
X3052013Y7681722D01*
X3061817Y7682534D01*
X3071317Y7685074D01*
X3080207Y7689240D01*
X3088284Y7694879D01*
X3090722Y7697317D01*
X3093516Y7699298D01*
X3104184Y7702448D01*
X3106470Y7703667D01*
X3110585Y7704836D01*
X3114852Y7704226D01*
X3118459Y7701889D01*
X3122015Y7698282D01*
X3126943Y7695234D01*
X3132988Y7693101D01*
X3136544Y7690967D01*
X3138982Y7687564D01*
X3139795Y7683500D01*
X3138982Y7679436D01*
X3136544Y7676032D01*
X3132988Y7673898D01*
X3126943Y7671765D01*
X3122015Y7668717D01*
X3117951Y7664602D01*
X3114852Y7659725D01*
X3112719Y7653578D01*
X3110585Y7650022D01*
X3107182Y7647635D01*
X3103118Y7646771D01*
X2951632Y7646771D01*
X2943606Y7646009D01*
X2936392Y7643774D01*
X2929737Y7640218D01*
X2923489Y7635138D01*
X2739136Y7450734D01*
X2734005Y7444486D01*
X2730449Y7437831D01*
X2727299Y7426858D01*
X2725318Y7424064D01*
X2722524Y7422032D01*
X2719222Y7421067D01*
X2712821Y7420356D01*
X2707335Y7418425D01*
X2702458Y7415377D01*
X2698343Y7411262D01*
X2695295Y7406386D01*
X2693365Y7400899D01*
X2692654Y7394600D01*
X2692654Y7245197D01*
X2691892Y7241336D01*
X2689656Y7238034D01*
X2686354Y7235850D01*
X2682494Y7235037D01*
X2678582Y7235850D01*
X2675331Y7238034D01*
X2506776Y7406538D01*
X2500579Y7411669D01*
X2493873Y7415225D01*
X2486660Y7417409D01*
X2478633Y7418222D01*
X2150008Y7418222D01*
X2146147Y7418984D01*
X2142845Y7421168D01*
X2140610Y7424470D01*
X2139848Y7428382D01*
X2139848Y7481316D01*
X2139137Y7487666D01*
X2137206Y7493101D01*
X2134158Y7498029D01*
X2130044Y7502093D01*
X2125167Y7505192D01*
X2119680Y7507122D01*
X2113381Y7507833D01*
X1952498Y7507833D01*
X1946198Y7507122D01*
X1940712Y7505192D01*
X1935835Y7502093D01*
X1931720Y7498029D01*
X1928672Y7493101D01*
X1926742Y7487666D01*
X1926031Y7481316D01*
X1926031Y7277862D01*
X1926742Y7271512D01*
X1928672Y7266076D01*
X1931720Y7261148D01*
X1935835Y7257084D01*
X1940712Y7253986D01*
X1946198Y7252055D01*
X1952498Y7251344D01*
X2113381Y7251344D01*
X2119680Y7252055D01*
X2125167Y7253986D01*
X2130044Y7257084D01*
X2134158Y7261148D01*
X2137206Y7266076D01*
X2139137Y7271512D01*
X2139848Y7277862D01*
X2139848Y7330846D01*
X2140610Y7334707D01*
X2142845Y7338009D01*
X2146147Y7340193D01*
X2150008Y7341006D01*
X2458923Y7341006D01*
X2462834Y7340193D01*
X2466136Y7338009D01*
X3025698Y6778447D01*
X3027883Y6775145D01*
X3028696Y6771233D01*
X3027883Y6767372D01*
X3025698Y6764070D01*
X3022396Y6761886D01*
X3018536Y6761073D01*
X2973120Y6761073D01*
X2966821Y6760362D01*
X2961335Y6758482D01*
X2956458Y6755384D01*
X2952343Y6751320D01*
X2949295Y6746392D01*
X2947365Y6740956D01*
X2946654Y6734606D01*
X2946654Y6565747D01*
X2947365Y6559448D01*
X2949295Y6553962D01*
X2952343Y6549085D01*
X2956458Y6544970D01*
X2961335Y6541922D01*
X2965500Y6540449D01*
X2968701Y6538671D01*
X2970987Y6535877D01*
X2972206Y6532422D01*
X2972104Y6528816D01*
X2970784Y6525463D01*
X2968599Y6522008D01*
X2966720Y6516573D01*
X2966161Y6511950D01*
X2965094Y6508394D01*
X2962859Y6505498D01*
X2959709Y6503568D01*
X2956102Y6502907D01*
X2808173Y6502907D01*
X2804058Y6503771D01*
X2800705Y6506159D01*
X2798572Y6509766D01*
X2798013Y6513880D01*
X2799181Y6517843D01*
X2801670Y6522516D01*
X2804820Y6533489D01*
X2806801Y6536283D01*
X2809595Y6538315D01*
X2812897Y6539280D01*
X2819298Y6539992D01*
X2824784Y6541922D01*
X2829661Y6544970D01*
X2833776Y6549085D01*
X2836824Y6553962D01*
X2838754Y6559448D01*
X2839466Y6565747D01*
X2839466Y6734606D01*
X2838754Y6740956D01*
X2836824Y6746392D01*
X2833776Y6751320D01*
X2829661Y6755384D01*
X2824784Y6758482D01*
X2819298Y6760362D01*
X2812999Y6761073D01*
X2719120Y6761073D01*
X2712821Y6760362D01*
X2707335Y6758482D01*
X2702458Y6755384D01*
X2698343Y6751320D01*
X2695295Y6746392D01*
X2693365Y6740956D01*
X2692654Y6734606D01*
X2692654Y6586067D01*
X2691892Y6582156D01*
X2689656Y6578853D01*
X2686354Y6576669D01*
X2682494Y6575907D01*
X2205634Y6575907D01*
X2197608Y6575094D01*
X2190394Y6572910D01*
X2183688Y6569354D01*
X2177491Y6564223D01*
X1703324Y6090056D01*
X1700326Y6088024D01*
X1696821Y6087110D01*
X1693214Y6087516D01*
X1689963Y6089192D01*
X1686915Y6092850D01*
X1682800Y6096965D01*
X1677924Y6100013D01*
X1672437Y6101943D01*
X1666138Y6102654D01*
X1577289Y6102654D01*
X1570939Y6101943D01*
X1565503Y6100013D01*
X1560576Y6096965D01*
X1556512Y6092850D01*
X1553413Y6087973D01*
X1551482Y6082487D01*
X1550771Y6076188D01*
X1550771Y6072581D01*
X1550111Y6068872D01*
X1548079Y6065672D01*
X1545082Y6063437D01*
X1541424Y6062472D01*
X1537665Y6062878D01*
X1528165Y6065621D01*
X1525219Y6067856D01*
X1523288Y6071057D01*
X1521866Y6082487D01*
X1519986Y6087973D01*
X1516888Y6092850D01*
X1512824Y6096965D01*
X1507896Y6100013D01*
X1502460Y6101943D01*
X1496110Y6102654D01*
X1407261Y6102654D01*
X1400962Y6101943D01*
X1395476Y6100013D01*
X1390599Y6096965D01*
X1386484Y6092850D01*
X1383385Y6087973D01*
X1381506Y6082487D01*
X1380794Y6076188D01*
X1380794Y5977331D01*
X1381506Y5970981D01*
X1383385Y5965545D01*
X1386484Y5960618D01*
X1390599Y5956554D01*
X1395476Y5953455D01*
X1400962Y5951524D01*
X1407261Y5950813D01*
X1487576Y5950813D01*
X1491894Y5949848D01*
X1495399Y5947105D01*
X1497634Y5944412D01*
X1520342Y5921705D01*
X1526540Y5916625D01*
X1533245Y5913018D01*
X1540459Y5910834D01*
X1548485Y5910072D01*
X1994611Y5910072D01*
X2002637Y5910834D01*
X2009851Y5913018D01*
X2016506Y5916625D01*
X2022754Y5921705D01*
X2060549Y5959500D01*
X2063851Y5961735D01*
X2067712Y5962497D01*
X2071624Y5961735D01*
X2074925Y5959500D01*
X2078024Y5956401D01*
X2082952Y5953302D01*
X2088388Y5951423D01*
X2094738Y5950712D01*
X2167940Y5950712D01*
X2171852Y5949899D01*
X2175103Y5947714D01*
X2177338Y5944412D01*
X2178100Y5940552D01*
X2178100Y5838647D01*
X2177338Y5834735D01*
X2175103Y5831433D01*
X2016556Y5672886D01*
X2012950Y5670550D01*
X2008632Y5669940D01*
X2004466Y5671210D01*
X2000961Y5673140D01*
X1985314Y5679643D01*
X1969058Y5684316D01*
X1952345Y5687161D01*
X1935480Y5688076D01*
X1918563Y5687161D01*
X1901901Y5684316D01*
X1885645Y5679643D01*
X1869998Y5673140D01*
X1855216Y5664962D01*
X1841398Y5655157D01*
X1828749Y5643880D01*
X1817522Y5631281D01*
X1807718Y5617464D01*
X1799539Y5602681D01*
X1793036Y5587034D01*
X1788363Y5570778D01*
X1785518Y5554116D01*
X1784553Y5537200D01*
X1785518Y5520283D01*
X1788363Y5503621D01*
X1793036Y5487365D01*
X1799539Y5471718D01*
X1807718Y5456936D01*
X1817522Y5443118D01*
X1828749Y5430520D01*
X1841398Y5419242D01*
X1855216Y5409438D01*
X1869998Y5401259D01*
X1885645Y5394756D01*
X1901901Y5390083D01*
X1918563Y5387238D01*
X1935480Y5386324D01*
X1952345Y5387238D01*
X1969058Y5390083D01*
X1985314Y5394756D01*
X2000961Y5401259D01*
X2015743Y5409438D01*
X2029561Y5419242D01*
X2042160Y5430520D01*
X2053437Y5443118D01*
X2063242Y5456936D01*
X2071420Y5471718D01*
X2077872Y5487365D01*
X2082596Y5503621D01*
X2085390Y5520283D01*
X2086356Y5537200D01*
X2085390Y5554116D01*
X2082596Y5570778D01*
X2077872Y5587034D01*
X2071420Y5602681D01*
X2069490Y5606186D01*
X2068220Y5610352D01*
X2068830Y5614670D01*
X2071166Y5618276D01*
X2229205Y5776315D01*
X2232456Y5778500D01*
X2236368Y5779312D01*
X2240280Y5778500D01*
X2243531Y5776315D01*
X2245766Y5773013D01*
X2246528Y5769152D01*
X2246528Y5690412D01*
X2245614Y5686196D01*
X2242972Y5682691D01*
X2239162Y5680659D01*
X2235657Y5679643D01*
X2220010Y5673140D01*
X2205177Y5664962D01*
X2191410Y5655157D01*
X2178761Y5643880D01*
X2167483Y5631281D01*
X2157730Y5617464D01*
X2149500Y5602681D01*
X2143048Y5587034D01*
X2138375Y5570778D01*
X2135530Y5554116D01*
X2134565Y5537200D01*
X2135530Y5520283D01*
X2138375Y5503621D01*
X2143048Y5487365D01*
X2149500Y5471718D01*
X2157730Y5456936D01*
X2167483Y5443118D01*
X2178761Y5430520D01*
X2191410Y5419242D01*
X2205177Y5409438D01*
X2220010Y5401259D01*
X2235657Y5394756D01*
X2251913Y5390083D01*
X2268575Y5387238D01*
X2285492Y5386324D01*
X2302357Y5387238D01*
X2319070Y5390083D01*
X2335326Y5394756D01*
X2350922Y5401259D01*
X2354478Y5403189D01*
X2358644Y5404459D01*
X2362962Y5403850D01*
X2366568Y5401513D01*
X2420874Y5347208D01*
X2427122Y5342128D01*
X2433777Y5338521D01*
X2440990Y5336336D01*
X2449017Y5335574D01*
X3374186Y5335574D01*
X3382213Y5336336D01*
X3389426Y5338521D01*
X3396081Y5342128D01*
X3402329Y5347208D01*
X3456584Y5401513D01*
X3460242Y5403850D01*
X3464560Y5404459D01*
X3468674Y5403189D01*
X3472230Y5401259D01*
X3487877Y5394756D01*
X3504133Y5390083D01*
X3520795Y5387238D01*
X3537712Y5386324D01*
X3554577Y5387238D01*
X3571290Y5390083D01*
X3587546Y5394756D01*
X3603142Y5401259D01*
X3606698Y5403189D01*
X3610864Y5404459D01*
X3615182Y5403850D01*
X3618788Y5401513D01*
X3679139Y5341213D01*
X3685336Y5336082D01*
X3692042Y5332526D01*
X3699256Y5330342D01*
G37*
G36*
X3321050Y8528050D02*
G01*
X3368243Y8528050D01*
X3364433Y8535619D01*
X3356711Y8546846D01*
X3347567Y8557006D01*
X3337153Y8565794D01*
X3325672Y8573109D01*
X3321050Y8575243D01*
G37*
G36*
X1489202Y8526526D02*
G01*
X1507998Y8526526D01*
X1526743Y8528456D01*
X1545183Y8532215D01*
X1563166Y8537854D01*
X1580489Y8545322D01*
X1596948Y8554466D01*
X1612392Y8565184D01*
X1626666Y8577478D01*
X1639671Y8591092D01*
X1651152Y8606028D01*
X1661160Y8621979D01*
X1669440Y8638895D01*
X1675993Y8656574D01*
X1680667Y8674760D01*
X1683562Y8693404D01*
X1684477Y8712200D01*
X1683562Y8730996D01*
X1680667Y8749639D01*
X1675993Y8767826D01*
X1669440Y8785504D01*
X1661160Y8802420D01*
X1651152Y8818372D01*
X1639671Y8833307D01*
X1626666Y8846921D01*
X1612392Y8859215D01*
X1596948Y8869934D01*
X1580489Y8879078D01*
X1563166Y8886545D01*
X1545183Y8892184D01*
X1526743Y8895943D01*
X1507998Y8897874D01*
X1489202Y8897874D01*
X1470456Y8895943D01*
X1452016Y8892184D01*
X1434033Y8886545D01*
X1416710Y8879078D01*
X1400251Y8869934D01*
X1384808Y8859215D01*
X1370533Y8846921D01*
X1357528Y8833307D01*
X1346047Y8818372D01*
X1336040Y8802420D01*
X1327759Y8785504D01*
X1321206Y8767826D01*
X1316532Y8749639D01*
X1313637Y8730996D01*
X1312722Y8712200D01*
X1313637Y8693404D01*
X1316532Y8674760D01*
X1321206Y8656574D01*
X1327759Y8638895D01*
X1336040Y8621979D01*
X1346047Y8606028D01*
X1357528Y8591092D01*
X1370533Y8577478D01*
X1384808Y8565184D01*
X1400251Y8554466D01*
X1416710Y8545322D01*
X1434033Y8537854D01*
X1452016Y8532215D01*
X1470456Y8528456D01*
G37*
G36*
X1585468Y5386324D02*
G01*
X1602384Y5387238D01*
X1619046Y5390083D01*
X1635302Y5394756D01*
X1650949Y5401259D01*
X1665732Y5409438D01*
X1679549Y5419242D01*
X1692148Y5430520D01*
X1703425Y5443118D01*
X1713230Y5456936D01*
X1721408Y5471718D01*
X1727911Y5487365D01*
X1732584Y5503621D01*
X1735429Y5520283D01*
X1736343Y5537200D01*
X1735429Y5554116D01*
X1732584Y5570778D01*
X1727911Y5587034D01*
X1721408Y5602681D01*
X1713230Y5617464D01*
X1703425Y5631281D01*
X1692148Y5643880D01*
X1679549Y5655157D01*
X1665732Y5664962D01*
X1650949Y5673140D01*
X1635302Y5679643D01*
X1619046Y5684316D01*
X1602384Y5687161D01*
X1585468Y5688076D01*
X1568551Y5687161D01*
X1551889Y5684316D01*
X1535633Y5679643D01*
X1519986Y5673140D01*
X1505204Y5664962D01*
X1491386Y5655157D01*
X1478788Y5643880D01*
X1467510Y5631281D01*
X1457706Y5617464D01*
X1449527Y5602681D01*
X1443024Y5587034D01*
X1438351Y5570778D01*
X1435506Y5554116D01*
X1434592Y5537200D01*
X1435506Y5520283D01*
X1438351Y5503621D01*
X1443024Y5487365D01*
X1449527Y5471718D01*
X1457706Y5456936D01*
X1467510Y5443118D01*
X1478788Y5430520D01*
X1491386Y5419242D01*
X1505204Y5409438D01*
X1519986Y5401259D01*
X1535633Y5394756D01*
X1551889Y5390083D01*
X1568551Y5387238D01*
G37*
G36*
X7382002Y8526526D02*
G01*
X7400798Y8526526D01*
X7419543Y8528456D01*
X7437983Y8532215D01*
X7455966Y8537854D01*
X7473289Y8545322D01*
X7489748Y8554466D01*
X7505192Y8565184D01*
X7519466Y8577478D01*
X7532471Y8591092D01*
X7543952Y8606028D01*
X7553959Y8621979D01*
X7562240Y8638895D01*
X7568793Y8656574D01*
X7573467Y8674760D01*
X7576362Y8693404D01*
X7577277Y8712200D01*
X7576362Y8730996D01*
X7573467Y8749639D01*
X7568793Y8767826D01*
X7562240Y8785504D01*
X7553959Y8802420D01*
X7543952Y8818372D01*
X7532471Y8833307D01*
X7519466Y8846921D01*
X7505192Y8859215D01*
X7489748Y8869934D01*
X7473289Y8879078D01*
X7455966Y8886545D01*
X7437983Y8892184D01*
X7419543Y8895943D01*
X7400798Y8897874D01*
X7382002Y8897874D01*
X7363256Y8895943D01*
X7344816Y8892184D01*
X7326833Y8886545D01*
X7309510Y8879078D01*
X7293051Y8869934D01*
X7277608Y8859215D01*
X7263333Y8846921D01*
X7250328Y8833307D01*
X7238847Y8818372D01*
X7228840Y8802420D01*
X7220559Y8785504D01*
X7214006Y8767826D01*
X7209332Y8749639D01*
X7206437Y8730996D01*
X7205522Y8712200D01*
X7206437Y8693404D01*
X7209332Y8674760D01*
X7214006Y8656574D01*
X7220559Y8638895D01*
X7228840Y8621979D01*
X7238847Y8606028D01*
X7250328Y8591092D01*
X7263333Y8577478D01*
X7277608Y8565184D01*
X7293051Y8554466D01*
X7309510Y8545322D01*
X7326833Y8537854D01*
X7344816Y8532215D01*
X7363256Y8528456D01*
G37*
G36*
X3321050Y8391956D02*
G01*
X3325672Y8394090D01*
X3337153Y8401405D01*
X3347567Y8410194D01*
X3356711Y8420354D01*
X3364433Y8431580D01*
X3368243Y8439150D01*
X3321050Y8439150D01*
G37*
G36*
X3232150Y8391804D02*
G01*
X3232150Y8439150D01*
X3184804Y8439150D01*
X3185464Y8437575D01*
X3192424Y8425840D01*
X3200908Y8415121D01*
X3210712Y8405622D01*
X3221685Y8397544D01*
G37*
G36*
X3527196Y8381593D02*
G01*
X3540810Y8382050D01*
X3554272Y8384286D01*
X3567277Y8388350D01*
X3579672Y8394090D01*
X3591153Y8401405D01*
X3601567Y8410194D01*
X3610711Y8420354D01*
X3618433Y8431580D01*
X3624579Y8443722D01*
X3629050Y8456625D01*
X3631793Y8469985D01*
X3632708Y8483600D01*
X3631793Y8497214D01*
X3629050Y8510574D01*
X3624579Y8523478D01*
X3618433Y8535619D01*
X3610711Y8546846D01*
X3601567Y8557006D01*
X3591153Y8565794D01*
X3579672Y8573109D01*
X3567277Y8578850D01*
X3554272Y8582914D01*
X3540810Y8585149D01*
X3527196Y8585606D01*
X3513632Y8584285D01*
X3500374Y8581085D01*
X3487623Y8576208D01*
X3475685Y8569655D01*
X3464712Y8561578D01*
X3454908Y8552078D01*
X3446424Y8541359D01*
X3439464Y8529624D01*
X3434181Y8517077D01*
X3430574Y8503920D01*
X3428746Y8490407D01*
X3428746Y8476792D01*
X3430574Y8463280D01*
X3434181Y8450122D01*
X3439464Y8437575D01*
X3446424Y8425840D01*
X3454908Y8415121D01*
X3464712Y8405622D01*
X3475685Y8397544D01*
X3487623Y8390991D01*
X3500374Y8386114D01*
X3513632Y8382914D01*
G37*
G36*
X3781196Y8381593D02*
G01*
X3794810Y8382050D01*
X3808272Y8384286D01*
X3821277Y8388350D01*
X3833672Y8394090D01*
X3845153Y8401405D01*
X3855567Y8410194D01*
X3864711Y8420354D01*
X3872433Y8431580D01*
X3878579Y8443722D01*
X3883050Y8456625D01*
X3885793Y8469985D01*
X3886708Y8483600D01*
X3885793Y8497214D01*
X3883050Y8510574D01*
X3878579Y8523478D01*
X3872433Y8535619D01*
X3864711Y8546846D01*
X3855567Y8557006D01*
X3845153Y8565794D01*
X3833672Y8573109D01*
X3821277Y8578850D01*
X3808272Y8582914D01*
X3794810Y8585149D01*
X3781196Y8585606D01*
X3767632Y8584285D01*
X3754374Y8581085D01*
X3741623Y8576208D01*
X3729685Y8569655D01*
X3718712Y8561578D01*
X3708908Y8552078D01*
X3700424Y8541359D01*
X3693464Y8529624D01*
X3688181Y8517077D01*
X3684574Y8503920D01*
X3682746Y8490407D01*
X3682746Y8476792D01*
X3684574Y8463280D01*
X3688181Y8450122D01*
X3693464Y8437575D01*
X3700424Y8425840D01*
X3708908Y8415121D01*
X3718712Y8405622D01*
X3729685Y8397544D01*
X3741623Y8390991D01*
X3754374Y8386114D01*
X3767632Y8382914D01*
G37*
G36*
X2402281Y8246364D02*
G01*
X2418080Y8246364D01*
X2433777Y8248192D01*
X2449169Y8251799D01*
X2464003Y8257235D01*
X2478125Y8264296D01*
X2491333Y8272983D01*
X2503474Y8283143D01*
X2514295Y8294674D01*
X2523744Y8307324D01*
X2531618Y8320989D01*
X2537917Y8335518D01*
X2542438Y8350656D01*
X2545181Y8366201D01*
X2546096Y8382000D01*
X2545181Y8397798D01*
X2542438Y8413343D01*
X2537917Y8428482D01*
X2531618Y8443010D01*
X2523744Y8456676D01*
X2514295Y8469325D01*
X2503474Y8480856D01*
X2491333Y8491016D01*
X2478125Y8499703D01*
X2464003Y8506764D01*
X2449169Y8512200D01*
X2433777Y8515807D01*
X2418080Y8517636D01*
X2402281Y8517636D01*
X2386584Y8515807D01*
X2371242Y8512200D01*
X2356358Y8506764D01*
X2342235Y8499703D01*
X2329078Y8491016D01*
X2316937Y8480856D01*
X2306116Y8469325D01*
X2296668Y8456676D01*
X2288743Y8443010D01*
X2282494Y8428482D01*
X2277973Y8413343D01*
X2275230Y8397798D01*
X2274316Y8382000D01*
X2275230Y8366201D01*
X2277973Y8350656D01*
X2282494Y8335518D01*
X2288743Y8320989D01*
X2296668Y8307324D01*
X2306116Y8294674D01*
X2316937Y8283143D01*
X2329078Y8272983D01*
X2342235Y8264296D01*
X2356358Y8257235D01*
X2371242Y8251799D01*
X2386584Y8248192D01*
G37*
G36*
X3527196Y8127593D02*
G01*
X3540810Y8128050D01*
X3554272Y8130286D01*
X3567277Y8134350D01*
X3579672Y8140090D01*
X3591153Y8147405D01*
X3601567Y8156194D01*
X3610711Y8166353D01*
X3618433Y8177580D01*
X3624579Y8189722D01*
X3629050Y8202625D01*
X3631793Y8215985D01*
X3632708Y8229600D01*
X3631793Y8243214D01*
X3629050Y8256574D01*
X3624579Y8269478D01*
X3618433Y8281619D01*
X3610711Y8292846D01*
X3601567Y8303006D01*
X3591153Y8311794D01*
X3579672Y8319109D01*
X3567277Y8324850D01*
X3554272Y8328914D01*
X3540810Y8331149D01*
X3527196Y8331606D01*
X3513632Y8330285D01*
X3500374Y8327085D01*
X3487623Y8322208D01*
X3475685Y8315655D01*
X3464712Y8307578D01*
X3454908Y8298078D01*
X3446424Y8287359D01*
X3439464Y8275624D01*
X3434181Y8263077D01*
X3430574Y8249920D01*
X3428746Y8236407D01*
X3428746Y8222792D01*
X3430574Y8209280D01*
X3434181Y8196122D01*
X3439464Y8183575D01*
X3446424Y8171840D01*
X3454908Y8161121D01*
X3464712Y8151622D01*
X3475685Y8143544D01*
X3487623Y8136991D01*
X3500374Y8132114D01*
X3513632Y8128914D01*
G37*
G36*
X3781196Y8127593D02*
G01*
X3794810Y8128050D01*
X3808272Y8130286D01*
X3821277Y8134350D01*
X3833672Y8140090D01*
X3845153Y8147405D01*
X3855567Y8156194D01*
X3864711Y8166353D01*
X3872433Y8177580D01*
X3878579Y8189722D01*
X3883050Y8202625D01*
X3885793Y8215985D01*
X3886708Y8229600D01*
X3885793Y8243214D01*
X3883050Y8256574D01*
X3878579Y8269478D01*
X3872433Y8281619D01*
X3864711Y8292846D01*
X3855567Y8303006D01*
X3845153Y8311794D01*
X3833672Y8319109D01*
X3821277Y8324850D01*
X3808272Y8328914D01*
X3794810Y8331149D01*
X3781196Y8331606D01*
X3767632Y8330285D01*
X3754374Y8327085D01*
X3741623Y8322208D01*
X3729685Y8315655D01*
X3718712Y8307578D01*
X3708908Y8298078D01*
X3700424Y8287359D01*
X3693464Y8275624D01*
X3688181Y8263077D01*
X3684574Y8249920D01*
X3682746Y8236407D01*
X3682746Y8222792D01*
X3684574Y8209280D01*
X3688181Y8196122D01*
X3693464Y8183575D01*
X3700424Y8171840D01*
X3708908Y8161121D01*
X3718712Y8151622D01*
X3729685Y8143544D01*
X3741623Y8136991D01*
X3754374Y8132114D01*
X3767632Y8128914D01*
G37*
G36*
X3273196Y8127593D02*
G01*
X3286810Y8128050D01*
X3300272Y8130286D01*
X3313277Y8134350D01*
X3325672Y8140090D01*
X3337153Y8147405D01*
X3347567Y8156194D01*
X3356711Y8166353D01*
X3364433Y8177580D01*
X3370579Y8189722D01*
X3375050Y8202625D01*
X3377793Y8215985D01*
X3378708Y8229600D01*
X3377793Y8243214D01*
X3375050Y8256574D01*
X3370579Y8269478D01*
X3364433Y8281619D01*
X3356711Y8292846D01*
X3347567Y8303006D01*
X3337153Y8311794D01*
X3325672Y8319109D01*
X3313277Y8324850D01*
X3300272Y8328914D01*
X3286810Y8331149D01*
X3273196Y8331606D01*
X3259632Y8330285D01*
X3246374Y8327085D01*
X3233623Y8322208D01*
X3221685Y8315655D01*
X3210712Y8307578D01*
X3200908Y8298078D01*
X3192424Y8287359D01*
X3185464Y8275624D01*
X3180181Y8263077D01*
X3176574Y8249920D01*
X3174746Y8236407D01*
X3174746Y8222792D01*
X3176574Y8209280D01*
X3180181Y8196122D01*
X3185464Y8183575D01*
X3192424Y8171840D01*
X3200908Y8161121D01*
X3210712Y8151622D01*
X3221685Y8143544D01*
X3233623Y8136991D01*
X3246374Y8132114D01*
X3259632Y8128914D01*
G37*
G36*
X1950618Y7732166D02*
G01*
X2111502Y7732166D01*
X2117801Y7732877D01*
X2123287Y7734808D01*
X2128164Y7737856D01*
X2132279Y7741970D01*
X2135327Y7746847D01*
X2137257Y7752334D01*
X2137968Y7758633D01*
X2137968Y7962138D01*
X2137257Y7968437D01*
X2135327Y7973923D01*
X2132279Y7978800D01*
X2128164Y7982915D01*
X2123287Y7986014D01*
X2117801Y7987893D01*
X2110181Y7988604D01*
X2106472Y7989316D01*
X2103272Y7991348D01*
X2101037Y7994345D01*
X2100021Y7998002D01*
X2100478Y8001762D01*
X2102205Y8005114D01*
X2106066Y8009940D01*
X2108606Y8013953D01*
X2110892Y8018272D01*
X2112772Y8022793D01*
X2114194Y8027416D01*
X2115261Y8032191D01*
X2115921Y8037017D01*
X2116124Y8042148D01*
X2116124Y8252002D01*
X2116785Y8255660D01*
X2118766Y8258860D01*
X2121712Y8261096D01*
X2128164Y8264296D01*
X2141372Y8272983D01*
X2153462Y8283143D01*
X2164283Y8294674D01*
X2173732Y8307324D01*
X2181656Y8320989D01*
X2187905Y8335518D01*
X2192426Y8350656D01*
X2195169Y8366201D01*
X2196084Y8382000D01*
X2195169Y8397798D01*
X2192426Y8413343D01*
X2187905Y8428482D01*
X2181656Y8443010D01*
X2173732Y8456676D01*
X2164283Y8469325D01*
X2153462Y8480856D01*
X2141372Y8491016D01*
X2128164Y8499703D01*
X2114042Y8506764D01*
X2099157Y8512200D01*
X2083816Y8515807D01*
X2068118Y8517636D01*
X2052320Y8517636D01*
X2036622Y8515807D01*
X2021230Y8512200D01*
X2006396Y8506764D01*
X1992274Y8499703D01*
X1979066Y8491016D01*
X1966925Y8480856D01*
X1956104Y8469325D01*
X1946656Y8456676D01*
X1938782Y8443010D01*
X1932533Y8428482D01*
X1927961Y8413343D01*
X1925218Y8397798D01*
X1924304Y8382000D01*
X1925218Y8366201D01*
X1927961Y8350656D01*
X1932533Y8335518D01*
X1938782Y8320989D01*
X1946656Y8307324D01*
X1956104Y8294674D01*
X1966925Y8283143D01*
X1979066Y8272983D01*
X1992274Y8264296D01*
X1998725Y8261096D01*
X2001672Y8258809D01*
X2003653Y8255660D01*
X2004314Y8252002D01*
X2004314Y8069275D01*
X2003552Y8065363D01*
X2001316Y8062061D01*
X1991664Y8052409D01*
X1988261Y8048650D01*
X1985264Y8044789D01*
X1982673Y8040674D01*
X1980387Y8036356D01*
X1978558Y8031835D01*
X1977085Y8027212D01*
X1976018Y8022437D01*
X1975357Y8017611D01*
X1975154Y8012531D01*
X1975154Y7998764D01*
X1974392Y7994903D01*
X1972157Y7991602D01*
X1968855Y7989366D01*
X1964994Y7988604D01*
X1950618Y7988604D01*
X1944319Y7987893D01*
X1938832Y7986014D01*
X1933956Y7982915D01*
X1929841Y7978800D01*
X1926793Y7973923D01*
X1924862Y7968437D01*
X1924151Y7962138D01*
X1924151Y7758633D01*
X1924862Y7752334D01*
X1926793Y7746847D01*
X1929841Y7741970D01*
X1933956Y7737856D01*
X1938832Y7734808D01*
X1944319Y7732877D01*
G37*
G36*
X5717794Y7376515D02*
G01*
X5761075Y7376515D01*
X5761075Y7438593D01*
X5744260Y7438593D01*
X5737961Y7437881D01*
X5732475Y7435951D01*
X5727598Y7432903D01*
X5723483Y7428788D01*
X5720435Y7423912D01*
X5718505Y7418425D01*
X5717794Y7412126D01*
G37*
G36*
X5387594Y7363815D02*
G01*
X5430875Y7363815D01*
X5430875Y7425893D01*
X5414060Y7425893D01*
X5407761Y7425181D01*
X5402275Y7423251D01*
X5397398Y7420203D01*
X5393283Y7416088D01*
X5390235Y7411212D01*
X5388305Y7405725D01*
X5387594Y7399426D01*
G37*
G36*
X5491124Y7363815D02*
G01*
X5534406Y7363815D01*
X5534406Y7399426D01*
X5533694Y7405725D01*
X5531764Y7411212D01*
X5528716Y7416088D01*
X5524601Y7420203D01*
X5519724Y7423251D01*
X5514238Y7425181D01*
X5507939Y7425893D01*
X5491124Y7425893D01*
G37*
G36*
X4262323Y7358989D02*
G01*
X4305604Y7358989D01*
X4305604Y7394600D01*
X4304893Y7400899D01*
X4303014Y7406386D01*
X4299915Y7411262D01*
X4295851Y7415377D01*
X4290923Y7418425D01*
X4285488Y7420356D01*
X4279138Y7421067D01*
X4262323Y7421067D01*
G37*
G36*
X4764887Y7358989D02*
G01*
X4808220Y7358989D01*
X4808220Y7421067D01*
X4791354Y7421067D01*
X4785055Y7420356D01*
X4779568Y7418425D01*
X4774692Y7415377D01*
X4770577Y7411262D01*
X4767529Y7406386D01*
X4765598Y7400899D01*
X4764887Y7394600D01*
G37*
G36*
X4868418Y7358989D02*
G01*
X4911699Y7358989D01*
X4911699Y7394600D01*
X4910988Y7400899D01*
X4909108Y7406386D01*
X4906010Y7411262D01*
X4901895Y7415377D01*
X4897018Y7418425D01*
X4891532Y7420356D01*
X4885232Y7421067D01*
X4868418Y7421067D01*
G37*
G36*
X4158792Y7358989D02*
G01*
X4202125Y7358989D01*
X4202125Y7421067D01*
X4185310Y7421067D01*
X4178960Y7420356D01*
X4173524Y7418425D01*
X4168597Y7415377D01*
X4164533Y7411262D01*
X4161434Y7406386D01*
X4159504Y7400899D01*
X4158792Y7394600D01*
G37*
G36*
X2946654Y7358989D02*
G01*
X2989935Y7358989D01*
X2989935Y7421067D01*
X2973120Y7421067D01*
X2966821Y7420356D01*
X2961335Y7418425D01*
X2956458Y7415377D01*
X2952343Y7411262D01*
X2949295Y7406386D01*
X2947365Y7400899D01*
X2946654Y7394600D01*
G37*
G36*
X4659528Y6469837D02*
G01*
X4669332Y6470700D01*
X4678832Y6473240D01*
X4687722Y6477406D01*
X4695748Y6483045D01*
X4702708Y6489954D01*
X4708347Y6498031D01*
X4712512Y6506921D01*
X4715052Y6516420D01*
X4715916Y6526225D01*
X4715052Y6535978D01*
X4712512Y6545478D01*
X4708347Y6554368D01*
X4702708Y6562445D01*
X4695748Y6569405D01*
X4687722Y6575044D01*
X4678832Y6579158D01*
X4669332Y6581698D01*
X4666996Y6581902D01*
X4663389Y6582918D01*
X4660392Y6585203D01*
X4658410Y6588353D01*
X4657699Y6592062D01*
X4657699Y6734606D01*
X4656988Y6740956D01*
X4655108Y6746392D01*
X4652010Y6751320D01*
X4647895Y6755384D01*
X4643018Y6758482D01*
X4637532Y6760362D01*
X4631232Y6761073D01*
X4537354Y6761073D01*
X4531055Y6760362D01*
X4525568Y6758482D01*
X4520692Y6755384D01*
X4516577Y6751320D01*
X4513529Y6746392D01*
X4511598Y6740956D01*
X4510887Y6734606D01*
X4510887Y6565747D01*
X4511598Y6559448D01*
X4513529Y6553962D01*
X4516577Y6549085D01*
X4520692Y6544970D01*
X4525568Y6541922D01*
X4531055Y6539992D01*
X4537456Y6539280D01*
X4540758Y6538315D01*
X4543552Y6536283D01*
X4545533Y6533489D01*
X4548682Y6522516D01*
X4552238Y6515862D01*
X4557014Y6510020D01*
X4562856Y6505244D01*
X4569561Y6501638D01*
X4576775Y6499453D01*
X4584801Y6498691D01*
X4604969Y6498691D01*
X4608169Y6498132D01*
X4611014Y6496659D01*
X4613300Y6494322D01*
X4616348Y6489954D01*
X4623308Y6483045D01*
X4631334Y6477406D01*
X4640224Y6473240D01*
X4649724Y6470700D01*
G37*
G36*
X3552748Y7358989D02*
G01*
X3596030Y7358989D01*
X3596030Y7421067D01*
X3579215Y7421067D01*
X3572865Y7420356D01*
X3567429Y7418425D01*
X3562502Y7415377D01*
X3558438Y7411262D01*
X3555339Y7406386D01*
X3553460Y7400899D01*
X3552748Y7394600D01*
G37*
G36*
X3656228Y7358989D02*
G01*
X3699560Y7358989D01*
X3699560Y7394600D01*
X3698849Y7400899D01*
X3696919Y7406386D01*
X3693820Y7411262D01*
X3689756Y7415377D01*
X3684828Y7418425D01*
X3679393Y7420356D01*
X3673043Y7421067D01*
X3656228Y7421067D01*
G37*
G36*
X7382002Y4614926D02*
G01*
X7400798Y4614926D01*
X7419543Y4616856D01*
X7437983Y4620615D01*
X7455966Y4626254D01*
X7473289Y4633722D01*
X7489748Y4642866D01*
X7505192Y4653584D01*
X7519466Y4665878D01*
X7532471Y4679492D01*
X7543952Y4694428D01*
X7553959Y4710379D01*
X7562240Y4727295D01*
X7568793Y4744974D01*
X7573467Y4763160D01*
X7576362Y4781804D01*
X7577277Y4800600D01*
X7576362Y4819396D01*
X7573467Y4838039D01*
X7568793Y4856226D01*
X7562240Y4873904D01*
X7553959Y4890820D01*
X7543952Y4906772D01*
X7532471Y4921707D01*
X7519466Y4935321D01*
X7505192Y4947615D01*
X7489748Y4958334D01*
X7473289Y4967478D01*
X7455966Y4974945D01*
X7437983Y4980584D01*
X7419543Y4984343D01*
X7400798Y4986274D01*
X7382002Y4986274D01*
X7363256Y4984343D01*
X7344816Y4980584D01*
X7326833Y4974945D01*
X7309510Y4967478D01*
X7293051Y4958334D01*
X7277608Y4947615D01*
X7263333Y4935321D01*
X7250328Y4921707D01*
X7238847Y4906772D01*
X7228840Y4890820D01*
X7220559Y4873904D01*
X7214006Y4856226D01*
X7209332Y4838039D01*
X7206437Y4819396D01*
X7205522Y4800600D01*
X7206437Y4781804D01*
X7209332Y4763160D01*
X7214006Y4744974D01*
X7220559Y4727295D01*
X7228840Y4710379D01*
X7238847Y4694428D01*
X7250328Y4679492D01*
X7263333Y4665878D01*
X7277608Y4653584D01*
X7293051Y4642866D01*
X7309510Y4633722D01*
X7326833Y4626254D01*
X7344816Y4620615D01*
X7363256Y4616856D01*
G37*
G36*
X5744260Y7216800D02*
G01*
X5761075Y7216800D01*
X5761075Y7278827D01*
X5717794Y7278827D01*
X5717794Y7243267D01*
X5718505Y7236917D01*
X5720435Y7231481D01*
X5723483Y7226553D01*
X5727598Y7222490D01*
X5732475Y7219391D01*
X5737961Y7217511D01*
G37*
G36*
X5491124Y7204100D02*
G01*
X5507939Y7204100D01*
X5514238Y7204811D01*
X5519724Y7206691D01*
X5524601Y7209790D01*
X5528716Y7213853D01*
X5531764Y7218781D01*
X5533694Y7224217D01*
X5534406Y7230567D01*
X5534406Y7266127D01*
X5491124Y7266127D01*
G37*
G36*
X3579215Y7199274D02*
G01*
X3596030Y7199274D01*
X3596030Y7261301D01*
X3552748Y7261301D01*
X3552748Y7225741D01*
X3553460Y7219391D01*
X3555339Y7213955D01*
X3558438Y7209028D01*
X3562502Y7204964D01*
X3567429Y7201865D01*
X3572865Y7199985D01*
G37*
G36*
X3656228Y7199274D02*
G01*
X3673043Y7199274D01*
X3679393Y7199985D01*
X3684828Y7201865D01*
X3689756Y7204964D01*
X3693820Y7209028D01*
X3696919Y7213955D01*
X3698849Y7219391D01*
X3699560Y7225741D01*
X3699560Y7261301D01*
X3656228Y7261301D01*
G37*
G36*
X3050184Y7199274D02*
G01*
X3066999Y7199274D01*
X3073298Y7199985D01*
X3078784Y7201865D01*
X3083661Y7204964D01*
X3087776Y7209028D01*
X3090824Y7213955D01*
X3092754Y7219391D01*
X3093466Y7225741D01*
X3093466Y7261301D01*
X3050184Y7261301D01*
G37*
G36*
X2973120Y7199274D02*
G01*
X2989935Y7199274D01*
X2989935Y7261301D01*
X2946654Y7261301D01*
X2946654Y7225741D01*
X2947365Y7219391D01*
X2949295Y7213955D01*
X2952343Y7209028D01*
X2956458Y7204964D01*
X2961335Y7201865D01*
X2966821Y7199985D01*
G37*
G36*
X4262323Y7199274D02*
G01*
X4279138Y7199274D01*
X4285488Y7199985D01*
X4290923Y7201865D01*
X4295851Y7204964D01*
X4299915Y7209028D01*
X4303014Y7213955D01*
X4304893Y7219391D01*
X4305604Y7225741D01*
X4305604Y7261301D01*
X4262323Y7261301D01*
G37*
G36*
X4185310Y7199274D02*
G01*
X4202125Y7199274D01*
X4202125Y7261301D01*
X4158792Y7261301D01*
X4158792Y7225741D01*
X4159504Y7219391D01*
X4161434Y7213955D01*
X4164533Y7209028D01*
X4168597Y7204964D01*
X4173524Y7201865D01*
X4178960Y7199985D01*
G37*
G36*
X4791354Y7199274D02*
G01*
X4808220Y7199274D01*
X4808220Y7261301D01*
X4764887Y7261301D01*
X4764887Y7225741D01*
X4765598Y7219391D01*
X4767529Y7213955D01*
X4770577Y7209028D01*
X4774692Y7204964D01*
X4779568Y7201865D01*
X4785055Y7199985D01*
G37*
G36*
X4868418Y7199274D02*
G01*
X4885232Y7199274D01*
X4891532Y7199985D01*
X4897018Y7201865D01*
X4901895Y7204964D01*
X4906010Y7209028D01*
X4909108Y7213955D01*
X4910988Y7219391D01*
X4911699Y7225741D01*
X4911699Y7261301D01*
X4868418Y7261301D01*
G37*
G36*
X3931310Y7199274D02*
G01*
X4025137Y7199274D01*
X4031487Y7199985D01*
X4036923Y7201865D01*
X4041851Y7204964D01*
X4045915Y7209028D01*
X4049014Y7213955D01*
X4050893Y7219391D01*
X4051604Y7225741D01*
X4051604Y7394600D01*
X4050893Y7400899D01*
X4049014Y7406386D01*
X4045915Y7411262D01*
X4041851Y7415377D01*
X4036923Y7418425D01*
X4031487Y7420356D01*
X4025036Y7421067D01*
X4021734Y7422032D01*
X4018940Y7424064D01*
X4017010Y7426858D01*
X4013860Y7437831D01*
X4010304Y7444486D01*
X4005173Y7450734D01*
X3928719Y7527188D01*
X3926484Y7530592D01*
X3925722Y7534605D01*
X3926636Y7538567D01*
X3929024Y7541869D01*
X3932529Y7543952D01*
X3934256Y7544562D01*
X3939184Y7547660D01*
X3943248Y7551724D01*
X3946347Y7556652D01*
X3948226Y7562088D01*
X3948937Y7568438D01*
X3948937Y7647940D01*
X3948226Y7654239D01*
X3946347Y7659725D01*
X3943248Y7664602D01*
X3939184Y7668717D01*
X3934256Y7671765D01*
X3928211Y7673898D01*
X3924655Y7676032D01*
X3922217Y7679436D01*
X3921404Y7683500D01*
X3922217Y7687564D01*
X3924655Y7690967D01*
X3928211Y7693101D01*
X3934256Y7695234D01*
X3939184Y7698282D01*
X3943248Y7702397D01*
X3946347Y7707274D01*
X3948226Y7712760D01*
X3948937Y7719059D01*
X3948937Y7798562D01*
X3948226Y7804912D01*
X3946347Y7810347D01*
X3943248Y7815275D01*
X3939184Y7819339D01*
X3934256Y7822438D01*
X3928821Y7824368D01*
X3922471Y7825079D01*
X3837228Y7825079D01*
X3830878Y7824368D01*
X3825443Y7822438D01*
X3820515Y7819339D01*
X3816451Y7815275D01*
X3813352Y7810347D01*
X3811473Y7804912D01*
X3810762Y7798562D01*
X3810762Y7726070D01*
X3809949Y7722209D01*
X3807764Y7718907D01*
X3804462Y7716672D01*
X3800601Y7715910D01*
X3750259Y7715910D01*
X3746347Y7716672D01*
X3743045Y7718907D01*
X3741470Y7720482D01*
X3733393Y7726121D01*
X3724503Y7730286D01*
X3715004Y7732826D01*
X3705250Y7733690D01*
X3695446Y7732826D01*
X3685946Y7730286D01*
X3677056Y7726121D01*
X3668979Y7720482D01*
X3662019Y7713522D01*
X3656431Y7705496D01*
X3652265Y7696606D01*
X3649726Y7687106D01*
X3648862Y7677302D01*
X3649726Y7667498D01*
X3652265Y7658049D01*
X3656431Y7649108D01*
X3662019Y7641081D01*
X3668979Y7634122D01*
X3677056Y7628483D01*
X3685946Y7624318D01*
X3695446Y7621778D01*
X3705250Y7620965D01*
X3715004Y7621778D01*
X3724503Y7624318D01*
X3733393Y7628483D01*
X3741470Y7634122D01*
X3743045Y7635748D01*
X3746347Y7637932D01*
X3750259Y7638694D01*
X3800601Y7638694D01*
X3804462Y7637932D01*
X3807764Y7635748D01*
X3809949Y7632446D01*
X3810762Y7628534D01*
X3810762Y7568438D01*
X3811473Y7562088D01*
X3813352Y7556652D01*
X3816451Y7551724D01*
X3820515Y7547660D01*
X3825443Y7544562D01*
X3830878Y7542631D01*
X3835755Y7541463D01*
X3838651Y7539177D01*
X3840581Y7536027D01*
X3841242Y7532420D01*
X3841242Y7521956D01*
X3842054Y7513929D01*
X3844239Y7506716D01*
X3847795Y7500010D01*
X3852926Y7493812D01*
X3915867Y7430820D01*
X3918102Y7427518D01*
X3918864Y7423556D01*
X3918051Y7419644D01*
X3915765Y7416342D01*
X3910482Y7411212D01*
X3907434Y7406386D01*
X3905504Y7400899D01*
X3904792Y7394600D01*
X3904792Y7225741D01*
X3905504Y7219391D01*
X3907434Y7213955D01*
X3910533Y7209028D01*
X3914597Y7204964D01*
X3919524Y7201865D01*
X3924960Y7199985D01*
G37*
G36*
X3325215Y7199274D02*
G01*
X3419043Y7199274D01*
X3425393Y7199985D01*
X3430828Y7201865D01*
X3435756Y7204964D01*
X3439820Y7209028D01*
X3442919Y7213955D01*
X3444849Y7219391D01*
X3445560Y7225741D01*
X3445611Y7397851D01*
X3446627Y7400747D01*
X3448405Y7403185D01*
X3557524Y7512303D01*
X3562654Y7518501D01*
X3566210Y7525207D01*
X3568395Y7532420D01*
X3569411Y7536637D01*
X3571392Y7539481D01*
X3574186Y7541463D01*
X3579571Y7542631D01*
X3585006Y7544562D01*
X3589934Y7547660D01*
X3593998Y7551724D01*
X3597097Y7556652D01*
X3599027Y7562088D01*
X3599738Y7568438D01*
X3599738Y7647940D01*
X3599027Y7654239D01*
X3597097Y7659725D01*
X3593998Y7664602D01*
X3589934Y7668717D01*
X3585006Y7671765D01*
X3578961Y7673898D01*
X3575405Y7676032D01*
X3572967Y7679436D01*
X3572154Y7683500D01*
X3572967Y7687564D01*
X3575405Y7690967D01*
X3578961Y7693101D01*
X3585006Y7695234D01*
X3589934Y7698282D01*
X3593998Y7702397D01*
X3597097Y7707274D01*
X3599027Y7712760D01*
X3599738Y7719059D01*
X3599738Y7778292D01*
X3600500Y7782204D01*
X3602685Y7785506D01*
X3605987Y7787690D01*
X3609898Y7788452D01*
X3635552Y7788452D01*
X3643579Y7789265D01*
X3650792Y7791450D01*
X3657498Y7795006D01*
X3663696Y7800136D01*
X3994556Y8130946D01*
X3997756Y8133130D01*
X4001566Y8133943D01*
X4005376Y8133232D01*
X4008374Y8132114D01*
X4021632Y8128914D01*
X4035196Y8127593D01*
X4048810Y8128050D01*
X4062272Y8130286D01*
X4075277Y8134350D01*
X4087672Y8140090D01*
X4099153Y8147405D01*
X4109567Y8156194D01*
X4118711Y8166353D01*
X4126433Y8177580D01*
X4132579Y8189722D01*
X4137050Y8202625D01*
X4139793Y8215985D01*
X4140708Y8229600D01*
X4139793Y8243214D01*
X4137050Y8256574D01*
X4132579Y8269478D01*
X4126433Y8281619D01*
X4118711Y8292846D01*
X4109567Y8303006D01*
X4099153Y8311794D01*
X4087672Y8319109D01*
X4075277Y8324850D01*
X4062272Y8328914D01*
X4048810Y8331149D01*
X4035196Y8331606D01*
X4021632Y8330285D01*
X4008374Y8327085D01*
X3995623Y8322208D01*
X3983685Y8315655D01*
X3972712Y8307578D01*
X3962908Y8298078D01*
X3954424Y8287359D01*
X3947464Y8275624D01*
X3942181Y8263077D01*
X3938574Y8249920D01*
X3936746Y8236407D01*
X3936746Y8222792D01*
X3938574Y8209280D01*
X3942435Y8195309D01*
X3942740Y8191753D01*
X3941826Y8188299D01*
X3939794Y8185403D01*
X3623056Y7868666D01*
X3619754Y7866430D01*
X3615842Y7865668D01*
X3531108Y7865668D01*
X3523081Y7864906D01*
X3515868Y7862671D01*
X3509162Y7859115D01*
X3503320Y7854340D01*
X3498545Y7848498D01*
X3494989Y7841843D01*
X3492804Y7834579D01*
X3491788Y7830362D01*
X3489807Y7827518D01*
X3487013Y7825536D01*
X3481679Y7824368D01*
X3476193Y7822438D01*
X3471316Y7819339D01*
X3467201Y7815275D01*
X3464102Y7810347D01*
X3462223Y7804912D01*
X3461512Y7798562D01*
X3461512Y7719059D01*
X3462223Y7712760D01*
X3464102Y7707274D01*
X3467201Y7702397D01*
X3471316Y7698282D01*
X3476193Y7695234D01*
X3482289Y7693101D01*
X3485845Y7690967D01*
X3488232Y7687564D01*
X3489096Y7683500D01*
X3488232Y7679436D01*
X3485845Y7676032D01*
X3482289Y7673898D01*
X3476193Y7671765D01*
X3471316Y7668717D01*
X3467201Y7664602D01*
X3464102Y7659725D01*
X3462223Y7654239D01*
X3461512Y7647940D01*
X3461512Y7568438D01*
X3462223Y7562088D01*
X3464102Y7556652D01*
X3467201Y7551724D01*
X3470300Y7548625D01*
X3472535Y7545324D01*
X3473297Y7541463D01*
X3472535Y7537551D01*
X3470300Y7534249D01*
X3400704Y7464653D01*
X3397402Y7462469D01*
X3393541Y7461707D01*
X3372612Y7461707D01*
X3364585Y7460894D01*
X3357372Y7458709D01*
X3350717Y7455153D01*
X3344875Y7450328D01*
X3340049Y7444486D01*
X3336493Y7437831D01*
X3333343Y7426858D01*
X3331413Y7424064D01*
X3328619Y7422032D01*
X3325317Y7421067D01*
X3318865Y7420356D01*
X3313429Y7418425D01*
X3308502Y7415377D01*
X3304438Y7411262D01*
X3301339Y7406386D01*
X3299460Y7400899D01*
X3298748Y7394600D01*
X3298748Y7225741D01*
X3299460Y7219391D01*
X3301339Y7213955D01*
X3304438Y7209028D01*
X3308502Y7204964D01*
X3313429Y7201865D01*
X3318865Y7199985D01*
G37*
G36*
X5414060Y7204100D02*
G01*
X5430875Y7204100D01*
X5430875Y7266127D01*
X5387594Y7266127D01*
X5387594Y7230567D01*
X5388305Y7224217D01*
X5390235Y7218781D01*
X5393283Y7213853D01*
X5397398Y7209790D01*
X5402275Y7206691D01*
X5407761Y7204811D01*
G37*
G36*
X3050184Y7358989D02*
G01*
X3093466Y7358989D01*
X3093466Y7394600D01*
X3092754Y7400899D01*
X3090824Y7406386D01*
X3087776Y7411262D01*
X3083661Y7415377D01*
X3078784Y7418425D01*
X3073298Y7420356D01*
X3066999Y7421067D01*
X3050184Y7421067D01*
G37*

%LPD*%
D10*
X2032939Y7379596D02*
G01*
X2479141Y7379596D01*
X3113836Y6744901D01*
X3113836Y6328849D01*
X2963799Y6178811D01*
X2512364Y6178811D01*
X2353360Y6019807D01*
X7138263Y6019807D02*
G01*
X7070039Y6019807D01*
X7070039Y6019807D02*
G01*
X6998893Y5948662D01*
X6495465Y5948662D01*
X6417386Y6026741D01*
X6344462Y6026741D02*
G01*
X6271539Y6099665D01*
X6016167Y6099665D01*
X5852947Y6262885D01*
X5461000Y6262885D01*
X6417386Y6026741D02*
G01*
X6344462Y6026741D01*
X5461000Y6337307D02*
G01*
X5461000Y6262885D01*
X4038600Y8483607D02*
G01*
X4151198Y8371009D01*
X4591024Y8371009D01*
X4968773Y7993260D01*
X6044107Y7993260D01*
X6604000Y7433368D01*
X6604000Y7365144D02*
G01*
X6604000Y7433368D01*
X4838293Y6650184D02*
G01*
X4795799Y6607690D01*
X4795799Y6389707D01*
X4848199Y6337307D01*
X4848199Y6337307D02*
G01*
X4848199Y6254300D01*
X5565292Y5537207D01*
X5692140Y5537207D01*
X4799736Y6019807D02*
G01*
X4799736Y5547012D01*
X4789931Y5537207D01*
X7288936Y6019807D02*
G01*
X7220686Y6019807D01*
X2285136Y6019807D02*
G01*
X2353360Y6019807D01*
X3529736Y6019807D02*
G01*
X3529736Y5545183D01*
X3537711Y5537207D01*
X2285136Y6019807D02*
G01*
X2285136Y5537563D01*
X2285491Y5537207D01*
X2285491Y5537207D02*
G01*
X2448534Y5374165D01*
X3374669Y5374165D01*
X3537711Y5537207D01*
X4789931Y5368145D02*
G01*
X4789931Y5537207D01*
X3537711Y5537207D02*
G01*
X3706774Y5368145D01*
X4789931Y5368145D01*
X4789931Y5368145D02*
G01*
X5873089Y5368145D01*
X6042152Y5537207D01*
X7294372Y5537207D02*
G01*
X7136612Y5379448D01*
X6199911Y5379448D01*
X6042152Y5537207D01*
X6264960Y6451607D02*
G01*
X6315379Y6401188D01*
X7033691Y6401188D01*
X6057900Y8147565D02*
G01*
X6675297Y7530167D01*
X6675297Y7114827D01*
X6977786Y6812338D01*
X7097826Y6812338D01*
X7195947Y6714218D01*
X7195947Y6563443D01*
X7033691Y6401188D01*
X7033691Y6401188D02*
G01*
X7220686Y6214193D01*
X7220686Y6019807D01*
X6196736Y6451607D02*
G01*
X6264960Y6451607D01*
X6044336Y6019807D02*
G01*
X6112560Y6019807D01*
X7288936Y5896160D02*
G01*
X6236208Y5896160D01*
X6112560Y6019807D01*
X7288936Y6019807D02*
G01*
X7288936Y5896160D01*
X7288936Y5896160D02*
G01*
X7288936Y5542643D01*
X7294372Y5537207D01*
X5461000Y6655010D02*
G01*
X5461000Y6464307D01*
X5461000Y6464307D02*
G01*
X5414899Y6418206D01*
X5414899Y6229484D01*
X5422290Y6222093D01*
X5814618Y6222093D01*
X5962091Y6074620D01*
X5962091Y5977516D01*
X6178422Y5761184D01*
X6720382Y5761184D01*
X6944359Y5537207D01*
X4232224Y6650184D02*
G01*
X4232224Y6537281D01*
X4232224Y6537281D02*
G01*
X4235475Y6534030D01*
X4235475Y6464307D01*
X4235475Y6464307D02*
G01*
X4333240Y6464307D01*
X4717491Y6080056D01*
X4717491Y5814778D01*
X4439920Y5537207D01*
X3020059Y6650184D02*
G01*
X3062300Y6607944D01*
X3062300Y6389707D01*
X3009900Y6337307D01*
X3009900Y6337307D02*
G01*
X2475534Y6337307D01*
X2216708Y6078481D01*
X2216708Y5818436D01*
X1935479Y5537207D01*
X5168900Y8147565D02*
G01*
X5168900Y8171263D01*
X5283885Y8286249D01*
X6079997Y8286249D01*
X6838873Y7527373D01*
X6838873Y7181908D01*
X7035800Y6984982D01*
X3626129Y6537281D02*
G01*
X3622700Y6533852D01*
X3622700Y6464307D01*
X3626129Y6640202D02*
G01*
X3626129Y6537281D01*
X3626129Y6640202D02*
G01*
X3626129Y6650184D01*
X3626129Y6763113D02*
G01*
X3625951Y6763291D01*
X3303930Y6763291D01*
X3257397Y6716758D01*
X3257397Y6399639D01*
X2995777Y6138019D01*
X2683230Y6138019D01*
X2643962Y6098750D01*
X2643962Y5954097D01*
X3060852Y5537207D01*
X3187700Y5537207D01*
X3626129Y6650184D02*
G01*
X3626129Y6763113D01*
X4580839Y6019807D02*
G01*
X4506798Y5945766D01*
X4034561Y5945766D01*
X3953586Y6026741D01*
X4649063Y6019807D02*
G01*
X4614951Y6019807D01*
X4614951Y6019807D02*
G01*
X4580839Y6019807D01*
X4614951Y6019807D02*
G01*
X4371873Y6262885D01*
X4235475Y6262885D01*
X4235475Y6337307D02*
G01*
X4235475Y6262885D01*
X2066239Y6019807D02*
G01*
X1995093Y5948662D01*
X1547977Y5948662D01*
X1524584Y5972055D01*
X1524584Y6026741D01*
X1451686Y6026741D02*
G01*
X1524584Y6026741D01*
X2134463Y6019807D02*
G01*
X2114753Y6019807D01*
X2114753Y6019807D02*
G01*
X2066239Y6019807D01*
X2114753Y6019807D02*
G01*
X2114753Y6038578D01*
X2540482Y6464307D01*
X3009900Y6464307D01*
X5825439Y6019807D02*
G01*
X5754293Y5948662D01*
X5288965Y5948662D01*
X5210886Y6026741D01*
X5859551Y6019807D02*
G01*
X5868187Y6019807D01*
X5859551Y6019807D02*
G01*
X5825439Y6019807D01*
X5893663Y6019807D02*
G01*
X5868187Y6019807D01*
X4848199Y6464307D02*
G01*
X5134711Y6177795D01*
X5710199Y6177795D01*
X5868187Y6019807D01*
X3447313Y6019807D02*
G01*
X3447313Y6087498D01*
X3622700Y6262885D01*
X3622700Y6337307D02*
G01*
X3622700Y6262885D01*
X3392017Y6019807D02*
G01*
X3447313Y6019807D01*
X3392017Y6019807D02*
G01*
X3384626Y6019807D01*
X3379063Y6019807D02*
G01*
X3384626Y6019807D01*
X3384626Y6019807D02*
G01*
X3313480Y5948662D01*
X2817977Y5948662D01*
X2794584Y5972055D01*
X2794584Y6026741D01*
X2721686Y6026741D02*
G01*
X2794584Y6026741D01*
D11*
X2060219Y8382007D02*
G01*
X2060219Y8041901D01*
X2031060Y8012742D01*
X2031060Y7860393D02*
G01*
X2031060Y8012742D01*
D10*
X3372129Y6650184D02*
G01*
X3372129Y6434284D01*
X2964586Y6026741D01*
X2891688Y6026741D02*
G01*
X2964586Y6026741D01*
X2766059Y6537281D02*
G01*
X2205126Y6537281D01*
X1694586Y6026741D01*
X2766059Y6650184D02*
G01*
X2766059Y6537281D01*
X1621688Y6026741D02*
G01*
X1694586Y6026741D01*
X3978224Y6537281D02*
G01*
X4050665Y6464841D01*
X4050665Y6026741D01*
X4123588Y6026741D02*
G01*
X4050665Y6026741D01*
X3978224Y6650184D02*
G01*
X3978224Y6537281D01*
X5207000Y6767939D02*
G01*
X5207177Y6768117D01*
X5529199Y6768117D01*
X5536590Y6760725D01*
X5536590Y6738754D01*
X6020739Y6254605D01*
X6341287Y6254605D01*
X6514465Y6081428D01*
X6514465Y6026741D01*
X5207000Y6655010D02*
G01*
X5207000Y6767939D01*
X6587388Y6026741D02*
G01*
X6514465Y6026741D01*
X6045200Y7214776D02*
G01*
X6125718Y7214776D01*
X6604000Y6736494D01*
X6045200Y7327704D02*
G01*
X6045200Y7214776D01*
X6604000Y6663596D02*
G01*
X6604000Y6736494D01*
X6604000Y7282721D02*
G01*
X6535750Y7282721D01*
X6077127Y7741343D01*
X6011443Y7741343D01*
X5989091Y7718991D01*
X5989091Y7461130D01*
X5968745Y7440785D01*
X5968745Y7147059D01*
X6549313Y6566491D01*
X6604000Y6566491D01*
X6604000Y7214471D02*
G01*
X6604000Y7282721D01*
X6604000Y6493593D02*
G01*
X6604000Y6566491D01*
X6045200Y6554807D02*
G01*
X6046063Y6553944D01*
X6046063Y6451607D01*
X6045200Y6667710D02*
G01*
X6045200Y6554807D01*
X3530600Y7827068D02*
G01*
X3636060Y7827068D01*
X4038600Y8229607D01*
X3530600Y7758844D02*
G01*
X3530600Y7827068D01*
X3372129Y7423081D02*
G01*
X3413734Y7423081D01*
X3530600Y7539946D01*
X3530600Y7608171D02*
G01*
X3530600Y7539946D01*
X3372129Y7310178D02*
G01*
X3372129Y7423081D01*
X2766059Y7423081D02*
G01*
X2951149Y7608171D01*
X3181350Y7608171D01*
X2766059Y7310178D02*
G01*
X2766059Y7423081D01*
X3978224Y7423081D02*
G01*
X3879850Y7521455D01*
X3879850Y7608171D01*
X3978224Y7310178D02*
G01*
X3978224Y7423081D01*
X4584293Y7423081D02*
G01*
X4578350Y7429025D01*
X4578350Y7608171D01*
X4584293Y7310178D02*
G01*
X4584293Y7423081D01*
X4229100Y7608171D02*
G01*
X4297527Y7676598D01*
X4845405Y7676598D01*
X5094097Y7427907D01*
X5207000Y7427907D01*
X5207000Y7315004D02*
G01*
X5207000Y7427907D01*
X5168900Y7600449D02*
G01*
X5168900Y7632174D01*
X5274106Y7737381D01*
X5837326Y7737381D01*
X5866790Y7707917D01*
X5866790Y6856229D01*
X5791200Y6780639D01*
X5791200Y6667710D02*
G01*
X5791200Y6780639D01*
D11*
X7035800Y6634995D02*
G01*
X7023354Y6634995D01*
X6057900Y7600449D01*
D10*
X4035196Y7677310D02*
G01*
X4215815Y7677310D01*
X4229100Y7690594D01*
X4229100Y7758844D02*
G01*
X4229100Y7690594D01*
X4578350Y7758844D02*
G01*
X4507229Y7758844D01*
X4507229Y7758844D02*
G01*
X4486452Y7738066D01*
X4378731Y7738066D01*
X3052038Y7738066D02*
G01*
X3089452Y7738066D01*
X3110229Y7758844D01*
X3181350Y7758844D02*
G01*
X3110229Y7758844D01*
X5380888Y6026741D02*
G01*
X5307965Y6026741D01*
X5100624Y6104846D02*
G01*
X5284546Y6104846D01*
X5307965Y6081428D01*
X5307965Y6026741D01*
X4584293Y6537281D02*
G01*
X4648454Y6537281D01*
X4659528Y6526207D01*
X4584293Y6650184D02*
G01*
X4584293Y6537281D01*
X5791200Y7440607D02*
G01*
X5473700Y7440607D01*
X5461000Y7427907D01*
X5791200Y7327704D02*
G01*
X5791200Y7440607D01*
X5461000Y7315004D02*
G01*
X5461000Y7371468D01*
X5461000Y7371468D02*
G01*
X5461000Y7427907D01*
X5461000Y7371468D02*
G01*
X5286781Y7197250D01*
X4838293Y7197250D01*
X4838293Y7310178D02*
G01*
X4838293Y7207333D01*
X4838293Y7207333D02*
G01*
X4838293Y7197250D01*
X4232224Y7310178D02*
G01*
X4232224Y7197250D01*
X3626129Y7310178D02*
G01*
X3626129Y7197250D01*
X4232224Y7197072D02*
G01*
X4232224Y7197250D01*
X4838293Y7197250D02*
G01*
X4838115Y7197072D01*
X4232224Y7197072D01*
X3626129Y7197072D02*
G01*
X3626129Y7197250D01*
X4232224Y7197072D02*
G01*
X3626129Y7197072D01*
X3626129Y7197072D02*
G01*
X3020237Y7197072D01*
X3020059Y7197250D01*
X3020059Y7253714D02*
G01*
X3020059Y7197250D01*
X3020059Y7253714D02*
G01*
X3020059Y7310178D01*
X3020059Y7310178D02*
G01*
X3020059Y7423081D01*
X3020059Y7423081D02*
G01*
X2934106Y7423081D01*
X3705225Y7677310D02*
G01*
X3866565Y7677310D01*
X3879850Y7690594D01*
X3879850Y7758844D02*
G01*
X3879850Y7690594D01*
D12*
G01*
X4235467Y6464300D03*
G01*
X4235467Y6337300D03*
G01*
X3009900Y6337300D03*
G01*
X3009900Y6464300D03*
G01*
X4848197Y6337300D03*
G01*
X4848197Y6464300D03*
G01*
X5461000Y6464300D03*
G01*
X5461000Y6337300D03*
G01*
X3622702Y6464300D03*
G01*
X3622702Y6337300D03*
D13*
G01*
X2031062Y7860388D03*
G01*
X2032942Y7379591D03*
D14*
G01*
X2891696Y6026739D03*
G01*
X2721693Y6026739D03*
G01*
X1621696Y6026739D03*
G01*
X1451693Y6026739D03*
G01*
X4123596Y6026739D03*
G01*
X3953593Y6026739D03*
G01*
X5380896Y6026739D03*
G01*
X5210893Y6026739D03*
G01*
X6587396Y6026739D03*
G01*
X6417393Y6026739D03*
D15*
G01*
X6604000Y6663596D03*
G01*
X6604000Y6493593D03*
D16*
G01*
X6196724Y6451600D03*
G01*
X6046075Y6451600D03*
D17*
G01*
X3530607Y7758824D03*
D18*
G01*
X3530607Y7608163D03*
D17*
G01*
X3181347Y7758824D03*
D18*
G01*
X3181347Y7608163D03*
D17*
G01*
X3879852Y7758824D03*
D18*
G01*
X3879852Y7608163D03*
D17*
G01*
X4578347Y7758824D03*
D18*
G01*
X4578347Y7608163D03*
D17*
G01*
X4229100Y7758824D03*
D18*
G01*
X4229100Y7608163D03*
D19*
G01*
X3379075Y6019800D03*
G01*
X3529724Y6019800D03*
G01*
X2134475Y6019800D03*
G01*
X2285124Y6019800D03*
G01*
X4649075Y6019800D03*
G01*
X4799724Y6019800D03*
G01*
X5893675Y6019800D03*
G01*
X6044324Y6019800D03*
G01*
X7138275Y6019800D03*
G01*
X7288924Y6019800D03*
D17*
G01*
X6604000Y7365124D03*
D18*
G01*
X6604000Y7214463D03*
D20*
G01*
X2766059Y6650177D03*
G01*
X3020059Y6650177D03*
G01*
X3020059Y7310170D03*
G01*
X2766059Y7310170D03*
G01*
X3372131Y6650177D03*
G01*
X3626131Y6650177D03*
G01*
X3626131Y7310170D03*
G01*
X3372131Y7310170D03*
G01*
X3978219Y6650177D03*
G01*
X4232219Y6650177D03*
G01*
X4232219Y7310170D03*
G01*
X3978219Y7310170D03*
G01*
X4584303Y6650177D03*
G01*
X4838303Y6650177D03*
G01*
X4838303Y7310170D03*
G01*
X4584303Y7310170D03*
G01*
X5207000Y6655003D03*
G01*
X5461000Y6655003D03*
G01*
X5461000Y7314996D03*
G01*
X5207000Y7314996D03*
G01*
X6045200Y7327696D03*
G01*
X5791200Y7327696D03*
G01*
X5791200Y6667703D03*
G01*
X6045200Y6667703D03*
D21*
G01*
X5168900Y7600442D03*
G01*
X5295900Y7600442D03*
G01*
X5422900Y7600442D03*
G01*
X5549900Y7600442D03*
G01*
X5676900Y7600442D03*
G01*
X5803900Y7600442D03*
G01*
X5930900Y7600442D03*
G01*
X6057900Y7600442D03*
G01*
X5168900Y8147558D03*
G01*
X5295900Y8147558D03*
G01*
X5422900Y8147558D03*
G01*
X5549900Y8147558D03*
G01*
X5676900Y8147558D03*
G01*
X5803900Y8147558D03*
G01*
X5930900Y8147558D03*
G01*
X6057900Y8147558D03*
D22*
G01*
X5342140Y5537200D03*
G01*
X5692127Y5537200D03*
G01*
X6042139Y5537200D03*
G01*
X6594360Y5537200D03*
G01*
X6944347Y5537200D03*
G01*
X7294359Y5537200D03*
G01*
X4089920Y5537200D03*
G01*
X4439907Y5537200D03*
G01*
X4789919Y5537200D03*
G01*
X1585480Y5537200D03*
G01*
X1935467Y5537200D03*
G01*
X2285479Y5537200D03*
G01*
X7035800Y6635000D03*
G01*
X7035800Y6984987D03*
G01*
X7035800Y7334999D03*
G01*
X2837700Y5537200D03*
G01*
X3187687Y5537200D03*
G01*
X3537699Y5537200D03*
D23*
G01*
X2410193Y8382000D03*
G01*
X2060206Y8382000D03*
D24*
G01*
X3276600Y8229600D03*
G01*
X3276600Y8483600D03*
G01*
X3530600Y8229600D03*
G01*
X3530600Y8483600D03*
G01*
X3784600Y8229600D03*
G01*
X3784600Y8483600D03*
G01*
X4038600Y8229600D03*
G01*
X4038600Y8483600D03*
G01*
X4292600Y8229600D03*
G01*
X4292600Y8483600D03*
D25*
G01*
X3705225Y7677310D03*
G01*
X2934106Y7423081D03*
G01*
X5100624Y6104846D03*
G01*
X4659528Y6526207D03*
G01*
X3052038Y7738066D03*
G01*
X4378731Y7738066D03*
G01*
X4035196Y7677310D03*
M02*
